<svg width="37" height="31" viewBox="0 0 37 31" fill="none" xmlns="http://www.w3.org/2000/svg">
<path d="M31.3571 11.625C32.7206 11.6233 34.0277 11.0784 34.9918 10.1098C35.9559 9.14126 36.4983 7.82809 36.5 6.45833V2.58333H32.6429C31.3265 2.58542 30.0616 3.09707 29.111 4.01192C28.4454 2.79742 27.4676 1.78455 26.2797 1.07891C25.0918 0.37326 23.7372 0.000676335 22.3571 0H18.5V3.875C18.5024 5.92969 19.3159 7.89955 20.7621 9.35244C22.2083 10.8053 24.1691 11.6226 26.2143 11.625H27.5V28.4167H12.0714V21.9583H13.3571C14.7206 21.9566 16.0277 21.4117 16.9918 20.4432C17.9559 19.4746 18.4983 18.1614 18.5 16.7917V12.9167H14.6429C13.3265 12.9188 12.0616 13.4304 11.111 14.3452C10.4454 13.1308 9.46761 12.1179 8.27969 11.4122C7.09177 10.7066 5.73718 10.334 4.35714 10.3333H0.5V14.2083C0.502382 16.263 1.3159 18.2329 2.76209 19.6858C4.20829 21.1387 6.16906 21.9559 8.21429 21.9583H9.5V28.4167H0.5V31H36.5V28.4167H30.0714V11.625H31.3571ZM30.0714 7.75C30.0714 7.06486 30.3423 6.40778 30.8246 5.92331C31.3068 5.43884 31.9609 5.16667 32.6429 5.16667H33.9286V6.45833C33.9286 7.14348 33.6577 7.80056 33.1754 8.28502C32.6932 8.76949 32.0391 9.04167 31.3571 9.04167H30.0714V7.75ZM12.0714 18.0833C12.0714 17.3982 12.3423 16.7411 12.8246 16.2566C13.3068 15.7722 13.9609 15.5 14.6429 15.5H15.9286V16.7917C15.9286 17.4768 15.6577 18.1339 15.1754 18.6184C14.6932 19.1028 14.0391 19.375 13.3571 19.375H12.0714V18.0833ZM9.5 19.375H8.21429C6.85084 19.3733 5.54372 18.8284 4.57962 17.8598C3.61551 16.8913 3.07313 15.5781 3.07143 14.2083V12.9167H4.35714C5.72059 12.9184 7.02771 13.4633 7.99181 14.4318C8.95592 15.4004 9.4983 16.7136 9.5 18.0833V19.375ZM27.5 9.04167H26.2143C24.8508 9.03996 23.5437 8.49506 22.5796 7.5265C21.6155 6.55793 21.0731 5.24476 21.0714 3.875V2.58333H22.3571C23.7206 2.58504 25.0277 3.12993 25.9918 4.0985C26.9559 5.06707 27.4983 6.38024 27.5 7.75V9.04167Z" fill="white"/>
</svg>
