<svg width="28" height="18" viewBox="0 0 28 18" fill="none" xmlns="http://www.w3.org/2000/svg">
<path d="M27.361 6.18081L24.5816 0.716406C24.5049 0.565349 24.3987 0.43064 24.2691 0.319972C24.1395 0.209303 23.9891 0.124842 23.8263 0.071413C23.6635 0.0179838 23.4917 -0.00336739 23.3205 0.00857867C23.1494 0.0205247 22.9823 0.065534 22.8288 0.141036L19.9742 1.54035L14.1083 0.0146049C14.037 -0.00402185 13.9619 -0.00402185 13.8906 0.0146049L8.02468 1.54035L5.17011 0.135679C5.01664 0.0601768 4.84955 0.0151675 4.6784 0.00322149C4.50725 -0.00872456 4.33538 0.0126266 4.17262 0.0660558C4.00985 0.119485 3.85937 0.203945 3.72977 0.314614C3.60018 0.425283 3.494 0.559992 3.41731 0.711048L0.637863 6.18081C0.561146 6.33185 0.515412 6.49629 0.503273 6.66473C0.491135 6.83317 0.51283 7.00232 0.567119 7.1625C0.621408 7.32269 0.707229 7.47079 0.819679 7.59833C0.932129 7.72587 1.06901 7.83037 1.22249 7.90585L4.19355 9.36838L10.263 13.6349C10.3073 13.6661 10.3572 13.6887 10.41 13.7013L17.3777 15.4156C17.4502 15.4343 17.5264 15.4343 17.5988 15.4155C17.6713 15.3967 17.7376 15.3599 17.7914 15.3085L23.838 9.35766L26.7775 7.9112C26.931 7.83572 27.0679 7.73123 27.1803 7.60369C27.2928 7.47614 27.3786 7.32805 27.4329 7.16786C27.4872 7.00767 27.5089 6.83853 27.4967 6.67009C27.4846 6.50165 27.4389 6.33721 27.3621 6.18617L27.361 6.18081ZM21.8087 10.1398L17.7587 6.9469C17.6749 6.88069 17.5691 6.84735 17.4618 6.85328C17.3545 6.85921 17.2532 6.90401 17.1774 6.97904C15.0555 9.08337 12.6767 8.81229 11.158 7.85763C11.102 7.82233 11.0549 7.77512 11.0201 7.71948C10.9852 7.66384 10.9635 7.6012 10.9565 7.53619C10.9491 7.47361 10.9561 7.41019 10.977 7.35064C10.998 7.29109 11.0323 7.23695 11.0774 7.19226L15.9177 2.57109H19.8273L23.0498 8.91515L21.8087 10.1398ZM1.39342 6.89118C1.3586 6.78505 1.3672 6.66974 1.41737 6.56975L4.20117 1.09463C4.23689 1.02387 4.29179 0.964209 4.3598 0.922233C4.42782 0.880257 4.5063 0.8576 4.58657 0.856766C4.65392 0.857169 4.72025 0.87294 4.78036 0.902838L7.39323 2.18858L4.22403 8.4255L1.61116 7.13976C1.56005 7.11443 1.51452 7.07945 1.47715 7.03679C1.43979 6.99414 1.41134 6.94466 1.39342 6.89118ZM17.3494 14.5253L10.7018 12.8892L4.97524 8.86372L8.27835 2.3568L13.9995 0.871766L17.2351 1.71393H15.7414C15.628 1.71382 15.519 1.75726 15.4376 1.835L10.4623 6.58475C10.3238 6.72102 10.2182 6.88618 10.1534 7.06802C10.0885 7.24986 10.066 7.44373 10.0876 7.63528C10.1091 7.82683 10.1741 8.01116 10.2778 8.17465C10.3815 8.33814 10.5212 8.4766 10.6865 8.57979C12.8509 9.9416 15.491 9.65124 17.5083 7.85013L21.1849 10.7495L17.3494 14.5253ZM26.6033 6.89118C26.5854 6.94466 26.5569 6.99414 26.5196 7.03679C26.4822 7.07945 26.4367 7.11443 26.3856 7.13976L23.7727 8.4255L20.6057 2.18858L23.2185 0.902838C23.3213 0.853579 23.4397 0.846082 23.5481 0.881965C23.6564 0.917848 23.7461 0.994233 23.7977 1.09463L26.5772 6.56439C26.6303 6.66532 26.6405 6.78286 26.6055 6.89118H26.6033ZM13.9929 17.6786C13.9688 17.7707 13.9141 17.8523 13.8376 17.9105C13.7612 17.9687 13.6672 18.0002 13.5705 18C13.5338 18.0002 13.4972 17.9959 13.4616 17.9871L8.92394 16.8696C8.87079 16.8568 8.82056 16.8343 8.77588 16.8032L5.90825 14.7856C5.81427 14.7196 5.7508 14.6195 5.73181 14.5073C5.71282 14.3952 5.73987 14.2803 5.807 14.1878C5.87413 14.0953 5.97585 14.0328 6.08978 14.0141C6.20371 13.9954 6.32051 14.0221 6.4145 14.0881L9.21463 16.0564L13.6783 17.1546C13.734 17.1685 13.7864 17.1931 13.8325 17.227C13.8785 17.2608 13.9173 17.3034 13.9465 17.3521C13.9758 17.4008 13.9949 17.4547 14.0029 17.5107C14.0109 17.5668 14.0075 17.6238 13.9929 17.6786Z" fill="#1B2A51"/>
</svg>
