<svg width="28" height="27" viewBox="0 0 28 27" fill="none" xmlns="http://www.w3.org/2000/svg">
<path d="M1.09467 7.85958C1.83457 1.12972 7.75602 0.48117 11.7866 2.81732C13.054 3.55265 14.2986 3.55265 15.5683 2.81732C19.5989 0.48117 25.5204 1.12972 26.2603 7.85958C27.0024 14.61 23.2002 21.7532 21.1632 24.489C20.6996 25.1124 19.9529 25.4093 19.1764 25.4093C18.556 25.4093 17.9506 25.2178 17.443 24.861C16.9354 24.5042 16.5503 23.9995 16.3402 23.4157L15.6208 21.4198C15.4763 21.0203 15.2122 20.6751 14.8645 20.4312C14.5167 20.1872 14.1023 20.0563 13.6775 20.0563C13.2527 20.0563 12.8382 20.1872 12.4905 20.4312C12.1427 20.6751 11.8786 21.0203 11.7341 21.4198L11.0148 23.4157C10.8046 23.9995 10.4195 24.5042 9.9119 24.861C9.40429 25.2178 8.79895 25.4093 8.17849 25.4093C7.40206 25.4093 6.65303 25.1124 6.19173 24.489C4.15474 21.7532 0.352494 14.61 1.09467 7.85958Z" stroke="white" stroke-width="1.6" stroke-linecap="round" stroke-linejoin="round"/>
<path d="M16.6248 8.1972C14.2042 9.07869 12.9025 9.06042 10.7285 8.1972" stroke="white" stroke-width="1.6" stroke-linecap="round" stroke-linejoin="round"/>
</svg>
