<svg width="22" height="21" viewBox="0 0 22 21" fill="none" xmlns="http://www.w3.org/2000/svg">
<path d="M6.79978 6.29999C6.79978 6.16075 6.85509 6.02721 6.95355 5.92876C7.052 5.8303 7.18554 5.77499 7.32478 5.77499H10.4748C10.614 5.77499 10.7476 5.8303 10.846 5.92876C10.9445 6.02721 10.9998 6.16075 10.9998 6.29999C10.9998 6.43923 10.9445 6.57276 10.846 6.67122C10.7476 6.76968 10.614 6.82499 10.4748 6.82499H7.32478C7.18554 6.82499 7.052 6.76968 6.95355 6.67122C6.85509 6.57276 6.79978 6.43923 6.79978 6.29999ZM7.32478 7.87499C7.18554 7.87499 7.052 7.9303 6.95355 8.02876C6.85509 8.12721 6.79978 8.26075 6.79978 8.39999C6.79978 8.53923 6.85509 8.67276 6.95355 8.77122C7.052 8.86968 7.18554 8.92499 7.32478 8.92499H9.42478C9.56402 8.92499 9.69755 8.86968 9.79601 8.77122C9.89447 8.67276 9.94978 8.53923 9.94978 8.39999C9.94978 8.26075 9.89447 8.12721 9.79601 8.02876C9.69755 7.9303 9.56402 7.87499 9.42478 7.87499H7.32478ZM8.89978 1.04999C7.80678 1.04962 6.73249 1.33362 5.78246 1.87408C4.83244 2.41454 4.03937 3.19286 3.48117 4.13258C2.92298 5.07229 2.61887 6.14106 2.59873 7.23388C2.57858 8.32669 2.8431 9.40594 3.36628 10.3656L2.62078 12.9801C2.59455 13.0719 2.59385 13.1691 2.61876 13.2613C2.64367 13.3535 2.69324 13.4371 2.76214 13.5032C2.83105 13.5693 2.91667 13.6153 3.0098 13.6364C3.10293 13.6575 3.20004 13.6527 3.29068 13.6227L5.74558 12.8047C6.58228 13.2882 7.519 13.5728 8.48326 13.6363C9.44752 13.6999 10.4135 13.5408 11.3064 13.1713C12.1993 12.8018 12.9953 12.2319 13.6327 11.5056C14.2702 10.7793 14.732 9.91607 14.9824 8.98273C15.2329 8.0494 15.2652 7.07095 15.0771 6.1231C14.8889 5.17525 14.4851 4.28339 13.8971 3.51652C13.3091 2.74966 12.5526 2.12834 11.686 1.70064C10.8195 1.27294 9.86613 1.05031 8.89978 1.04999ZM3.64978 7.34999C3.64995 6.18512 4.03753 5.05339 4.75149 4.13297C5.46545 3.21255 6.46524 2.55572 7.59348 2.26588C8.72171 1.97604 9.91429 2.06965 10.9835 2.53198C12.0527 2.99431 12.9377 3.7991 13.4993 4.81965C14.0609 5.84019 14.2672 7.01854 14.0856 8.16916C13.904 9.31979 13.3449 10.3773 12.4963 11.1753C11.6477 11.9733 10.5578 12.4665 9.39823 12.577C8.23862 12.6876 7.07517 12.4094 6.09103 11.7862C6.0252 11.7445 5.9509 11.718 5.87353 11.7085C5.79616 11.6991 5.71766 11.707 5.64373 11.7316L3.90283 12.3123L4.43833 10.4422C4.45784 10.3734 4.46306 10.3012 4.45367 10.2303C4.44428 10.1593 4.42048 10.091 4.38373 10.0296C3.90289 9.2185 3.64936 8.29289 3.64978 7.34999ZM13.3896 15.6943L10.8675 14.4343C11.3309 14.3048 11.7729 14.134 12.1936 13.9219L13.6248 14.638L18.3498 12.2755V11.55C18.3498 11.2715 18.2392 11.0044 18.0422 10.8075C17.8453 10.6106 17.5783 10.5 17.2998 10.5H15.5421C15.7031 10.1633 15.8375 9.81329 15.9453 9.44999H17.2998C17.8567 9.44999 18.3909 9.67124 18.7847 10.0651C19.1785 10.4589 19.3998 10.993 19.3998 11.55V16.8C19.3998 17.3569 19.1785 17.8911 18.7847 18.2849C18.3909 18.6787 17.8567 18.9 17.2998 18.9H9.94978C9.39282 18.9 8.85868 18.6787 8.46485 18.2849C8.07103 17.8911 7.84978 17.3569 7.84978 16.8V14.6265C8.19278 14.6755 8.54278 14.7 8.89978 14.7V16.8C8.89978 17.0785 9.0104 17.3455 9.20732 17.5425C9.40423 17.7394 9.6713 17.85 9.94978 17.85H17.2998C17.5783 17.85 17.8453 17.7394 18.0422 17.5425C18.2392 17.3455 18.3498 17.0785 18.3498 16.8V13.4494L13.86 15.6943C13.787 15.7309 13.7064 15.75 13.6248 15.75C13.5431 15.75 13.4626 15.7309 13.3896 15.6943Z" fill="#211F54"/>
</svg>
