<svg width="35" height="31" viewBox="0 0 35 31" fill="none" xmlns="http://www.w3.org/2000/svg">
<path d="M2.88313 1.11892e-05C1.29063 1.11892e-05 3.27176e-08 1.2891 3.27176e-08 2.87971V10.9245C-0.000209205 13.628 1.00319 16.2355 2.81617 18.2428C4.62915 20.2502 7.12293 21.5148 9.81531 21.7922C9.11036 20.0771 8.74845 18.2408 8.75 16.3868C8.75 14.5733 9.09125 12.8385 9.7125 11.2435L6.87969 8.42062C6.778 8.31905 6.69733 8.19847 6.64229 8.06576C6.58726 7.93305 6.55893 7.79081 6.55893 7.64717C6.55893 7.50352 6.58726 7.36129 6.64229 7.22858C6.69733 7.09587 6.778 6.97528 6.87969 6.87371C6.98138 6.77214 7.10211 6.69157 7.23497 6.6366C7.36784 6.58163 7.51025 6.55334 7.65406 6.55334C7.79788 6.55334 7.94028 6.58163 8.07315 6.6366C8.20602 6.69157 8.32675 6.77214 8.42844 6.87371L10.7209 9.16568C12.4529 6.2409 15.1746 4.03082 18.3947 2.93433C16.3726 1.04524 13.7062 -0.00395238 10.9375 1.11892e-05H2.88313ZM13.7222 24.0776L9.0475 28.7468C8.94304 28.8475 8.85971 28.9681 8.80239 29.1014C8.74507 29.2347 8.71489 29.378 8.71363 29.5231C8.71237 29.6681 8.74004 29.812 8.79504 29.9462C8.85003 30.0805 8.93125 30.2025 9.03394 30.305C9.13664 30.4076 9.25876 30.4887 9.39318 30.5436C9.52759 30.5986 9.67162 30.6262 9.81684 30.625C9.96207 30.6237 10.1056 30.5936 10.239 30.5363C10.3725 30.4791 10.4932 30.3958 10.5941 30.2915L15.2687 25.6224C17.0258 27.0841 19.1635 28.0154 21.4314 28.3073C23.6993 28.5991 26.0035 28.2394 28.0741 27.2702C30.1447 26.301 31.8959 24.7626 33.1225 22.835C34.3491 20.9075 35.0004 18.6707 35 16.3868V7.45053C35 5.7463 33.6219 4.36981 31.9156 4.36981H22.9688C20.6821 4.36943 18.4427 5.01992 16.5128 6.24509C14.583 7.47026 13.0427 9.21936 12.0724 11.2875C11.102 13.3556 10.7419 15.6571 11.0341 17.9223C11.3263 20.1875 12.2587 22.3227 13.7222 24.0776ZM23.7409 17.1602L16.8241 24.0689C16.2527 23.613 15.734 23.0949 15.2775 22.5242L22.1944 15.6133C22.3995 15.4082 22.6777 15.2928 22.968 15.2926C23.2582 15.2924 23.5367 15.4074 23.742 15.6122C23.9474 15.8171 24.0629 16.095 24.0631 16.3849C24.0633 16.6748 23.9482 16.9529 23.7431 17.158" fill="#548787"/>
</svg>
