<svg width="40" height="35" viewBox="0 0 40 35" fill="none" xmlns="http://www.w3.org/2000/svg">
<path d="M3.295 1.27876e-05C1.475 1.27876e-05 3.73915e-08 1.47326 3.73915e-08 3.2911V12.4852C-0.000239091 15.5748 1.1465 18.5548 3.21848 20.849C5.29046 23.1431 8.1405 24.5884 11.2175 24.9054C10.4118 22.9453 9.99823 20.8466 10 18.7277C10 16.6552 10.39 14.6726 11.1 12.8497L7.8625 9.62357C7.74628 9.50749 7.65409 9.36968 7.59119 9.21801C7.52829 9.06634 7.49592 8.90378 7.49592 8.73962C7.49592 8.57546 7.52829 8.4129 7.59119 8.26123C7.65409 8.10956 7.74628 7.97175 7.8625 7.85567C7.97872 7.73959 8.11669 7.64751 8.26854 7.58468C8.42039 7.52186 8.58314 7.48953 8.7475 7.48953C8.91186 7.48953 9.07461 7.52186 9.22646 7.58468C9.37831 7.64751 9.51628 7.73959 9.6325 7.85567L12.2525 10.4751C14.2319 7.13245 17.3424 4.60666 21.0225 3.35352C18.7116 1.19456 15.6643 -0.004517 12.5 1.27876e-05H3.295ZM15.6825 27.5173L10.34 32.8534C10.2206 32.9686 10.1254 33.1064 10.0599 33.2587C9.99436 33.411 9.95988 33.5749 9.95844 33.7406C9.95699 33.9064 9.98862 34.0708 10.0515 34.2243C10.1143 34.3777 10.2071 34.5171 10.3245 34.6343C10.4419 34.7515 10.5814 34.8443 10.7351 34.907C10.8887 34.9698 11.0533 35.0014 11.2193 35C11.3852 34.9985 11.5493 34.9641 11.7018 34.8986C11.8543 34.8332 11.9922 34.7381 12.1075 34.6188L17.45 29.2827C19.458 30.9532 21.9011 32.0176 24.493 32.3512C27.0849 32.6847 29.7183 32.2736 32.0847 31.166C34.4511 30.0583 36.4524 28.3001 37.8543 26.0972C39.2561 23.8943 40.0004 21.338 40 18.7277V8.51489C40 6.5672 38.425 4.99407 36.475 4.99407H26.25C23.6367 4.99363 21.0773 5.73705 18.8718 7.13724C16.6663 8.53744 14.9059 10.5364 13.797 12.9C12.6881 15.2635 12.2764 17.8938 12.6104 20.4827C12.9443 23.0715 14.01 25.5117 15.6825 27.5173ZM27.1325 19.6117L19.2275 27.5073C18.5745 26.9862 17.9817 26.3941 17.46 25.7419L25.365 17.8438C25.5994 17.6094 25.9174 17.4775 26.2491 17.4773C26.5808 17.4771 26.899 17.6084 27.1338 17.8425C27.3685 18.0767 27.5005 18.3943 27.5007 18.7256C27.5009 19.0569 27.3694 19.3748 27.135 19.6092" fill="#D6C9C4"/>
</svg>
