<svg width="28" height="28" viewBox="0 0 28 28" fill="none" xmlns="http://www.w3.org/2000/svg">
<path fill-rule="evenodd" clip-rule="evenodd" d="M0 0.682938C0 0.305762 0.305762 0 0.682938 0H5.80502C6.13065 0 6.41098 0.229895 6.47474 0.549217L8.00157 8.19609H17.642C18.7826 8.18163 19.8909 8.57554 20.7666 9.30676C21.6345 10.0314 22.2171 11.0399 22.4117 12.1528L25.2439 22.538L25.2681 22.5379C25.9926 22.5379 26.6875 22.8257 27.1998 23.338C27.7121 23.8503 27.9999 24.5452 27.9999 25.2697C27.9999 25.9942 27.7121 26.689 27.1998 27.2014C26.6875 27.7137 25.9926 28.0015 25.2681 28.0015C24.5436 28.0015 23.8488 27.7137 23.3365 27.2014C22.8242 26.689 22.5364 25.9942 22.5364 25.2697C22.5364 24.5452 22.8242 23.8503 23.3365 23.338C23.5128 23.1617 23.7108 23.012 23.9241 22.8914L23.6406 21.855H15.5198C15.4212 22.2975 15.2842 22.7317 15.1099 23.1526C14.7152 24.1055 14.1367 24.9713 13.4074 25.7006C12.6781 26.4299 11.8123 27.0084 10.8594 27.4031C9.90652 27.7978 8.88524 28.0009 7.85386 28.0009C5.77088 28.0009 3.77322 27.1735 2.30034 25.7006C0.827457 24.2277 0 22.23 0 20.1471C0 18.0641 0.827457 16.0664 2.30034 14.5936C3.67279 13.2211 5.50089 12.4091 7.42909 12.3047L6.81459 9.22709C6.7541 9.12516 6.71936 9.00615 6.71936 8.87903C6.71936 8.84658 6.72162 8.81465 6.726 8.78341L5.24496 1.36588H0.682938C0.305762 1.36588 0 1.06011 0 0.682938ZM8.27429 9.56196L8.83184 12.3543C9.52719 12.4416 10.2092 12.6217 10.8594 12.8911C11.8123 13.2857 12.6781 13.8643 13.4074 14.5936C13.6506 14.8368 13.8771 15.0952 14.0856 15.367H21.8725L21.0853 12.4803C21.0792 12.4582 21.0743 12.4358 21.0705 12.4132C20.936 11.6083 20.5176 10.8782 19.8912 10.3552C19.2648 9.83215 18.4718 9.55073 17.6558 9.5619L17.6465 9.56203V9.56196H8.27429ZM13.1318 16.3739C13.1566 16.4197 13.1864 16.4624 13.2205 16.5011C13.4681 16.8656 13.6785 17.2552 13.848 17.6642C14.174 18.4514 14.3418 19.2951 14.3418 20.1471C14.3418 20.4228 14.3243 20.6977 14.2894 20.9701C14.2697 21.0339 14.2591 21.1017 14.2591 21.172C14.2591 21.1746 14.2591 21.1772 14.2591 21.1798C14.1791 21.6763 14.0413 22.1631 13.848 22.6299C13.5219 23.4171 13.044 24.1323 12.4415 24.7348C11.8391 25.3372 11.1239 25.8151 10.3367 26.1412C9.54954 26.4672 8.70587 26.635 7.85386 26.635C6.13314 26.635 4.48289 25.9515 3.26616 24.7348C2.04943 23.518 1.36588 21.8678 1.36588 20.1471C1.36588 18.4264 2.04943 16.7761 3.26616 15.5594C4.48289 14.3426 6.13314 13.6591 7.85386 13.6591C7.94322 13.6591 8.03249 13.6609 8.12161 13.6646C8.188 13.6788 8.25732 13.6831 8.32765 13.6764C9.01746 13.7269 9.69581 13.8875 10.3367 14.153C11.1239 14.479 11.8391 14.9569 12.4415 15.5594C12.6942 15.812 12.925 16.0846 13.1318 16.3739ZM15.7003 20.4891C15.7052 20.3753 15.7077 20.2612 15.7077 20.1471C15.7077 19.1157 15.5046 18.0944 15.1099 17.1415C15.0527 17.0034 14.9916 16.8672 14.9268 16.7329H22.245L23.2693 20.4891H15.7003ZM24.3023 24.3039C24.5585 24.0477 24.9059 23.9038 25.2681 23.9038C25.6304 23.9038 25.9778 24.0477 26.234 24.3039C26.4901 24.56 26.634 24.9074 26.634 25.2697C26.634 25.632 26.4901 25.9794 26.234 26.2355C25.9778 26.4917 25.6304 26.6356 25.2681 26.6356C24.9059 26.6356 24.5585 26.4917 24.3023 26.2355C24.0461 25.9794 23.9022 25.632 23.9022 25.2697C23.9022 24.9074 24.0461 24.56 24.3023 24.3039Z" fill="white"/>
</svg>
