<svg width="15" height="14" viewBox="0 0 15 14" fill="none" xmlns="http://www.w3.org/2000/svg">
<path d="M14.915 13.1481C13.8177 11.307 12.1268 9.98674 10.1534 9.36089C11.1295 8.79691 11.8879 7.93752 12.3121 6.91471C12.7363 5.89191 12.8028 4.76223 12.5015 3.69918C12.2001 2.63612 11.5476 1.69846 10.6441 1.03019C9.74053 0.361924 8.63597 0 7.5 0C6.36403 0 5.25947 0.361924 4.35594 1.03019C3.45241 1.69846 2.79987 2.63612 2.49853 3.69918C2.1972 4.76223 2.26373 5.89191 2.6879 6.91471C3.11208 7.93752 3.87045 8.79691 4.84655 9.36089C2.87321 9.98604 1.1823 11.3063 0.0850403 13.1481C0.0448019 13.2118 0.0181121 13.2827 0.0065455 13.3565C-0.00502106 13.4304 -0.00123002 13.5057 0.0176949 13.5781C0.0366199 13.6505 0.0702954 13.7185 0.116735 13.7781C0.163174 13.8377 0.221436 13.8876 0.288083 13.925C0.354731 13.9624 0.428414 13.9864 0.504785 13.9957C0.581156 14.0049 0.658668 13.9993 0.732748 13.979C0.806828 13.9587 0.875975 13.9243 0.936109 13.8777C0.996243 13.831 1.04615 13.7732 1.08288 13.7075C2.44022 11.4307 4.83935 10.0713 7.5 10.0713C10.1607 10.0713 12.5598 11.4307 13.9171 13.7075C13.9539 13.7732 14.0038 13.831 14.0639 13.8777C14.124 13.9243 14.1932 13.9587 14.2673 13.979C14.3413 13.9993 14.4188 14.0049 14.4952 13.9957C14.5716 13.9864 14.6453 13.9624 14.7119 13.925C14.7786 13.8876 14.8368 13.8377 14.8833 13.7781C14.9297 13.7185 14.9634 13.6505 14.9823 13.5781C15.0012 13.5057 15.005 13.4304 14.9935 13.3565C14.9819 13.2827 14.9552 13.2118 14.915 13.1481ZM3.46543 5.03663C3.46543 4.26214 3.70205 3.50504 4.14538 2.86107C4.5887 2.21711 5.21882 1.71519 5.95604 1.41881C6.69326 1.12242 7.50448 1.04488 8.28711 1.19597C9.06973 1.34707 9.78862 1.72002 10.3529 2.26767C10.9171 2.81532 11.3014 3.51306 11.457 4.27267C11.6127 5.03228 11.5328 5.81964 11.2275 6.53517C10.9221 7.25071 10.405 7.86229 9.74149 8.29257C9.078 8.72286 8.29796 8.95252 7.5 8.95252C6.43032 8.95141 5.40477 8.53849 4.64839 7.80436C3.89201 7.07022 3.46658 6.07485 3.46543 5.03663Z" fill="#201F54"/>
</svg>
