<svg width="18" height="17" viewBox="0 0 18 17" fill="none" xmlns="http://www.w3.org/2000/svg">
<path d="M10.9257 1.07922C10.9433 1.01313 10.9737 0.951165 11.0153 0.896864C11.0569 0.842562 11.1088 0.796991 11.168 0.762754C11.2272 0.728517 11.2926 0.706287 11.3604 0.697335C11.4282 0.688383 11.4971 0.692884 11.5632 0.710581C12.8201 1.03847 13.967 1.69554 14.8855 2.61412C15.8041 3.53269 16.4611 4.67955 16.789 5.93655C16.8067 6.00262 16.8112 6.07152 16.8022 6.13933C16.7933 6.20714 16.7711 6.27251 16.7368 6.33172C16.7026 6.39093 16.657 6.44281 16.6027 6.4844C16.5484 6.52598 16.4864 6.55646 16.4204 6.57408C16.3765 6.58569 16.3313 6.59153 16.2859 6.59142C16.1713 6.59149 16.0598 6.55369 15.9688 6.4839C15.8778 6.4141 15.8125 6.31621 15.7829 6.20544C15.5014 5.12571 14.937 4.14058 14.1481 3.35158C13.3591 2.56258 12.374 1.99824 11.2943 1.71674C11.2282 1.69912 11.1662 1.66865 11.1119 1.62707C11.0576 1.58548 11.0121 1.5336 10.9778 1.47439C10.9436 1.41518 10.9214 1.3498 10.9124 1.282C10.9035 1.21419 10.908 1.14528 10.9257 1.07922ZM10.6004 4.49236C11.8624 4.82891 12.6708 5.6373 13.0073 6.89934C13.0369 7.01011 13.1023 7.108 13.1933 7.1778C13.2842 7.2476 13.3957 7.2854 13.5104 7.28533C13.5558 7.28543 13.601 7.2796 13.6448 7.26798C13.7109 7.25036 13.7729 7.21989 13.8272 7.1783C13.8815 7.13672 13.927 7.08484 13.9613 7.02563C13.9955 6.96642 14.0177 6.90104 14.0267 6.83323C14.0356 6.76543 14.0311 6.69652 14.0134 6.63046C13.5798 5.00759 12.4921 3.91989 10.8693 3.4862C10.8032 3.46854 10.7343 3.46407 10.6665 3.47305C10.5987 3.48202 10.5334 3.50425 10.4742 3.53848C10.415 3.57271 10.3631 3.61827 10.3215 3.67255C10.2799 3.72683 10.2494 3.78877 10.2318 3.85484C10.2141 3.9209 10.2096 3.9898 10.2186 4.05759C10.2276 4.12538 10.2498 4.19075 10.284 4.24995C10.3183 4.30915 10.3638 4.36102 10.4181 4.40262C10.4724 4.44421 10.5343 4.47471 10.6004 4.49236ZM17.4907 12.906C17.3421 14.0398 16.7857 15.0808 15.9254 15.8342C15.0652 16.5877 13.96 17.0021 12.8165 17C6.02508 17 0.500009 11.4748 0.500009 4.68319C0.497818 3.54001 0.911847 2.43514 1.66476 1.57494C2.41767 0.714746 3.45797 0.15806 4.59134 0.00887021C4.85224 -0.0228364 5.11638 0.0309616 5.3441 0.162184C5.57182 0.293407 5.75081 0.49497 5.85421 0.736603L7.68433 4.82197C7.76514 5.00692 7.79858 5.20909 7.78161 5.41021C7.76465 5.61133 7.69783 5.80505 7.58719 5.97385C7.57603 5.99103 7.56387 6.00754 7.55076 6.02329L5.72324 8.19694C5.71214 8.21948 5.70637 8.24426 5.70637 8.26937C5.70637 8.29449 5.71214 8.31927 5.72324 8.3418C6.38763 9.70185 7.81357 11.1174 9.19267 11.781C9.2157 11.7915 9.24085 11.7965 9.26614 11.7956C9.29143 11.7947 9.31617 11.7879 9.33839 11.7758L11.4799 9.95426C11.4952 9.941 11.5114 9.92882 11.5285 9.91783C11.6965 9.80579 11.8899 9.73743 12.091 9.71895C12.2921 9.70048 12.4947 9.73246 12.6803 9.81201L16.7777 11.6483C17.0161 11.7539 17.2142 11.9335 17.3426 12.1605C17.471 12.3875 17.5229 12.6498 17.4907 12.9086V12.906ZM16.4594 12.7776C16.4623 12.7413 16.4537 12.705 16.4349 12.6739C16.4161 12.6428 16.3879 12.6184 16.3544 12.6041L12.2562 10.7679C12.2338 10.7592 12.2098 10.7555 12.1858 10.757C12.1619 10.7585 12.1385 10.7652 12.1174 10.7765L9.97676 12.598C9.96115 12.611 9.94467 12.6232 9.92819 12.6345C9.75358 12.7509 9.55177 12.8201 9.34245 12.8353C9.13313 12.8505 8.92344 12.8112 8.73384 12.7212C7.14137 11.9518 5.5541 10.3793 4.78476 8.80151C4.69427 8.613 4.65399 8.40433 4.66782 8.19569C4.68164 7.98704 4.74911 7.78551 4.86369 7.6106C4.87492 7.59325 4.88739 7.57673 4.90098 7.56115L6.72677 5.3849C6.73721 5.36218 6.74261 5.33747 6.74261 5.31247C6.74261 5.28747 6.73721 5.26276 6.72677 5.24004L4.90098 1.15381C4.88893 1.121 4.86724 1.09259 4.83876 1.07231C4.81028 1.05204 4.77634 1.04084 4.74139 1.04019H4.72144C3.83929 1.15754 3.03 1.59196 2.44471 2.26235C1.85941 2.93274 1.53812 3.79324 1.54084 4.68319C1.54084 10.9006 6.59927 15.9591 12.8165 15.9591C13.7065 15.9618 14.5671 15.6404 15.2375 15.0549C15.9079 14.4694 16.3422 13.6599 16.4594 12.7776Z" fill="#2D1D46"/>
</svg>
