<svg width="18" height="18" viewBox="0 0 18 18" fill="none" xmlns="http://www.w3.org/2000/svg">
<path d="M17 17.5C17 14.672 17 13.257 16.121 12.379C15.243 11.5 13.828 11.5 11 11.5L9 13.5L7 11.5C4.172 11.5 2.757 11.5 1.879 12.379C1 13.257 1 14.672 1 17.5M13 14.5V17.5M14.5 16H11.5M12.5 5V4C12.5 3.54037 12.4095 3.08525 12.2336 2.66061C12.0577 2.23597 11.7999 1.85013 11.4749 1.52513C11.1499 1.20012 10.764 0.942313 10.3394 0.766422C9.91475 0.59053 9.45963 0.5 9 0.5C8.54037 0.5 8.08525 0.59053 7.66061 0.766422C7.23597 0.942313 6.85013 1.20012 6.52513 1.52513C6.20012 1.85013 5.94231 2.23597 5.76642 2.66061C5.59053 3.08525 5.5 3.54037 5.5 4V5C5.5 5.45963 5.59053 5.91475 5.76642 6.33939C5.94231 6.76403 6.20012 7.14987 6.52513 7.47487C6.85013 7.79988 7.23597 8.05769 7.66061 8.23358C8.08525 8.40947 8.54037 8.5 9 8.5C9.45963 8.5 9.91475 8.40947 10.3394 8.23358C10.764 8.05769 11.1499 7.79988 11.4749 7.47487C11.7999 7.14987 12.0577 6.76403 12.2336 6.33939C12.4095 5.91475 12.5 5.45963 12.5 5Z" stroke="#1B2A51" stroke-linecap="round" stroke-linejoin="round"/>
</svg>
