<svg width="10" height="20" viewBox="0 0 10 20" fill="none" xmlns="http://www.w3.org/2000/svg">
<path d="M9.8872 14.291C9.92296 14.3263 9.95133 14.3682 9.97068 14.4143C9.99004 14.4605 10 14.5099 10 14.5599C10 14.6098 9.99004 14.6592 9.97068 14.7054C9.95133 14.7515 9.92296 14.7934 9.8872 14.8287L5.27206 19.3886C5.23634 19.4239 5.19392 19.4519 5.14723 19.471C5.10054 19.4902 5.0505 19.5 4.99996 19.5C4.94941 19.5 4.89937 19.4902 4.85268 19.471C4.80599 19.4519 4.76357 19.4239 4.72785 19.3886L0.112708 14.8287C0.0405425 14.7574 -2.0118e-09 14.6607 0 14.5599C2.0118e-09 14.459 0.0405425 14.3623 0.112708 14.291C0.184874 14.2197 0.282752 14.1797 0.38481 14.1797C0.486867 14.1797 0.584745 14.2197 0.656911 14.291L4.99996 18.582L9.343 14.291C9.37872 14.2557 9.42113 14.2277 9.46782 14.2085C9.51451 14.1894 9.56456 14.1796 9.6151 14.1796C9.66564 14.1796 9.71569 14.1894 9.76238 14.2085C9.80907 14.2277 9.85148 14.2557 9.8872 14.291ZM0.656911 5.70899L4.99996 1.41797L9.343 5.70899C9.37873 5.74429 9.42115 5.77229 9.46784 5.7914C9.51453 5.81051 9.56457 5.82034 9.6151 5.82034C9.66564 5.82034 9.71568 5.81051 9.76236 5.7914C9.80905 5.77229 9.85147 5.74429 9.8872 5.70899C9.92294 5.67368 9.95128 5.63177 9.97062 5.58564C9.98996 5.53951 9.99991 5.49007 9.99991 5.44014C9.99991 5.39021 9.98996 5.34078 9.97062 5.29465C9.95128 5.24852 9.92294 5.20661 9.8872 5.1713L5.27206 0.611445C5.23634 0.576116 5.19392 0.548088 5.14723 0.528965C5.10054 0.509843 5.0505 0.5 4.99996 0.5C4.94941 0.5 4.89937 0.509843 4.85268 0.528965C4.80599 0.548088 4.76357 0.576116 4.72785 0.611445L0.112708 5.1713C0.0769754 5.20661 0.0486309 5.24852 0.0292924 5.29465C0.00995395 5.34078 0 5.39021 0 5.44014C0 5.49007 0.00995395 5.53951 0.0292924 5.58564C0.0486309 5.63177 0.0769754 5.67368 0.112708 5.70899C0.148441 5.74429 0.190862 5.77229 0.237549 5.7914C0.284237 5.81051 0.334276 5.82034 0.38481 5.82034C0.435344 5.82034 0.485383 5.81051 0.53207 5.7914C0.578757 5.77229 0.621178 5.74429 0.656911 5.70899Z" fill="black"/>
</svg>
