<svg width="36" height="25" viewBox="0 0 36 25" fill="none" xmlns="http://www.w3.org/2000/svg">
<path d="M35.9209 12.1262C35.869 12.0062 34.5999 9.16769 31.7656 6.30923C29.1357 3.66 24.6174 0.5 18 0.5C11.3826 0.5 6.86427 3.66 4.23441 6.30923C1.40013 9.16769 0.130965 12.0015 0.0791004 12.1262C0.0269491 12.2443 0 12.3722 0 12.5015C0 12.6309 0.0269491 12.7588 0.0791004 12.8769C0.130965 12.9954 1.40013 15.8338 4.23441 18.6923C6.86427 21.3415 11.3826 24.5 18 24.5C24.6174 24.5 29.1357 21.3415 31.7656 18.6923C34.5999 15.8338 35.869 13 35.9209 12.8769C35.973 12.7588 36 12.6309 36 12.5015C36 12.3722 35.973 12.2443 35.9209 12.1262ZM18 22.6538C13.2132 22.6538 9.03345 20.8969 5.57527 17.4338C4.12566 15.9808 2.89894 14.3179 1.93556 12.5C2.89868 10.6824 4.12543 9.01997 5.57527 7.56769C9.03345 4.10308 13.2132 2.34615 18 2.34615C22.7868 2.34615 26.9666 4.10308 30.4247 7.56769C31.8746 9.01997 33.1013 10.6824 34.0644 12.5C33.0927 14.3785 28.2205 22.6538 18 22.6538ZM18 5.42308C16.6122 5.42308 15.2555 5.83813 14.1015 6.61575C12.9476 7.39338 12.0482 8.49864 11.5171 9.79178C10.986 11.0849 10.847 12.5079 11.1178 13.8806C11.3885 15.2534 12.0569 16.5144 13.0382 17.5041C14.0196 18.4939 15.2699 19.1679 16.631 19.4409C17.9922 19.714 19.4031 19.5739 20.6853 19.0382C21.9675 18.5026 23.0634 17.5955 23.8345 16.4317C24.6055 15.2679 25.017 13.8997 25.017 12.5C25.0146 10.6238 24.2745 8.82521 22.9591 7.49856C21.6437 6.17191 19.8603 5.42552 18 5.42308ZM18 17.7308C16.9742 17.7308 15.9714 17.424 15.1185 16.8492C14.2656 16.2745 13.6008 15.4575 13.2083 14.5017C12.8157 13.5459 12.713 12.4942 12.9132 11.4795C13.1133 10.4649 13.6072 9.53282 14.3326 8.80129C15.0579 8.06975 15.9821 7.57157 16.9882 7.36974C17.9942 7.16791 19.0371 7.2715 19.9848 7.6674C20.9325 8.0633 21.7425 8.73375 22.3124 9.59394C22.8823 10.4541 23.1865 11.4655 23.1865 12.5C23.1865 13.8873 22.6401 15.2178 21.6674 16.1987C20.6948 17.1797 19.3755 17.7308 18 17.7308Z" fill="white"/>
</svg>
