<svg width="39" height="33" viewBox="0 0 39 33" fill="none" xmlns="http://www.w3.org/2000/svg">
<path d="M0.5 3.10575V11.782C0.499965 13.4453 0.854842 15.0896 1.54129 16.607C2.22773 18.1243 3.23019 19.4803 4.48272 20.5857C5.73525 21.6911 7.20947 22.5208 8.8084 23.0204C10.4073 23.5199 12.0947 23.6779 13.7596 23.484C14.214 24.3778 14.7603 25.2057 15.3984 25.9676L10.323 31.0033C10.1067 31.2255 9.98699 31.5231 9.9897 31.832C9.99241 32.141 10.1173 32.4365 10.3375 32.6549C10.5576 32.8734 10.8555 32.9973 11.1668 33C11.4782 33.0026 11.7782 32.8839 12.0021 32.6693L17.0775 27.6336C18.9851 29.2101 21.306 30.2145 23.7684 30.5293C26.2307 30.844 28.7324 30.4561 30.9805 29.4108C33.2285 28.3656 35.1298 26.7063 36.4616 24.6275C37.7933 22.5487 38.5004 20.1363 38.5 17.6731V8.03536C38.5 6.19736 37.0037 4.71282 35.1512 4.71282H25.4375C24.3094 4.71282 23.2145 4.8542 22.1719 5.12048C21.081 3.54155 19.6188 2.25012 17.9118 1.35793C16.2048 0.465735 14.3044 -0.000350375 12.375 1.9762e-07H3.63025C1.90125 1.9762e-07 0.5 1.39028 0.5 3.10575ZM18.7661 25.9582L26.2782 18.5072C26.5012 18.2863 26.6266 17.9866 26.6268 17.6739C26.6271 17.3613 26.5021 17.0613 26.2794 16.8401C26.0568 16.6188 25.7546 16.4944 25.4395 16.4942C25.1244 16.494 24.8221 16.618 24.5991 16.8389L17.087 24.2946C15.8299 22.7345 15.0425 20.8539 14.8154 18.8693C14.5883 16.8847 14.9308 14.8768 15.8034 13.0768C16.6759 11.2768 18.0432 9.75799 19.7476 8.69515C21.4521 7.63231 23.4244 7.0687 25.4375 7.06923H35.1512C35.2791 7.06923 35.4057 7.09422 35.5239 7.14277C35.642 7.19132 35.7494 7.26249 35.8398 7.3522C35.9302 7.44191 36.0019 7.54842 36.0509 7.66564C36.0998 7.78285 36.125 7.90848 36.125 8.03536V17.6731C36.1252 19.67 35.557 21.6264 34.4859 23.3171C33.4148 25.0078 31.8843 26.364 30.0705 27.2297C28.2568 28.0954 26.2335 28.4353 24.2336 28.2103C22.2338 27.9854 20.3385 27.2047 18.7661 25.9582ZM12.375 2.35641C15.4055 2.35641 18.1059 3.76554 19.8444 5.957C17.296 7.15835 15.2062 9.14336 13.8855 11.6171L9.65325 7.41326C9.54284 7.30372 9.41177 7.21682 9.26751 7.15754C9.12325 7.09825 8.96864 7.06774 8.8125 7.06774C8.65636 7.06774 8.50175 7.09825 8.35749 7.15754C8.21323 7.21682 8.08216 7.30372 7.97175 7.41326C7.86134 7.52281 7.77376 7.65286 7.71401 7.79598C7.65425 7.93911 7.6235 8.09251 7.6235 8.24743C7.6235 8.40235 7.65425 8.55576 7.71401 8.69888C7.77376 8.84201 7.86134 8.97206 7.97175 9.0816L12.9117 13.9829C12.5545 15.1809 12.3737 16.4238 12.375 17.6731C12.375 18.8937 12.546 20.0766 12.8642 21.1959C11.5771 21.2618 10.29 21.0671 9.08112 20.6237C7.87225 20.1803 6.76695 19.4976 5.83248 18.6169C4.89801 17.7363 4.15392 16.6762 3.64548 15.5012C3.13705 14.3262 2.8749 13.0608 2.875 11.782V3.10575C2.875 2.69102 3.21225 2.35641 3.63025 2.35641H12.375Z" fill="white"/>
</svg>
