<svg width="51" height="51" viewBox="0 0 51 51" fill="none" xmlns="http://www.w3.org/2000/svg">
<path d="M30.2727 18C28.2682 18 26.5252 18.8562 25.5 20.2911C24.4748 18.8562 22.7318 18 20.7273 18C19.2088 18.0017 17.7531 18.5738 16.6794 19.5907C15.6057 20.6077 15.0018 21.9866 15 23.4248C15 26.0649 16.7373 28.8126 20.1641 31.5901C21.7344 32.8575 23.4306 33.9778 25.2289 34.9354C25.3123 34.9778 25.4054 35 25.5 35C25.5946 35 25.6877 34.9778 25.7711 34.9354C27.5694 33.9778 29.2656 32.8575 30.8359 31.5901C34.2627 28.8126 36 26.0649 36 23.4248C35.9982 21.9866 35.3943 20.6077 34.3206 19.5907C33.2469 18.5738 31.7912 18.0017 30.2727 18ZM25.5 33.8323C23.9336 32.9761 16.1455 28.4627 16.1455 23.4248C16.1467 22.2742 16.6298 21.171 17.4888 20.3574C18.3478 19.5438 19.5125 19.0862 20.7273 19.085C22.6631 19.085 24.2887 20.0641 24.9702 21.641C25.0134 21.7405 25.0868 21.8256 25.1811 21.8854C25.2754 21.9453 25.3864 21.9773 25.5 21.9773C25.6136 21.9773 25.7246 21.9453 25.8189 21.8854C25.9132 21.8256 25.9866 21.7405 26.0298 21.641C26.7113 20.0641 28.3369 19.085 30.2727 19.085C31.4875 19.0862 32.6522 19.5438 33.5112 20.3574C34.3702 21.171 34.8533 22.2742 34.8545 23.4248C34.8545 28.4627 27.0664 32.9761 25.5 33.8323Z" fill="white"/>
<mask id="path-2-outside-1_1_3552" maskUnits="userSpaceOnUse" x="0" y="0" width="51" height="51" fill="black">
<rect fill="white" width="51" height="51"/>
<path fill-rule="evenodd" clip-rule="evenodd" d="M26.1667 1.5C26.1667 1.22386 25.9428 1 25.6667 1C25.3905 1 25.1667 1.22386 25.1667 1.5V6.33333C25.1667 6.60948 25.3905 6.83333 25.6667 6.83333C25.9428 6.83333 26.1667 6.60948 26.1667 6.33333V1.5ZM1.5 25.1667C1.22386 25.1667 1 25.3905 1 25.6667C1 25.9428 1.22386 26.1667 1.5 26.1667H6.33333C6.60948 26.1667 6.83333 25.9428 6.83333 25.6667C6.83333 25.3905 6.60948 25.1667 6.33333 25.1667H1.5ZM45 25.1667C44.7239 25.1667 44.5 25.3905 44.5 25.6667C44.5 25.9428 44.7239 26.1667 45 26.1667H49.8333C50.1095 26.1667 50.3333 25.9428 50.3333 25.6667C50.3333 25.3905 50.1095 25.1667 49.8333 25.1667H45ZM26.1667 45C26.1667 44.7239 25.9428 44.5 25.6667 44.5C25.3905 44.5 25.1667 44.7239 25.1667 45V49.8333C25.1667 50.1095 25.3905 50.3333 25.6667 50.3333C25.9428 50.3333 26.1667 50.1095 26.1667 49.8333V45ZM11.5201 10.813C11.3248 10.6177 11.0082 10.6177 10.813 10.813C10.6177 11.0082 10.6177 11.3248 10.813 11.5201L11.6419 12.349C11.8371 12.5442 12.1537 12.5442 12.349 12.349C12.5442 12.1537 12.5442 11.8371 12.349 11.6419L11.5201 10.813ZM40.5201 11.5201C40.7153 11.3248 40.7153 11.0082 40.5201 10.813C40.3248 10.6177 40.0082 10.6177 39.813 10.813L38.984 11.6419C38.7888 11.8371 38.7888 12.1537 38.984 12.349C39.1793 12.5442 39.4959 12.5442 39.6911 12.349L40.5201 11.5201ZM12.349 39.6911C12.5442 39.4959 12.5442 39.1793 12.349 38.984C12.1537 38.7888 11.8371 38.7888 11.6419 38.984L10.813 39.813C10.6177 40.0082 10.6177 40.3248 10.813 40.5201C11.0082 40.7153 11.3248 40.7153 11.5201 40.5201L12.349 39.6911ZM39.6911 38.984C39.4959 38.7888 39.1793 38.7888 38.984 38.984C38.7888 39.1793 38.7888 39.4959 38.984 39.6911L39.813 40.5201C40.0082 40.7153 40.3248 40.7153 40.5201 40.5201C40.7153 40.3248 40.7153 40.0082 40.5201 39.813L39.6911 38.984Z"/>
</mask>
<path fill-rule="evenodd" clip-rule="evenodd" d="M26.1667 1.5C26.1667 1.22386 25.9428 1 25.6667 1C25.3905 1 25.1667 1.22386 25.1667 1.5V6.33333C25.1667 6.60948 25.3905 6.83333 25.6667 6.83333C25.9428 6.83333 26.1667 6.60948 26.1667 6.33333V1.5ZM1.5 25.1667C1.22386 25.1667 1 25.3905 1 25.6667C1 25.9428 1.22386 26.1667 1.5 26.1667H6.33333C6.60948 26.1667 6.83333 25.9428 6.83333 25.6667C6.83333 25.3905 6.60948 25.1667 6.33333 25.1667H1.5ZM45 25.1667C44.7239 25.1667 44.5 25.3905 44.5 25.6667C44.5 25.9428 44.7239 26.1667 45 26.1667H49.8333C50.1095 26.1667 50.3333 25.9428 50.3333 25.6667C50.3333 25.3905 50.1095 25.1667 49.8333 25.1667H45ZM26.1667 45C26.1667 44.7239 25.9428 44.5 25.6667 44.5C25.3905 44.5 25.1667 44.7239 25.1667 45V49.8333C25.1667 50.1095 25.3905 50.3333 25.6667 50.3333C25.9428 50.3333 26.1667 50.1095 26.1667 49.8333V45ZM11.5201 10.813C11.3248 10.6177 11.0082 10.6177 10.813 10.813C10.6177 11.0082 10.6177 11.3248 10.813 11.5201L11.6419 12.349C11.8371 12.5442 12.1537 12.5442 12.349 12.349C12.5442 12.1537 12.5442 11.8371 12.349 11.6419L11.5201 10.813ZM40.5201 11.5201C40.7153 11.3248 40.7153 11.0082 40.5201 10.813C40.3248 10.6177 40.0082 10.6177 39.813 10.813L38.984 11.6419C38.7888 11.8371 38.7888 12.1537 38.984 12.349C39.1793 12.5442 39.4959 12.5442 39.6911 12.349L40.5201 11.5201ZM12.349 39.6911C12.5442 39.4959 12.5442 39.1793 12.349 38.984C12.1537 38.7888 11.8371 38.7888 11.6419 38.984L10.813 39.813C10.6177 40.0082 10.6177 40.3248 10.813 40.5201C11.0082 40.7153 11.3248 40.7153 11.5201 40.5201L12.349 39.6911ZM39.6911 38.984C39.4959 38.7888 39.1793 38.7888 38.984 38.984C38.7888 39.1793 38.7888 39.4959 38.984 39.6911L39.813 40.5201C40.0082 40.7153 40.3248 40.7153 40.5201 40.5201C40.7153 40.3248 40.7153 40.0082 40.5201 39.813L39.6911 38.984Z" fill="white"/>
<path d="M10.813 10.813L10.6008 10.6008L10.6008 10.6008L10.813 10.813ZM11.5201 10.813L11.7322 10.6008H11.7322L11.5201 10.813ZM10.813 11.5201L10.6008 11.7322V11.7322L10.813 11.5201ZM11.6419 12.349L11.4297 12.5611H11.4297L11.6419 12.349ZM12.349 12.349L12.5611 12.5611L12.5611 12.5611L12.349 12.349ZM12.349 11.6419L12.5611 11.4297V11.4297L12.349 11.6419ZM40.5201 10.813L40.3079 11.0251L40.3079 11.0251L40.5201 10.813ZM40.5201 11.5201L40.3079 11.3079L40.5201 11.5201ZM39.813 10.813L39.6008 10.6008L39.813 10.813ZM38.984 11.6419L38.7719 11.4297L38.7719 11.4297L38.984 11.6419ZM38.984 12.349L38.7719 12.5611L38.7719 12.5611L38.984 12.349ZM39.6911 12.349L39.479 12.1368L39.479 12.1368L39.6911 12.349ZM12.349 38.984L12.5611 38.7719L12.5611 38.7719L12.349 38.984ZM12.349 39.6911L12.1368 39.479L12.1368 39.479L12.349 39.6911ZM11.6419 38.984L11.4297 38.7719L11.4297 38.7719L11.6419 38.984ZM10.813 39.813L10.6008 39.6008L10.813 39.813ZM10.813 40.5201L11.0251 40.3079L11.0251 40.3079L10.813 40.5201ZM11.5201 40.5201L11.3079 40.3079L11.5201 40.5201ZM38.984 38.984L38.7719 38.7719L38.7719 38.7719L38.984 38.984ZM40.5201 40.5201L40.3079 40.3079L40.3079 40.3079L40.5201 40.5201ZM25.6667 1.3C25.7771 1.3 25.8667 1.38954 25.8667 1.5H26.4667C26.4667 1.05817 26.1085 0.7 25.6667 0.7V1.3ZM25.4667 1.5C25.4667 1.38954 25.5562 1.3 25.6667 1.3V0.7C25.2248 0.7 24.8667 1.05817 24.8667 1.5H25.4667ZM25.4667 6.33333V1.5H24.8667V6.33333H25.4667ZM25.6667 6.53333C25.5562 6.53333 25.4667 6.44379 25.4667 6.33333H24.8667C24.8667 6.77516 25.2248 7.13333 25.6667 7.13333V6.53333ZM25.8667 6.33333C25.8667 6.44379 25.7771 6.53333 25.6667 6.53333V7.13333C26.1085 7.13333 26.4667 6.77516 26.4667 6.33333H25.8667ZM25.8667 1.5V6.33333H26.4667V1.5H25.8667ZM1.3 25.6667C1.3 25.5562 1.38954 25.4667 1.5 25.4667V24.8667C1.05817 24.8667 0.7 25.2248 0.7 25.6667H1.3ZM1.5 25.8667C1.38954 25.8667 1.3 25.7771 1.3 25.6667H0.7C0.7 26.1085 1.05817 26.4667 1.5 26.4667V25.8667ZM6.33333 25.8667H1.5V26.4667H6.33333V25.8667ZM6.53333 25.6667C6.53333 25.7771 6.44379 25.8667 6.33333 25.8667V26.4667C6.77516 26.4667 7.13333 26.1085 7.13333 25.6667H6.53333ZM6.33333 25.4667C6.44379 25.4667 6.53333 25.5562 6.53333 25.6667H7.13333C7.13333 25.2248 6.77516 24.8667 6.33333 24.8667V25.4667ZM1.5 25.4667H6.33333V24.8667H1.5V25.4667ZM44.8 25.6667C44.8 25.5562 44.8895 25.4667 45 25.4667V24.8667C44.5582 24.8667 44.2 25.2248 44.2 25.6667H44.8ZM45 25.8667C44.8895 25.8667 44.8 25.7771 44.8 25.6667H44.2C44.2 26.1085 44.5582 26.4667 45 26.4667V25.8667ZM49.8333 25.8667H45V26.4667H49.8333V25.8667ZM50.0333 25.6667C50.0333 25.7771 49.9438 25.8667 49.8333 25.8667V26.4667C50.2752 26.4667 50.6333 26.1085 50.6333 25.6667H50.0333ZM49.8333 25.4667C49.9438 25.4667 50.0333 25.5562 50.0333 25.6667H50.6333C50.6333 25.2248 50.2752 24.8667 49.8333 24.8667V25.4667ZM45 25.4667H49.8333V24.8667H45V25.4667ZM25.6667 44.8C25.7771 44.8 25.8667 44.8895 25.8667 45H26.4667C26.4667 44.5582 26.1085 44.2 25.6667 44.2V44.8ZM25.4667 45C25.4667 44.8895 25.5562 44.8 25.6667 44.8V44.2C25.2248 44.2 24.8667 44.5582 24.8667 45H25.4667ZM25.4667 49.8333V45H24.8667V49.8333H25.4667ZM25.6667 50.0333C25.5562 50.0333 25.4667 49.9438 25.4667 49.8333H24.8667C24.8667 50.2752 25.2248 50.6333 25.6667 50.6333V50.0333ZM25.8667 49.8333C25.8667 49.9438 25.7771 50.0333 25.6667 50.0333V50.6333C26.1085 50.6333 26.4667 50.2752 26.4667 49.8333H25.8667ZM25.8667 45V49.8333H26.4667V45H25.8667ZM11.0251 11.0251C11.1032 10.947 11.2298 10.947 11.3079 11.0251L11.7322 10.6008C11.4198 10.2884 10.9132 10.2884 10.6008 10.6008L11.0251 11.0251ZM11.0251 11.3079C10.947 11.2298 10.947 11.1032 11.0251 11.0251L10.6008 10.6008C10.2884 10.9132 10.2884 11.4198 10.6008 11.7322L11.0251 11.3079ZM11.854 12.1368L11.0251 11.3079L10.6008 11.7322L11.4297 12.5611L11.854 12.1368ZM12.1368 12.1368C12.0587 12.2149 11.9321 12.2149 11.854 12.1368L11.4297 12.5611C11.7422 12.8735 12.2487 12.8735 12.5611 12.5611L12.1368 12.1368ZM12.1368 11.854C12.2149 11.9321 12.2149 12.0587 12.1368 12.1368L12.5611 12.5611C12.8735 12.2487 12.8735 11.7422 12.5611 11.4297L12.1368 11.854ZM11.3079 11.0251L12.1368 11.854L12.5611 11.4297L11.7322 10.6008L11.3079 11.0251ZM40.3079 11.0251C40.386 11.1032 40.386 11.2298 40.3079 11.3079L40.7322 11.7322C41.0446 11.4198 41.0446 10.9132 40.7322 10.6008L40.3079 11.0251ZM40.0251 11.0251C40.1032 10.947 40.2298 10.947 40.3079 11.0251L40.7322 10.6008C40.4198 10.2884 39.9132 10.2884 39.6008 10.6008L40.0251 11.0251ZM39.1962 11.854L40.0251 11.0251L39.6008 10.6008L38.7719 11.4297L39.1962 11.854ZM39.1962 12.1368C39.1181 12.0587 39.1181 11.9321 39.1962 11.854L38.7719 11.4297C38.4595 11.7422 38.4595 12.2487 38.7719 12.5611L39.1962 12.1368ZM39.479 12.1368C39.4009 12.2149 39.2743 12.2149 39.1962 12.1368L38.7719 12.5611C39.0843 12.8735 39.5909 12.8735 39.9033 12.5611L39.479 12.1368ZM40.3079 11.3079L39.479 12.1368L39.9033 12.5611L40.7322 11.7322L40.3079 11.3079ZM12.1368 39.1962C12.2149 39.2743 12.2149 39.4009 12.1368 39.479L12.5611 39.9033C12.8735 39.5909 12.8735 39.0843 12.5611 38.7719L12.1368 39.1962ZM11.854 39.1962C11.9321 39.1181 12.0587 39.1181 12.1368 39.1962L12.5611 38.7719C12.2487 38.4595 11.7422 38.4595 11.4297 38.7719L11.854 39.1962ZM11.0251 40.0251L11.854 39.1962L11.4297 38.7719L10.6008 39.6008L11.0251 40.0251ZM11.0251 40.3079C10.947 40.2298 10.947 40.1032 11.0251 40.0251L10.6008 39.6008C10.2884 39.9132 10.2884 40.4198 10.6008 40.7322L11.0251 40.3079ZM11.3079 40.3079C11.2298 40.386 11.1032 40.386 11.0251 40.3079L10.6008 40.7322C10.9132 41.0446 11.4198 41.0446 11.7322 40.7322L11.3079 40.3079ZM12.1368 39.479L11.3079 40.3079L11.7322 40.7322L12.5611 39.9033L12.1368 39.479ZM39.1962 39.1962C39.2743 39.1181 39.4009 39.1181 39.479 39.1962L39.9033 38.7719C39.5909 38.4595 39.0843 38.4595 38.7719 38.7719L39.1962 39.1962ZM39.1962 39.479C39.1181 39.4009 39.1181 39.2743 39.1962 39.1962L38.7719 38.7719C38.4595 39.0843 38.4595 39.5909 38.7719 39.9033L39.1962 39.479ZM40.0251 40.3079L39.1962 39.479L38.7719 39.9033L39.6008 40.7322L40.0251 40.3079ZM40.3079 40.3079C40.2298 40.386 40.1032 40.386 40.0251 40.3079L39.6008 40.7322C39.9132 41.0446 40.4198 41.0446 40.7322 40.7322L40.3079 40.3079ZM40.3079 40.0251C40.386 40.1032 40.386 40.2298 40.3079 40.3079L40.7322 40.7322C41.0446 40.4198 41.0446 39.9132 40.7322 39.6008L40.3079 40.0251ZM39.479 39.1962L40.3079 40.0251L40.7322 39.6008L39.9033 38.7719L39.479 39.1962Z" fill="white" mask="url(#path-2-outside-1_1_3552)"/>
</svg>
