<svg width="74" height="74" viewBox="0 0 74 74" fill="none" xmlns="http://www.w3.org/2000/svg">
<path d="M38.7478 72H18.064C12.6568 72 8.35551 69.368 4.49523 65.6895C-3.41433 58.154 9.56995 52.134 14.5222 49.187C22.8737 44.2537 32.817 42.7638 42.2476 45.0325M53.657 52.323C49.8772 52.323 48.2568 55.053 47.8368 56.733C47.4169 58.4095 47.4169 64.496 47.6688 67.016C48.5088 70.1625 50.6087 71.461 52.6666 71.881C54.5565 72.0525 62.536 71.986 64.8459 71.986C68.2057 72.0525 70.7256 70.7925 71.7755 67.016C71.9855 65.756 72.1955 58.826 71.6705 56.7295C70.5576 53.3695 68.0272 52.323 65.9273 52.323M53.657 52.323H65.9273M53.657 52.323C53.657 52.323 53.65 49.432 53.657 47.913C53.657 46.52 53.538 45.183 54.203 43.958C56.6878 39.0125 63.8275 39.513 65.5914 44.553C65.8958 45.3825 65.9168 46.695 65.9063 47.913C65.8958 49.46 65.9273 52.323 65.9273 52.323M52.7471 17.75C52.7471 21.9272 51.0878 25.9332 48.1342 28.8869C45.1807 31.8406 41.1749 33.5 36.9979 33.5C32.821 33.5 28.8152 31.8406 25.8616 28.8869C22.9081 25.9332 21.2488 21.9272 21.2488 17.75C21.2488 13.5728 22.9081 9.56677 25.8616 6.61307C28.8152 3.65937 32.821 2 36.9979 2C41.1749 2 45.1807 3.65937 48.1342 6.61307C51.0878 9.56677 52.7471 13.5728 52.7471 17.75Z" stroke="white" stroke-width="4" stroke-linecap="round" stroke-linejoin="round"/>
</svg>
