<svg width="140" height="39" viewBox="0 0 140 39" fill="none" xmlns="http://www.w3.org/2000/svg">
<path fill-rule="evenodd" clip-rule="evenodd" d="M24.6118 0.5C24.7056 0.5 24.8776 0.688398 25.0026 0.933315C25.1902 1.25359 25.2683 1.29127 25.4247 1.12171C25.5341 0.989834 25.6748 0.876796 25.7373 0.876796C25.7998 0.876796 25.8623 1.00867 25.8623 1.15939C25.8623 1.31011 26.003 1.66807 26.175 1.9695C26.3626 2.2521 26.5032 2.61006 26.4876 2.76077C26.4876 2.91149 26.5501 3.15641 26.6127 3.28829C26.6752 3.43901 27.0972 3.58972 27.5818 3.6274C28.0508 3.68392 28.6135 3.6274 28.8323 3.51436C29.0512 3.42017 29.3638 3.30713 29.5358 3.26945C29.7077 3.25061 29.9422 3.15641 30.036 3.08105C30.1454 3.00569 30.2704 3.02453 30.3173 3.13757C30.3642 3.25061 30.3642 3.40133 30.3173 3.51436C30.2704 3.6274 30.3017 3.70276 30.3955 3.70276C30.4893 3.70276 30.5362 3.94768 30.5049 4.26796C30.4893 4.70127 30.5362 4.83315 30.7394 4.83315C30.9426 4.83315 31.0051 4.96503 30.9739 5.26646C30.953 5.54278 30.8488 5.66838 30.6612 5.64326C30.5205 5.60558 30.3955 5.68094 30.3955 5.77514C30.3955 5.86934 30.4736 5.98238 30.5831 6.02006C30.6769 6.0389 30.7237 6.17077 30.6612 6.30265C30.5987 6.41569 30.4268 6.47221 30.2704 6.41569C30.0672 6.32149 30.036 6.37801 30.1141 6.60409C30.1923 6.77365 30.2392 7.0374 30.2392 7.18812C30.2392 7.33884 30.4111 7.5084 30.63 7.56492C30.8488 7.62144 31.0207 7.71564 31.0207 7.80983C31.0207 7.88519 30.9426 8.07359 30.8332 8.22431C30.6612 8.45039 30.6612 8.45039 30.9113 8.22431C31.0676 8.07359 31.1927 7.82867 31.1771 7.71564C31.1771 7.58376 31.3177 7.47072 31.4897 7.47072C31.6616 7.47072 31.8023 7.37652 31.8023 7.28232C31.8023 7.18812 31.7242 7.07508 31.6304 7.05624C31.521 7.01856 31.4272 6.81133 31.3959 6.58525C31.349 6.26497 31.4272 6.13309 31.6773 6.05773C31.8805 6.02006 32.0524 6.05773 32.0681 6.15193C32.0993 6.26497 32.1775 6.30265 32.2713 6.24613C32.3651 6.18961 32.4276 6.26497 32.4276 6.39685C32.4276 6.50989 32.5683 6.34033 32.7402 6.02006C32.9278 5.64326 33.1779 5.39834 33.3655 5.39834C33.5374 5.39834 33.8657 5.51138 34.1002 5.64326C34.4284 5.81282 34.5222 5.81282 34.5691 5.64326C34.6004 5.4737 34.7723 5.43602 35.1162 5.53022C35.507 5.62442 35.6008 5.60558 35.507 5.43602C35.4445 5.30414 35.4601 5.17227 35.5539 5.11575C35.6477 5.05923 36.0228 5.2853 36.4136 5.58674C36.8044 5.88818 37.117 6.28381 37.117 6.43453C37.117 6.64177 37.0233 6.67945 36.7575 6.58525C36.4761 6.49105 36.5074 6.58525 36.9607 7.07508C37.414 7.6026 37.4453 7.67796 37.1483 7.58376C36.8826 7.48956 36.7731 7.56492 36.6637 7.88519C36.5856 8.13011 36.5543 8.50691 36.5856 8.73298C36.6168 8.9779 36.5856 9.1663 36.4918 9.1663C36.398 9.1663 36.3824 9.31702 36.4449 9.48658C36.523 9.73149 36.5074 9.78801 36.3667 9.67497C36.2573 9.59961 36.2104 9.63729 36.2573 9.76917C36.3042 9.90105 36.5856 10.0329 36.8826 10.0518C37.1796 10.0894 37.4297 10.0518 37.4297 9.95757C37.4297 9.88221 37.711 9.80685 38.0549 9.76917C38.5239 9.75033 38.6802 9.80685 38.6802 10.0141C38.6802 10.1648 38.9303 10.4286 39.2273 10.5793C39.5868 10.7677 39.7588 10.9749 39.7275 11.1822C39.7119 11.3517 39.5243 11.559 39.3055 11.6155C39.0449 11.6908 38.9772 11.7725 39.1022 11.8604C39.2117 11.9357 39.4618 11.9357 39.6493 11.8604C39.9463 11.7662 39.9932 11.785 39.8838 12.0488C39.8213 12.2372 39.8369 12.3691 39.9307 12.3691C40.0245 12.3691 40.0558 12.5009 40.0089 12.6517C39.962 12.8024 40.0558 12.9908 40.1965 13.0473C40.3528 13.1227 40.6185 13.0661 40.7904 12.9343C41.0562 12.7459 41.1187 12.7647 41.2125 13.0096C41.2907 13.1792 41.5095 13.3111 41.7283 13.3111C41.9472 13.3111 42.1191 13.4052 42.1191 13.4994C42.1191 13.5936 42.2598 13.7255 42.4318 13.782C42.6662 13.8574 42.7288 14.0081 42.6819 14.3849C42.6506 14.6864 42.5099 14.969 42.338 15.0443C42.0566 15.1573 42.0566 15.1762 42.3536 15.195C42.5255 15.195 42.8069 15.3457 42.9945 15.5341C43.1664 15.7037 43.354 16.1747 43.4165 16.5515C43.4947 17.0602 43.4634 17.3428 43.3071 17.55C43.1821 17.7007 42.932 17.8326 42.76 17.8326C42.5724 17.8326 42.4318 17.7384 42.4318 17.6442C42.4318 17.55 42.2911 17.4181 42.1191 17.3616C41.9472 17.3051 41.8065 17.3616 41.8065 17.4558C41.8065 17.55 41.744 17.6442 41.6502 17.6442C41.5564 17.6442 41.5251 17.4746 41.572 17.2674C41.6189 17.0602 41.5877 16.8529 41.4939 16.7964C41.4001 16.7399 41.3219 16.8152 41.3063 16.9283C41.3063 17.0602 41.275 17.2674 41.2594 17.3616C41.2366 17.4302 41.2222 17.5586 41.21 17.667C41.2054 17.7075 41.2011 17.7453 41.1969 17.7761C41.1969 17.908 40.9937 18.021 40.7436 18.021C40.4935 18.021 40.2433 17.8703 40.1183 17.6442C40.0245 17.437 39.8682 17.2674 39.7744 17.2674C39.6806 17.2674 39.5556 17.4746 39.4618 17.7384C39.368 18.0022 39.2429 18.2094 39.1491 18.2094C39.0553 18.2094 38.9616 18.1152 38.9147 18.021C38.8678 17.9268 38.7271 17.8703 38.602 17.9268C38.477 17.9833 38.3676 18.1529 38.3676 18.3036C38.3676 18.4543 38.2269 18.5862 38.0549 18.5862C37.883 18.5862 37.6485 18.605 37.5391 18.6427C37.4453 18.6804 37.2577 18.605 37.1483 18.5108C37.0076 18.3601 36.9451 18.3601 36.9607 18.5297C36.9607 18.6615 37.0701 18.9065 37.1952 19.0572C37.3203 19.2079 37.4297 19.434 37.4297 19.5282C37.4297 19.6224 37.5547 19.6601 37.6954 19.6035C37.8517 19.547 38.4301 19.4528 38.9928 19.4151C39.2491 19.3894 39.5118 19.3637 39.7383 19.3415C40.009 19.315 40.2279 19.2935 40.3215 19.2833C40.4935 19.2644 40.7592 19.0572 40.8999 18.8123C41.0562 18.5862 41.3063 18.3601 41.447 18.3036C41.6033 18.2471 41.9159 18.2848 42.1504 18.3978C42.4787 18.5297 42.5724 18.6804 42.5099 18.963C42.4474 19.2644 42.5099 19.3398 42.8225 19.3398C43.0414 19.3398 43.2133 19.434 43.2133 19.5282C43.2133 19.6224 43.354 19.7543 43.526 19.8108C43.7344 19.8736 43.8386 20.062 43.8386 20.376C43.8386 20.6397 43.7135 20.9223 43.5572 21.0165C43.3696 21.1296 43.3384 21.2049 43.4791 21.2991C43.5885 21.3556 43.651 21.544 43.6041 21.6948C43.5572 21.8455 43.5885 21.9773 43.651 21.9773C43.7135 21.9773 43.8542 21.8643 43.9636 21.7324C44.1043 21.5629 44.1981 21.5629 44.3388 21.7324C44.4482 21.8455 44.6358 21.9208 44.7296 21.8643C44.8703 21.8266 44.9328 21.9773 44.9328 22.3541C44.9328 22.6744 45.0266 23.0889 45.1204 23.2961C45.2767 23.5976 45.2767 23.7483 45.1204 24.0497C45.011 24.2758 44.9953 24.4265 45.0891 24.4265C45.1829 24.4265 45.2142 24.5019 45.1673 24.6149C45.1204 24.728 45.1516 24.841 45.2454 24.8975C45.3392 24.954 45.4017 24.9164 45.4017 24.8033C45.4017 24.6903 45.4955 24.6149 45.5893 24.6149C45.6987 24.6149 45.9176 24.4642 46.0739 24.2758C46.2146 24.1062 46.3709 24.012 46.4178 24.0874C46.4647 24.1816 46.4334 24.4077 46.3396 24.6149C46.2458 24.8222 46.0739 24.9917 45.9489 24.9917C45.8238 24.9917 45.7456 25.0482 45.7769 25.1236C45.8082 25.2178 46.0114 25.312 46.2458 25.3685C46.4647 25.425 46.7148 25.3873 46.7929 25.2743C46.8867 25.1613 46.9493 25.2931 46.9962 25.6134C47.0118 25.9149 46.9805 26.1975 46.8867 26.2351C46.793 26.2728 46.3865 26.254 45.9801 26.1786C45.5737 26.0844 45.1985 26.0656 45.1673 26.1221C45.1204 26.1786 45.2923 26.367 45.5581 26.5366C45.8863 26.7815 45.9957 26.9511 45.902 27.1771C45.8394 27.3467 45.6987 27.4032 45.5581 27.3467C45.3861 27.2525 45.3548 27.2902 45.433 27.5162C45.5268 27.7235 45.4799 27.8177 45.3236 27.8177C45.1985 27.8177 45.0579 27.9307 45.0422 28.0438C44.9953 28.2133 44.7921 28.1191 44.3701 27.78C44.0418 27.4974 43.7135 27.309 43.6354 27.3467C43.5729 27.4032 43.526 27.5162 43.526 27.6293C43.526 27.7423 43.6354 27.8177 43.7604 27.8177C43.8855 27.8177 44.0574 27.9872 44.1512 28.1945C44.245 28.4017 44.3075 28.609 44.3075 28.6655C44.3075 28.722 44.1825 28.7973 44.0262 28.835C43.8073 28.8915 43.823 28.9104 44.0731 28.9292C44.245 28.9481 44.6671 29.0799 45.011 29.2118C45.3549 29.3625 45.6362 29.5886 45.6362 29.7393C45.6362 29.8712 45.8394 30.2103 46.1052 30.4929C46.4178 30.8509 46.5429 31.1146 46.4491 31.303C46.3865 31.4538 46.2146 31.548 46.0583 31.4914C45.9176 31.4349 45.6675 31.5291 45.5112 31.6798C45.2923 31.9059 45.2142 31.9248 45.0422 31.7175C44.9484 31.5668 44.6671 31.4914 44.417 31.5291C44.1825 31.5668 44.0262 31.661 44.0731 31.774C44.12 31.8871 44.12 32.0943 44.0731 32.245C44.0262 32.3957 43.8855 32.5276 43.7604 32.5276C43.6354 32.5276 43.526 32.4523 43.526 32.3392C43.526 32.2262 43.4165 32.2073 43.2759 32.2827C43.1352 32.3769 42.9789 32.3392 42.932 32.2262C42.8538 32.0755 42.6975 32.0755 42.463 32.1697C42.2598 32.2827 42.1504 32.4523 42.1973 32.6218C42.2442 32.7725 42.1816 33.0363 42.0566 33.187C41.9315 33.3377 41.7127 33.4696 41.5877 33.4696C41.447 33.4696 41.15 33.3189 40.8999 33.1493C40.6654 32.9609 40.4466 32.7537 40.3997 32.6595C40.3528 32.5653 40.1027 32.5465 39.8526 32.603C39.5712 32.6783 39.2117 32.603 38.9459 32.4334C38.7115 32.2827 38.5239 32.2262 38.5239 32.3392C38.5239 32.4523 38.4145 32.5276 38.2894 32.5276C38.1644 32.5276 38.008 32.6783 37.9455 32.8479C37.8517 33.1682 37.8361 33.1493 37.6329 32.8102C37.5291 32.6316 37.4745 32.5376 37.4125 32.5324C37.3438 32.5266 37.2658 32.6299 37.1014 32.8479L37.1014 32.8479C36.9451 33.0928 36.7419 33.2812 36.6481 33.2812C36.5543 33.2812 36.4605 33.1493 36.4136 32.9986C36.3667 32.8479 36.4293 32.6595 36.523 32.5841C36.6585 32.5088 36.596 32.4146 36.3355 32.3015C36.0697 32.1885 35.9134 32.2074 35.8509 32.3769C35.7884 32.5088 35.6633 32.5653 35.5695 32.4711C35.4757 32.3957 35.3976 32.2073 35.3976 32.0566C35.3976 31.9059 35.335 31.774 35.2413 31.774C35.1475 31.774 35.0537 31.9436 35.0068 32.1508C34.9599 32.3581 34.8661 32.5276 34.7723 32.5276C34.6785 32.5276 34.616 32.3769 34.616 32.2073C34.6316 31.9248 34.5847 31.9059 34.4284 32.1132C34.319 32.2262 34.1002 32.3015 33.9438 32.245C33.8032 32.1885 33.6781 31.9813 33.6781 31.774C33.6781 31.5668 33.7406 31.3972 33.8344 31.3972C33.9282 31.3972 33.9907 31.2465 33.9907 31.077C33.9751 30.7755 33.9438 30.7944 33.6781 31.1712C33.5062 31.3972 33.3342 31.5856 33.2873 31.5856C33.2404 31.5856 33.2092 31.4726 33.2092 31.3407C33.2092 31.2277 33.0372 31.0016 32.8184 30.8697C32.4901 30.6813 32.4276 30.6813 32.4276 30.9262C32.4276 31.077 32.3651 31.2088 32.2713 31.2088C32.1775 31.2088 32.115 31.0958 32.0993 30.9639C32.0993 30.7944 32.0837 30.7944 32.0212 30.9828C31.9899 31.0958 31.8336 31.2088 31.6773 31.2088C31.4584 31.19 31.4428 31.2465 31.5991 31.4914C31.7085 31.6422 31.7867 31.9248 31.7711 32.0943C31.7398 32.3015 31.5679 32.4334 31.2552 32.4523C30.9113 32.4899 30.7237 32.3769 30.5518 32.0378C30.3799 31.7175 30.2704 31.6422 30.161 31.7929C30.0568 31.9436 30.0672 32.0378 30.1923 32.0755C30.3017 32.1132 30.3955 32.2639 30.3955 32.3957C30.3955 32.5088 30.1766 32.716 29.8953 32.8479C29.6139 32.9798 29.3169 33.0175 29.2231 32.9421C29.1293 32.8856 28.9105 32.8479 28.7073 32.8667C28.5197 32.8856 28.3634 32.8291 28.3634 32.716C28.3634 32.603 28.254 32.5276 28.1289 32.5276C28.0039 32.5276 27.8944 32.603 27.8944 32.716C27.8944 32.8416 27.8007 32.8416 27.6131 32.716C27.4099 32.5841 27.2536 32.6407 26.9566 32.9986C26.7377 33.2435 26.5189 33.4131 26.4407 33.3754C26.3782 33.3189 26.3938 33.1117 26.4876 32.9044C26.5918 32.6532 26.5918 32.5276 26.4876 32.5276C26.3938 32.5276 26.3313 32.3581 26.3313 32.1508C26.3313 31.9436 26.3938 31.7364 26.4876 31.6798C26.5814 31.6233 26.6127 31.5103 26.5658 31.3972C26.5189 31.2842 26.3469 31.3219 26.1281 31.4914C25.9405 31.6422 25.7373 31.774 25.6591 31.774C25.5966 31.774 25.5497 31.6045 25.5497 31.3972C25.5497 31.19 25.4872 31.0204 25.409 31.0204C25.3309 31.0204 25.1433 31.1523 25.0182 31.303C24.8776 31.4538 24.7213 31.8117 24.6744 32.1132C24.6118 32.3958 24.6118 33.1305 24.6587 33.7522C24.7037 34.349 24.8351 35.1193 25.1497 36.0798C25.2214 36.076 25.312 36.0739 25.4026 36.0739C25.5832 36.0739 25.7337 36.0795 25.7337 36.0878C25.7337 36.0962 25.8241 36.1186 25.9445 36.1382C26.0574 36.1577 26.1929 36.1717 26.238 36.1717C26.2907 36.1717 26.3585 36.1913 26.3886 36.2137C26.4262 36.2388 26.6069 36.2612 26.8628 36.2724C27.0886 36.2807 27.2993 36.2947 27.3295 36.3003C27.3671 36.3059 27.3746 36.3255 27.352 36.3395C27.3294 36.3534 27.3671 36.3674 27.4273 36.3674C27.4875 36.3674 27.5477 36.3534 27.5553 36.3367C27.5703 36.318 27.6907 36.3227 27.9165 36.3506C28.1047 36.3758 28.3155 36.3954 28.3832 36.3954C28.4585 36.3954 28.5262 36.3842 28.5338 36.3702C28.5488 36.3562 28.7596 36.3562 29.0456 36.3702C29.3166 36.3842 29.5951 36.4093 29.6628 36.4233C29.7381 36.4401 29.9112 36.4513 30.0392 36.4513C30.1746 36.4513 30.4456 36.4764 30.6413 36.5072C30.8445 36.5379 31.0252 36.5799 31.0553 36.6022C31.0929 36.6218 31.266 36.6665 31.4542 36.7029C31.6725 36.742 31.8908 36.7616 32.0714 36.756C32.2295 36.7504 32.3574 36.7504 32.3574 36.7588C32.3574 36.7672 32.2897 36.8007 32.2069 36.8371C32.1241 36.8706 31.9134 36.907 31.7478 36.9209C31.5746 36.9321 31.4015 36.9573 31.3488 36.9769C31.2886 37.0048 31.3037 37.0272 31.4166 37.0663C31.4994 37.0971 31.6725 37.1194 31.7929 37.1194H32.2445C32.365 37.1194 32.6736 37.1194 32.922 37.1222C33.1704 37.1222 33.4187 37.1334 33.4714 37.1446C33.5241 37.1558 33.7123 37.1418 33.8854 37.111C34.1188 37.0719 34.2392 37.0663 34.3521 37.0859C34.4349 37.1027 34.6532 37.1138 34.8413 37.1082C35.0295 37.1054 35.2478 37.0943 35.3306 37.0803C35.4134 37.0691 35.5865 37.0663 35.7069 37.0747C35.8274 37.0831 36.0532 37.0999 36.1962 37.111C36.3543 37.125 36.437 37.1222 36.4145 37.1054C36.3844 37.0915 36.4596 37.0831 36.5801 37.0887C36.7005 37.0915 36.7983 37.1027 36.7983 37.1166C36.7983 37.1278 37.0618 37.1334 37.3854 37.1306C37.7016 37.1278 38.0252 37.125 38.093 37.125C38.1682 37.1222 38.2134 37.1138 38.1984 37.1027C38.1833 37.0887 38.3414 37.0915 38.5596 37.1027C38.7704 37.1166 39.1091 37.1642 39.3199 37.2061C39.636 37.2704 39.6962 37.2983 39.7113 37.371C39.7338 37.4465 39.7113 37.4577 39.5457 37.4577C39.4403 37.4577 39.2672 37.4745 39.1467 37.4968C39.0338 37.5164 38.7704 37.5444 38.5672 37.5583C38.3564 37.5695 38.1231 37.5807 38.0403 37.5835L37.878 37.5887C37.6583 37.5957 37.2571 37.6084 36.836 37.6226C36.2564 37.6394 35.6317 37.6618 35.4435 37.6702C35.2553 37.6813 34.9994 37.6869 34.879 37.6869H33.8252H33.8243C33.3729 37.6869 32.8918 37.6869 32.7714 37.6897C32.651 37.6897 31.7854 37.6758 30.8521 37.659C29.9187 37.6394 29.0531 37.6142 28.9327 37.6003C28.8123 37.5891 28.4735 37.5751 28.18 37.5751C27.8864 37.5723 27.3144 37.5611 26.9004 37.5444C26.4864 37.5304 26.095 37.5276 26.0348 37.5388C25.9746 37.5527 25.7036 37.5583 25.4327 37.5555C25.1015 37.5499 24.8907 37.5611 24.7929 37.5863C24.7101 37.6087 24.552 37.6254 24.4466 37.6254C24.3413 37.6254 24.2359 37.631 24.2208 37.6394C24.2058 37.6478 23.852 37.659 23.438 37.6646C23.024 37.673 22.5122 37.6841 22.309 37.6925C22.0982 37.7009 21.5262 37.7177 21.0294 37.7289C20.5326 37.7401 19.8778 37.7484 19.5842 37.7512C19.2831 37.7512 19.0348 37.7596 19.0348 37.7708C19.0348 37.7848 19.1326 37.8267 19.2455 37.8686C19.3659 37.9134 19.6068 37.9609 19.795 37.9749C19.9756 37.9917 20.4047 38.0056 20.7434 38.0028C21.0746 38.0028 21.3455 38.0084 21.3305 38.0168C21.3154 38.0252 21.4885 38.028 21.7143 38.0224C22.023 38.0196 22.1283 38.028 22.1584 38.0588C22.1885 38.0895 22.2337 38.0951 22.3466 38.0727C22.4294 38.0588 22.7154 38.0392 22.9864 38.0308C23.2875 38.0224 23.4757 38.028 23.4757 38.0448C23.4757 38.0588 23.5283 38.0727 23.5886 38.0727C23.6488 38.0727 23.709 38.0587 23.7165 38.042C23.7316 38.0252 23.9348 38.0112 24.1757 38.0084C24.4165 38.0056 24.6423 38.0168 24.68 38.0308C24.7176 38.0476 24.7025 38.0783 24.6574 38.1035C24.6047 38.1286 24.3262 38.1622 23.9649 38.1846C23.6337 38.2041 23.3402 38.2377 23.3025 38.26C23.2724 38.2796 23.1746 38.2964 23.0767 38.2964C22.9864 38.2964 22.7756 38.3159 22.6101 38.3355C22.4445 38.3579 22.1509 38.383 21.9477 38.3914C21.752 38.3998 21.5939 38.4222 21.5939 38.4362C21.5939 38.4501 21.5488 38.4557 21.4961 38.4473C21.4509 38.4362 21.1348 38.4417 20.8036 38.4613C20.4724 38.4781 19.8176 38.4949 19.3509 38.4977C18.8767 38.5033 18.4778 38.4977 18.4627 38.4837C18.4477 38.4725 18.2218 38.4669 17.9584 38.4697C17.7025 38.4725 17.3412 38.4641 17.153 38.4501L17.1359 38.4491L17.1357 38.4491L17.1353 38.4491L17.1348 38.449C16.95 38.4381 16.7281 38.4249 16.6261 38.4222C16.5208 38.4194 16.1519 38.3942 15.7982 38.3663C15.4444 38.3411 14.9777 38.3215 14.7595 38.3271C14.5487 38.3327 14.3605 38.3271 14.3455 38.3131C14.3379 38.2992 14.1347 38.2824 13.8863 38.2712C13.6455 38.2628 13.4121 38.2377 13.3594 38.2181C13.2992 38.1901 13.2992 38.1818 13.367 38.1846C13.4197 38.1846 13.4648 38.165 13.4648 38.1426C13.4648 38.1203 13.4046 38.1007 13.3293 38.1007C13.2616 38.1007 13.1261 38.0755 13.0283 38.0448C12.8852 37.9972 12.8702 37.9805 12.953 37.9106C12.9981 37.8686 13.0132 37.8127 12.9906 37.7848C12.9455 37.7456 12.8627 37.7373 12.5164 37.7428C12.2831 37.7484 12.0799 37.7428 12.0648 37.7289C12.0498 37.7177 11.9218 37.7149 11.7863 37.7233C11.6508 37.7345 11.3799 37.7205 11.1691 37.6925C10.9207 37.6618 10.4616 37.6422 9.81425 37.6366C9.27231 37.631 8.63252 37.6394 8.38413 37.6562C8.13575 37.6702 7.62391 37.6897 7.25509 37.6981C6.83358 37.7065 6.54003 37.7009 6.47982 37.6841C6.41208 37.6618 6.41208 37.6282 6.46476 37.5555C6.50993 37.5024 6.54003 37.4549 6.53251 37.4493C6.52592 37.4469 6.57115 37.4059 6.62791 37.3546L6.62795 37.3545L6.65294 37.3319C6.74326 37.2536 6.87122 37.2061 7.05939 37.1725C7.20993 37.1446 7.45832 37.1222 7.60886 37.1222C7.76693 37.1222 7.90994 37.1082 7.93252 37.0943C7.9551 37.0803 8.06048 37.0747 8.17338 37.0831C8.29381 37.0915 8.51962 37.0775 8.68521 37.0523C8.91102 37.016 9.0465 37.0104 9.2121 37.03C9.33253 37.0467 9.6035 37.0523 9.81425 37.0467C10.0175 37.0411 10.2659 37.0188 10.3562 36.9964C10.454 36.9741 10.6046 36.9545 10.6949 36.9573C10.7928 36.9601 10.8831 36.9573 10.9057 36.9545C10.9282 36.9489 11.1315 36.9433 11.3573 36.9405C11.5831 36.9377 11.8014 36.9293 11.8465 36.9209C11.8917 36.9126 12.1401 36.907 12.411 36.9098C12.7648 36.9126 12.9229 36.9014 12.9906 36.8706C13.0734 36.8343 13.096 36.8343 13.1637 36.8706C13.224 36.907 13.239 36.907 13.239 36.8622C13.239 36.8231 13.3369 36.8119 13.781 36.7979C14.082 36.7868 14.4207 36.784 14.5261 36.7895C14.639 36.7951 14.7143 36.7923 14.6992 36.7784C14.6842 36.7672 14.7143 36.7532 14.7595 36.7476C14.8121 36.7392 15.0906 36.7252 15.3842 36.7141C15.6777 36.7001 16.0842 36.6917 16.295 36.6917C16.5132 36.6889 16.6487 36.6805 16.596 36.6721C16.5509 36.6609 16.6337 36.647 16.7767 36.6358C16.9498 36.6246 17.0552 36.6302 17.0928 36.6554C17.138 36.6805 17.153 36.6805 17.153 36.6526C17.153 36.6302 17.2333 36.6227 17.3939 36.6302C17.5294 36.6358 17.7627 36.6554 17.9057 36.6721C18.0487 36.6889 18.2218 36.7029 18.2821 36.7001C18.3573 36.7001 18.3423 36.6917 18.0939 36.6554L18.2444 36.6386C18.3272 36.6274 18.5606 36.6218 18.7713 36.619C18.9745 36.619 19.2154 36.619 19.2982 36.6218C19.381 36.6218 19.5767 36.6414 19.7272 36.6637C19.9004 36.6861 20.0133 36.6917 20.0133 36.6749C20.0133 36.6609 20.0584 36.647 20.1036 36.6498C20.1563 36.6526 20.2767 36.6442 20.367 36.6358C20.4649 36.6274 20.5401 36.5994 20.5401 36.5771C20.5401 36.5547 20.4649 36.5212 20.367 36.5044C20.2767 36.4876 20.1186 36.4792 20.0133 36.4876C19.9079 36.496 19.7498 36.4988 19.652 36.4904C19.5616 36.4848 19.4864 36.4597 19.4864 36.4373C19.4864 36.4149 19.5165 36.3954 19.5541 36.3954C19.5918 36.3954 19.6821 36.373 19.7498 36.3478C19.8627 36.3003 19.8627 36.2947 19.7197 36.2472C19.6294 36.222 19.4563 36.1913 19.3283 36.1773C19.2003 36.1661 19.0573 36.141 19.0047 36.1186C18.9444 36.0878 18.9444 36.0767 19.0122 36.0683C19.0649 36.0627 19.0874 36.0459 19.0498 36.0263C19.0122 36.0012 19.0573 35.9984 19.238 36.0124C19.3885 36.0236 19.5014 36.0208 19.524 36.004C19.5466 35.99 19.7272 35.976 19.938 35.976C20.1412 35.976 20.3143 35.99 20.3143 36.004C20.3143 36.018 20.3444 36.0319 20.3896 36.0319C20.4348 36.0319 20.4423 36.0124 20.4047 35.9872C20.367 35.9509 20.3896 35.9425 20.5401 35.9481C20.6455 35.9509 20.7885 35.9537 20.8563 35.9509C20.9692 35.9481 20.9767 35.9369 20.9165 35.8922C20.8713 35.8614 20.8262 35.7496 20.8036 35.6406C20.7735 35.4784 20.7885 35.4449 20.8789 35.4449C20.9391 35.4449 20.9918 35.4309 20.9918 35.4169C20.9918 35.4029 21.067 35.3862 21.1574 35.3806C21.1674 35.3802 21.1768 35.3798 21.1857 35.3794L21.1885 35.3536C21.2295 35.0451 21.2771 34.5668 21.3227 34.1094C21.3467 33.8685 21.3702 33.6334 21.3917 33.4319C21.4855 32.3957 21.4699 32.3392 21.126 32.3392C20.9384 32.3392 20.6102 32.132 20.3913 31.8682C20.1725 31.6045 19.9536 31.3972 19.8755 31.3972C19.813 31.3972 19.7973 31.4726 19.8442 31.5856C19.8911 31.6987 19.7817 31.9248 19.6097 32.1132C19.4534 32.2827 19.3127 32.5465 19.2971 32.6783C19.2971 32.7914 19.2346 32.9044 19.1408 32.9044C19.047 32.9044 18.9532 32.8291 18.9063 32.716C18.8594 32.603 18.7031 32.5653 18.5468 32.6218C18.4061 32.6783 18.156 32.5653 17.9997 32.3957C17.8277 32.1697 17.7183 32.1508 17.734 32.3015C17.734 32.4146 17.6245 32.5276 17.4995 32.5276C17.3744 32.5276 17.265 32.3957 17.265 32.245C17.265 32.0943 17.3432 31.9436 17.4526 31.9248C17.5464 31.8871 17.5933 31.7552 17.5307 31.6422C17.4682 31.4914 17.2806 31.4538 17.0618 31.5291C16.7961 31.6233 16.7335 31.5856 16.8117 31.3784C16.8742 31.2277 16.8273 31.1146 16.7023 31.1146C16.5772 31.1146 16.4834 31.2277 16.4834 31.3596C16.4834 31.4726 16.5929 31.6233 16.7179 31.6798C16.843 31.7364 16.9524 31.8494 16.9524 31.9624C16.9524 32.0755 16.7961 32.2073 16.5929 32.2639C16.4053 32.3204 16.0458 32.3581 15.78 32.3392C15.5143 32.3204 15.2329 32.245 15.1548 32.1885C15.061 32.132 14.8421 32.0566 14.6389 32.019C14.4513 31.9813 14.2169 32.0943 14.1387 32.245C14.0449 32.3957 13.9042 32.4899 13.8261 32.4334C13.7323 32.3769 13.6698 32.2073 13.6698 32.0566C13.6698 31.9059 13.7948 31.774 13.9355 31.774C14.17 31.774 14.1856 31.7364 13.9824 31.6045C13.7792 31.4726 13.7792 31.4349 14.0137 31.3219C14.17 31.2654 14.295 31.0958 14.2794 30.9828C14.2794 30.7944 14.2638 30.7944 14.2012 30.9828C14.1543 31.1523 14.0606 31.1523 13.7792 30.9828C13.5916 30.8509 13.3571 30.7755 13.279 30.8132C13.1852 30.8509 12.9351 30.9074 12.685 30.9451C12.4505 30.9828 12.0285 31.2088 11.7627 31.4538C11.4813 31.6798 11.1687 31.9813 11.0593 32.1132C10.9499 32.2262 10.8561 32.4146 10.8561 32.5276C10.8561 32.6407 10.7623 32.6783 10.6529 32.6407C10.5591 32.603 10.4809 32.3957 10.4966 32.1697C10.5278 31.9624 10.4653 31.5668 10.3871 31.303C10.2621 30.9451 10.1839 30.8697 9.99636 31.0204C9.84004 31.146 9.74625 31.146 9.71499 31.0204C9.69936 30.9074 9.52741 30.9828 9.3242 31.2088C9.13662 31.4161 8.90215 31.5856 8.82399 31.5856C8.7302 31.5856 8.66768 31.4538 8.66768 31.303C8.66768 31.077 8.57389 31.0581 8.15184 31.19C7.8861 31.2654 7.49531 31.2654 7.2921 31.19C6.9951 31.0393 6.96384 31.077 7.02637 31.3972C7.07847 31.6484 7.01074 31.8054 6.82316 31.8682C6.68247 31.9248 6.54179 31.9436 6.51053 31.9248C6.4949 31.8871 6.448 31.6987 6.41674 31.4914C6.38547 31.2842 6.30732 31.0958 6.22916 31.077C6.151 31.0393 5.97906 31.1146 5.854 31.2088C5.66643 31.3596 5.65079 31.4538 5.80711 31.774C5.91653 31.9813 5.96342 32.1885 5.9009 32.245C5.854 32.3015 5.63516 32.3392 5.43195 32.3392C5.19227 32.3392 5.07243 32.2262 5.07243 32.0001C5.07243 31.8306 4.86922 31.5291 4.60348 31.3407C4.35338 31.1712 4.13454 30.9451 4.13454 30.832C4.13454 30.719 4.24396 30.6813 4.36901 30.7378C4.49406 30.7944 4.60348 30.7567 4.60348 30.6436C4.60348 30.5306 4.7129 30.4552 4.83795 30.4552C4.96301 30.4552 5.0568 30.3611 5.02553 30.2292C5.0099 30.1161 4.82232 30.0031 4.60348 29.9843C4.38464 29.9654 4.13454 29.9843 4.05638 30.0219C3.96259 30.0596 3.9157 30.3422 3.93133 30.6436C3.96259 30.9639 3.90006 31.2088 3.82191 31.2088C3.72812 31.2088 3.66559 31.3407 3.66559 31.4914C3.66559 31.6422 3.55617 31.774 3.43112 31.774C3.29043 31.774 3.22791 31.661 3.2748 31.4914C3.3217 31.3407 3.2748 31.19 3.16538 31.1712C3.05596 31.1335 3.0247 30.9828 3.08722 30.7944C3.18101 30.5118 3.24354 30.4929 3.43112 30.7002C3.5718 30.8132 3.68122 30.8697 3.66559 30.7944C3.66559 30.7002 3.63433 30.5306 3.58743 30.4176C3.54054 30.2857 3.3217 30.1915 3.11849 30.2292C2.89965 30.248 2.7277 30.2292 2.7277 30.1727C2.7277 30.1161 2.88402 29.9089 3.07159 29.7017C3.38422 29.3814 3.39986 29.3437 3.14975 29.3249C3.00907 29.3249 2.88402 29.2495 2.88402 29.1365C2.88402 29.0234 2.99344 28.8162 3.11849 28.6655C3.25917 28.4959 3.58743 28.4017 3.97822 28.4394C4.32211 28.4582 4.68164 28.364 4.79106 28.2322C4.96301 28.0438 4.94738 27.9496 4.7598 27.8177C4.63475 27.7235 4.44717 27.6293 4.33775 27.6293C4.24396 27.6293 4.05638 27.7423 3.94696 27.893C3.83754 28.0438 3.6187 28.138 3.46238 28.138C3.3217 28.1191 3.11849 27.9684 3.05596 27.8177C2.93091 27.5916 2.80586 27.667 2.33691 28.251C2.02428 28.6278 1.66476 28.9481 1.5397 28.9481C1.41465 28.9481 1.32086 28.8162 1.32086 28.6655C1.32086 28.4959 1.22707 28.4206 1.08639 28.4771C0.930075 28.5399 0.851918 28.4457 0.851918 28.1945C0.851918 27.9872 0.805023 27.8554 0.726866 27.893C0.664339 27.9307 0.476761 27.893 0.304815 27.8177C0.0703419 27.7046 0.00781576 27.5162 0.0234473 27.0829C0.0547103 26.7627 0.101605 26.4235 0.148499 26.3105C0.195394 26.1975 0.382972 26.1221 0.57055 26.1221C0.745591 26.1221 0.83541 26.1221 0.84542 26.0938C0.85597 26.064 0.777866 26.0029 0.617445 25.8772C0.398604 25.6888 0.351709 25.5757 0.492393 25.5004C0.601813 25.425 0.664339 25.2366 0.617445 25.0859C0.57055 24.9352 0.429867 24.841 0.304815 24.8975C0.164131 24.954 0.0547103 24.8598 0.0234473 24.6714C-0.00781576 24.483 -0.00781576 24.2004 0.0234473 24.0497C0.0547103 23.899 0.304815 23.6541 0.586182 23.5222C1.0395 23.2961 1.05513 23.2585 0.805023 23.0512C0.57055 22.844 0.554919 22.8063 0.77376 22.5802C0.961338 22.3918 1.0395 22.4107 1.16455 22.6933C1.24271 22.8628 1.32086 22.9005 1.32086 22.7875C1.32086 22.6556 1.38339 22.5425 1.47718 22.5425C1.55534 22.5425 1.82107 22.7686 2.03991 23.0701C2.36818 23.5034 2.46196 23.5411 2.57138 23.2961C2.66517 23.1454 2.7277 22.9005 2.7277 22.7875C2.7277 22.6556 2.79023 22.5425 2.88402 22.5425C2.96217 22.5425 3.08722 22.6556 3.13412 22.7875C3.18101 22.9005 3.14975 23.2019 3.05596 23.4469C2.91528 23.786 2.93091 23.8613 3.11849 23.8613C3.24354 23.8613 3.38422 23.6541 3.43112 23.3903C3.47801 23.1266 3.5718 22.9193 3.66559 22.9193C3.7698 22.9193 3.7698 22.7309 3.66559 22.3541C3.5718 22.0339 3.54054 21.7324 3.58743 21.6571C3.63433 21.5629 3.75938 21.6759 3.8688 21.8643C3.96259 22.0527 4.15017 22.1657 4.24396 22.1092C4.40027 22.015 4.35338 21.902 4.13454 21.6948C3.96259 21.544 3.82191 21.2803 3.82191 21.1296C3.82191 20.9788 3.68122 20.7528 3.50928 20.6586C3.33733 20.5644 3.19665 20.376 3.19665 20.2818C3.19665 20.1687 3.41549 20.1311 3.69685 20.1876C3.97822 20.2441 4.11891 20.2441 4.00948 20.1876C3.9157 20.1311 3.82191 19.9615 3.82191 19.8108C3.82191 19.6601 3.9157 19.5282 4.00948 19.5093C4.13454 19.5093 4.11891 19.4528 3.97822 19.3775C3.85317 19.3209 3.66559 19.2079 3.58743 19.1137C3.49364 19.0195 3.29043 18.8311 3.11849 18.6804C2.97095 18.5494 2.8967 18.4834 2.90916 18.4479C2.92179 18.412 3.02339 18.4073 3.22791 18.3978C3.54054 18.3978 3.71249 18.2659 3.82191 17.9268C3.90006 17.663 4.11891 17.4181 4.29085 17.3616C4.4628 17.3051 4.57222 17.1732 4.52532 17.079C4.47843 16.9848 4.55659 16.7776 4.68164 16.6645C4.88485 16.4573 4.93174 16.4761 4.93174 16.7964C4.94738 17.0978 4.97864 17.0602 5.11932 16.6457C5.22874 16.3631 5.33816 16.1747 5.38506 16.2312C5.43195 16.2877 5.66643 16.2124 5.93216 16.0617C6.18227 15.9109 6.448 15.8167 6.51053 15.8733C6.58869 15.9109 6.58868 15.7979 6.52616 15.6283C6.43237 15.3646 6.46363 15.3269 6.68247 15.4399C6.82316 15.5153 7.01074 15.5718 7.10453 15.5718C7.18268 15.5718 7.37026 15.7037 7.49531 15.8544C7.69852 16.0993 7.74542 16.0993 7.80794 15.7602C7.85484 15.5341 7.97989 15.4211 8.12057 15.4776C8.24563 15.5341 8.35505 15.5341 8.35505 15.4776C8.35505 15.4211 8.16747 15.2892 7.91736 15.1573C7.68289 15.0255 7.41716 14.9124 7.339 14.8936C7.24521 14.8748 7.10453 14.8559 7.02637 14.8559C6.93258 14.8371 6.94821 14.7052 7.05763 14.5356C7.16705 14.3849 7.30773 14.2907 7.37026 14.3284C7.44842 14.3849 7.5891 14.253 7.68289 14.0458C7.85484 13.7444 7.83921 13.6878 7.65163 13.6878C7.52658 13.6878 7.38589 13.5936 7.339 13.4994C7.2921 13.4052 7.55784 13.1603 7.91736 12.9719C8.29252 12.7835 8.63641 12.5575 8.69894 12.4633C8.74583 12.3502 8.49573 12.256 8.10494 12.2372C7.60473 12.1995 7.40152 12.256 7.339 12.4633C7.2921 12.614 7.18268 12.7459 7.10453 12.7459C7.01074 12.7459 6.97947 12.614 7.02637 12.4633C7.07326 12.3125 7.07326 12.0865 7.02637 11.9923C6.97947 11.8981 6.80753 11.9923 6.63558 12.2372C6.41674 12.5386 6.33858 12.5763 6.32295 12.3691C6.32295 12.1241 6.30732 12.1241 6.18227 12.3691C6.05721 12.5951 5.99469 12.614 5.82274 12.4067C5.71332 12.2937 5.49448 12.2183 5.33816 12.2749C5.19748 12.3314 5.07243 12.2749 5.07243 12.143C5.0568 12.0111 5.18185 11.7662 5.32253 11.6155C5.46322 11.4648 5.65079 11.1445 5.71332 10.9184C5.82274 10.5981 5.9009 10.5416 6.04158 10.6735C6.151 10.7677 6.29169 10.8054 6.35421 10.7112C6.41674 10.6358 6.43237 10.4851 6.38548 10.3909C6.33858 10.2967 6.47926 10.0329 6.71374 9.82569C6.93258 9.61845 7.10453 9.31702 7.10453 9.1663C7.10453 9.01558 7.35463 8.6953 7.65163 8.46923C8.12057 8.09243 8.24563 8.07359 8.57389 8.28083C8.82399 8.43155 8.99594 8.73298 9.04283 9.12862C9.12099 9.65613 9.18352 9.71265 9.48052 9.59961C9.66809 9.50541 9.84004 9.29818 9.8713 9.12862C9.90257 8.94022 10.0589 8.7895 10.2308 8.7895C10.4184 8.7895 10.5435 8.92138 10.5591 9.12862C10.5747 9.43006 10.5904 9.43006 10.6372 9.12862C10.6685 8.94022 10.8092 8.7895 10.9342 8.7895C11.0593 8.7895 11.2 8.67646 11.2312 8.56343C11.2625 8.43155 11.3094 8.35619 11.3563 8.41271C11.3876 8.46923 11.6064 8.86486 11.8409 9.31702C12.0753 9.75033 12.2629 10.3155 12.2629 10.5793C12.2629 10.9749 12.3255 11.0314 12.6537 10.9561C12.8726 10.8996 13.0758 10.9561 13.1227 11.0503C13.1696 11.1445 13.3884 11.2387 13.6229 11.2387C14.0293 11.2575 14.0449 11.2198 13.8261 10.9372C13.6541 10.6923 13.6385 10.5981 13.7792 10.5416C13.9355 10.5039 13.9042 10.3532 13.701 9.97641C13.5134 9.61845 13.4822 9.46774 13.6229 9.41122C13.7323 9.37354 13.8261 9.18514 13.8261 8.9779C13.8261 8.77066 13.7479 8.60111 13.6698 8.60111C13.576 8.60111 13.5447 8.41271 13.5916 8.18663C13.6541 7.84751 13.6229 7.80983 13.4666 7.97939C13.3728 8.09243 13.1539 8.13011 12.9976 8.07359C12.7996 7.98567 12.7215 7.79727 12.7631 7.5084C12.7788 7.26348 12.7319 7.01856 12.6537 6.96204C12.5599 6.90553 12.7788 6.56641 13.1227 6.18961C13.4666 5.81282 13.7479 5.43602 13.7479 5.36066C13.7479 5.30414 13.7948 5.17227 13.873 5.07807C13.9355 5.00271 14.0918 5.11575 14.2169 5.36066C14.3419 5.58674 14.592 5.77514 14.764 5.77514C14.9359 5.77514 15.0766 5.64326 15.0766 5.49254C15.0766 5.32298 15.1548 5.26646 15.2642 5.36066C15.4049 5.45486 15.4205 5.39834 15.3423 5.17227C15.2642 4.92735 15.3111 4.83315 15.4674 4.83315C15.5924 4.83315 15.78 5.05923 15.8582 5.36066C15.952 5.64326 16.077 5.81282 16.1395 5.73746C16.2021 5.68094 16.4991 5.69978 16.7961 5.79398C17.3119 5.96354 17.3275 5.9447 17.0774 5.64326C16.8586 5.3795 16.8273 5.15343 16.9211 4.68243C16.9993 4.1926 17.0931 4.07956 17.2963 4.15492C17.4839 4.23028 17.5776 4.17376 17.5776 3.98536C17.5776 3.83464 17.6402 3.70276 17.734 3.70276C17.8277 3.70276 17.9372 3.89116 17.9997 4.0984C18.0779 4.34332 18.2967 4.53171 18.5468 4.56939C18.8594 4.62591 18.9845 4.56939 18.9845 4.36215C18.9845 4.21144 19.0783 3.91 19.1721 3.7216C19.344 3.40133 19.3284 3.28829 19.0939 2.96801C18.9376 2.74193 18.8907 2.5347 18.9845 2.47818C19.0783 2.42166 19.2502 2.42166 19.3753 2.47818C19.5316 2.54098 19.6097 2.44678 19.6097 2.19558C19.6097 1.93182 19.7192 1.81878 19.9536 1.81878C20.1568 1.81878 20.3601 1.8753 20.4226 1.95066C20.5007 2.04486 20.4538 2.21442 20.3444 2.36514C20.1881 2.59122 20.2037 2.6289 20.4226 2.51586C20.6102 2.42794 20.7508 2.49702 20.8446 2.72309C20.9541 2.98685 21.0322 3.00569 21.2354 2.81729C21.4386 2.61006 21.5637 2.6289 22.2671 3.13757L22.2202 2.4405C22.1889 1.7811 22.2202 1.72459 22.5797 1.76227C22.7986 1.78111 23.1112 1.81878 23.2831 1.85646C23.4864 1.89414 23.6427 1.76227 23.7521 1.47967C23.8615 1.17823 24.0022 1.08403 24.1741 1.15939C24.3774 1.21591 24.4555 1.14055 24.4555 0.876796C24.4555 0.669558 24.518 0.5 24.6118 0.5ZM22.9705 3.66508C22.5797 3.6274 22.2671 3.64624 22.2671 3.70276C22.2515 3.75928 22.3453 3.89116 22.4547 3.98536C22.5641 4.0984 22.7673 4.17376 22.8924 4.15492C22.9236 4.15021 22.9568 4.14551 22.99 4.1408L22.99 4.14079C23.0897 4.12666 23.1894 4.11253 23.2363 4.0984C23.3144 4.0984 23.4082 4.06072 23.4707 4.02304C23.5489 4.0042 23.7365 3.89116 23.9084 3.77812C24.1168 3.63996 24.1585 3.52692 24.0335 3.43901C23.9397 3.38249 23.8146 3.40133 23.7677 3.51436C23.7208 3.60856 23.3613 3.68392 22.9705 3.64624V3.66508ZM17.5307 6.64177C17.4682 6.58525 17.5151 6.71713 17.6089 6.92437C17.7183 7.1316 17.8746 7.26348 17.9684 7.2258C18.0622 7.18812 18.3905 7.07508 18.7187 6.99972C19.0314 6.90553 19.344 6.69829 19.3909 6.54757C19.4691 6.32149 19.4378 6.30265 19.2658 6.49105C19.1095 6.66061 18.9688 6.66061 18.6406 6.47221C18.2811 6.26497 18.1716 6.26497 17.9372 6.47221C17.7809 6.60409 17.6089 6.67945 17.5307 6.64177ZM30.9426 9.65613C30.9895 9.71265 31.224 9.61845 31.4897 9.46773C31.7554 9.31702 31.943 9.1663 31.9117 9.12862C31.8961 9.10978 31.7711 8.9779 31.6304 8.84602C31.4272 8.65763 31.3334 8.6953 31.1145 9.09094C30.9739 9.3547 30.8957 9.59961 30.9426 9.65613ZM26.8002 10.372C26.6752 10.5604 26.597 10.7488 26.6439 10.7865C26.6908 10.843 26.9566 10.7488 27.2379 10.5604C27.5193 10.372 27.7225 10.1083 27.7069 9.95757C27.6756 9.80685 27.5974 9.65613 27.5037 9.63729C27.4099 9.59961 27.2848 9.67497 27.191 9.80685C27.0972 9.93873 26.9253 10.1836 26.8002 10.372ZM22.3922 10.4286C22.4078 10.4662 22.5328 10.6358 22.6579 10.7865C22.7986 10.9561 22.9236 10.9938 22.9705 10.8807C23.0174 10.7865 23.205 10.6923 23.3926 10.6923C23.7521 10.6735 23.7521 10.6735 23.4395 10.4097C23.2675 10.2402 23.0956 10.1271 23.0487 10.146C23.0283 10.1542 22.9841 10.1659 22.9266 10.1813C22.852 10.2012 22.755 10.2271 22.6579 10.259C22.4859 10.2967 22.3609 10.372 22.3922 10.4286ZM36.2104 10.6923C36.3198 10.6923 36.5074 10.8619 36.6012 11.0691C36.7106 11.2764 36.9138 11.4082 37.0389 11.3517C37.1639 11.2952 37.2734 11.0691 37.2734 10.8242C37.2734 10.5604 37.2265 10.5039 37.1483 10.6546C37.0858 10.7865 36.9138 10.843 36.7419 10.7677C36.5699 10.7112 36.4449 10.5793 36.4605 10.4851C36.4762 10.3909 36.3511 10.3155 36.1635 10.3155C35.9759 10.3155 35.8821 10.4097 35.929 10.5039C35.9759 10.5981 36.1166 10.6923 36.2104 10.6923ZM22.4234 12.5763C22.4859 12.727 22.6266 12.8024 22.7204 12.7082C22.8142 12.6328 22.9861 12.6517 23.0799 12.7647C23.2363 12.8966 23.2988 12.8024 23.3613 12.4821C23.4082 12.2183 23.3926 12.0111 23.3144 12.0111C23.2519 12.0111 23.1737 12.1241 23.1425 12.2372C23.0956 12.4256 23.0174 12.4256 22.7673 12.256C22.5797 12.1241 22.3922 12.0865 22.3609 12.1618C22.314 12.2372 22.3453 12.4256 22.4234 12.5763ZM19.7661 13.6125C19.8598 13.669 20.0318 13.5936 20.1568 13.4618C20.3601 13.2734 20.4382 13.2922 20.5945 13.4806C20.7039 13.6125 20.8446 13.7067 20.9384 13.7067C21.0322 13.7067 20.9541 13.5936 20.7821 13.4429C20.6102 13.3111 20.3288 13.1415 20.1412 13.0661C19.9224 12.9782 19.7765 13.0347 19.7035 13.2357C19.6566 13.3864 19.6723 13.556 19.7661 13.6125ZM16.671 16.0051C16.6554 16.1935 16.6554 16.3443 16.671 16.3443C16.7023 16.3443 16.8742 16.2124 17.0618 16.024C17.265 15.8167 17.3432 15.5907 17.2806 15.4588C17.1869 15.2892 17.1087 15.2892 16.9368 15.4588C16.8117 15.5907 16.7023 15.8356 16.671 16.0051ZM25.0339 16.2312C24.9401 16.2689 24.9088 16.3631 24.9713 16.4573C25.0495 16.5515 25.1746 16.4573 25.2683 16.2501C25.409 15.8921 25.4403 15.8921 25.878 16.4385C26.175 16.7964 26.3313 16.9094 26.3313 16.7211C26.3157 16.5703 26.0656 16.2501 25.7686 16.024C25.3465 15.7037 25.2215 15.666 25.2215 15.8733C25.2371 16.024 25.1433 16.1935 25.0339 16.2312ZM28.848 16.7776C28.9574 17.0602 29.1137 17.2862 29.1762 17.2862C29.2544 17.2862 29.27 17.1167 29.2231 16.9094C29.1762 16.6457 29.2231 16.5327 29.4107 16.495H29.9578C30.1141 16.5138 30.2392 16.4761 30.2392 16.4008C30.2392 16.3066 30.1766 16.1182 30.0985 15.9675C29.9891 15.7791 29.8328 15.7225 29.5826 15.8167C29.3794 15.8921 29.0668 15.8733 28.8949 15.7791C28.6291 15.6472 28.5666 15.6849 28.5822 15.9298C28.5979 16.0993 28.7229 16.495 28.848 16.7776ZM22.2984 16.4761C22.4078 16.5515 22.611 16.6457 22.736 16.6645C22.8611 16.7022 23.2675 16.7776 23.627 16.8152C24.0022 16.8718 24.2992 16.8529 24.2836 16.7776C24.2836 16.6834 24.221 16.4573 24.1429 16.2501C24.0335 15.9109 24.0178 15.9109 23.924 16.1935C23.8771 16.3819 23.7208 16.5327 23.5958 16.5327C23.4707 16.5327 23.3457 16.4573 23.3144 16.3631C23.2988 16.2877 23.0174 16.1559 22.7048 16.0805C22.3453 16.0051 22.1264 16.024 22.1264 16.1559C22.1108 16.2501 22.2046 16.4008 22.2984 16.4761ZM30.7081 17.2297L30.7624 17.1805L30.7624 17.1805C30.8715 17.0813 30.9806 16.9821 31.0207 16.966C31.0676 16.9471 30.9895 16.7776 30.8644 16.6269C30.7394 16.4573 30.5987 16.3254 30.5518 16.3443C30.5049 16.3443 30.4736 16.5892 30.4736 16.8906C30.4736 17.3428 30.5205 17.3993 30.7081 17.2297ZM6.01032 17.4181C5.96342 17.4558 6.04158 17.5688 6.16663 17.663C6.30732 17.7572 6.55742 17.7196 6.82316 17.55C7.07326 17.3993 7.2921 17.192 7.339 17.0978C7.38589 17.0036 7.40152 16.8906 7.37026 16.8529C7.339 16.8153 7.042 16.9094 6.69811 17.079C6.36984 17.2297 6.05721 17.3804 6.01032 17.4181ZM27.0816 18.6992C26.8784 18.7557 26.5032 18.7934 26.2531 18.8123C25.8936 18.8311 25.9561 18.8688 26.4876 18.9818C27.0972 19.0949 27.2223 19.0572 27.4568 18.7181C27.6131 18.492 27.7225 18.2659 27.7381 18.1717C27.7381 18.0964 27.66 18.0398 27.5818 18.0398C27.488 18.0398 27.4255 18.1717 27.4255 18.3224C27.4255 18.4732 27.2692 18.6427 27.066 18.6992H27.0816ZM42.5412 21.7701C42.0879 21.7136 42.0253 21.7513 42.1504 22.0339C42.2285 22.2223 42.4005 22.373 42.5255 22.373C42.6506 22.373 42.76 22.3165 42.76 22.2223C42.76 22.1469 42.9163 21.9962 43.1039 21.8831C43.3436 21.7576 43.4061 21.6445 43.2915 21.544C43.1821 21.4687 43.1039 21.5064 43.0883 21.6006C43.0726 21.7136 42.8382 21.789 42.5412 21.7513V21.7701ZM44.245 25.2178C44.5264 25.2178 44.6358 25.1236 44.6358 24.841C44.6358 24.5961 44.5264 24.4642 44.3388 24.4642C44.1669 24.4642 43.9949 24.6338 43.948 24.841C43.8699 25.1424 43.9324 25.2178 44.245 25.2178ZM6.71374 26.1033C6.80753 26.3482 6.93258 26.5366 6.9951 26.5366C7.07326 26.5366 7.08889 26.4047 7.042 26.254C6.9951 26.0844 7.13579 25.8395 7.37026 25.6323C7.76105 25.3308 7.76105 25.2932 7.49531 25.1801C7.339 25.1048 7.12016 25.0482 7.042 25.0482C6.94821 25.0294 6.79189 25.1801 6.71374 25.3497C6.60432 25.5946 6.60432 25.8207 6.71374 26.1033ZM14.9359 26.0656C15.061 26.1221 15.2954 26.1598 15.4518 26.1221C15.6862 26.0656 15.7019 26.0091 15.5299 25.7265C15.3423 25.425 15.2954 25.425 15.0141 25.6699C14.7483 25.896 14.7327 25.9714 14.9359 26.0656ZM42.4474 27.3844C42.6193 27.4409 42.76 27.5539 42.76 27.667C42.76 27.78 42.8851 27.7612 43.0727 27.6104C43.2446 27.4974 43.3853 27.2713 43.3853 27.1394C43.3853 26.9887 43.2446 26.951 42.9476 27.0264C42.6662 27.1018 42.4943 27.0578 42.4318 26.8945C42.3536 26.6873 42.3067 26.7061 42.2285 26.951C42.166 27.196 42.2285 27.309 42.4474 27.3844ZM17.7027 27.9496C17.5464 28.1945 17.562 28.251 17.7496 28.251C17.8746 28.2322 18.1404 28.1003 18.328 27.9496C18.5312 27.7988 18.6875 27.5916 18.6875 27.4786C18.6875 27.3655 18.5468 27.3278 18.3749 27.3844C18.2029 27.4409 18.0622 27.4032 18.0622 27.2902C18.0622 27.1771 17.9997 27.1018 17.9059 27.1018C17.8277 27.1018 17.7965 27.2336 17.8277 27.3844C17.8746 27.5351 17.8121 27.7988 17.7027 27.9496ZM5.3538 29.6451C5.46322 29.7017 5.58827 29.664 5.63516 29.5509C5.68206 29.4379 5.854 29.4002 6.02595 29.4567C6.21353 29.5133 6.33858 29.4567 6.33858 29.306C6.33858 29.1741 6.10411 29.0799 5.71332 29.0611C5.27564 29.0423 5.10369 29.0988 5.13495 29.2872C5.15059 29.4379 5.26001 29.5886 5.3538 29.6451ZM9.55867 30.0596C9.58994 30.1915 9.79315 30.3045 10.012 30.3045C10.2725 30.3045 10.4288 30.4301 10.4809 30.6813C10.5278 30.8886 10.6216 31.0581 10.7154 31.0581C10.7936 31.0581 10.903 30.9262 10.9499 30.7755C10.9968 30.6248 11.028 30.361 11.028 30.2103C11.028 30.0596 10.7779 29.7959 10.4809 29.6451C10.1839 29.4944 9.8713 29.3625 9.79315 29.3625C9.71499 29.3625 9.6212 29.4756 9.57431 29.5886C9.54304 29.7205 9.54304 29.9466 9.55867 30.0596ZM19.5785 30.6813C19.6097 30.6813 19.7661 30.606 19.938 30.4929C20.2037 30.3422 20.2194 30.248 20.0474 30.0219C19.9536 29.8524 19.7973 29.7205 19.7035 29.7393C19.6097 29.7393 19.5472 29.9466 19.5472 30.2103C19.5472 30.4741 19.5628 30.6813 19.5785 30.6813ZM41.4626 32.3015C41.6502 32.4899 41.7909 32.5276 41.9003 32.3957C42.0045 32.2701 41.9784 32.1069 41.8221 31.9059C41.6971 31.7364 41.4939 31.6045 41.3844 31.6233C41.2907 31.6233 41.1969 31.6987 41.1969 31.8117C41.1969 31.9248 41.3219 32.132 41.4626 32.3015ZM32.9434 31.2465C33.0216 31.2465 33.1154 31.3784 33.1623 31.5291C33.1935 31.6798 33.1935 31.8871 33.1623 32.0001C33.1154 32.1131 33.006 32.1885 32.9278 32.1885C32.834 32.1885 32.709 32.019 32.6464 31.8306C32.5839 31.6233 32.5995 31.4161 32.6777 31.3596C32.7558 31.303 32.8809 31.2465 32.9434 31.2465Z" fill="white"/>
<path d="M59.9 16.8411C58.3133 16.8411 57.1 16.3697 56.26 15.4271C55.42 14.4751 55 13.1777 55 11.5351C55 10.4524 55.2193 9.50972 55.658 8.70706C56.106 7.89506 56.7173 7.26972 57.492 6.83106C58.2667 6.39239 59.144 6.17306 60.124 6.17306C60.5347 6.17306 60.9313 6.20106 61.314 6.25706C61.6967 6.30372 62.1493 6.36906 62.672 6.45306C63.064 6.51839 63.2787 6.55106 63.316 6.55106L63.162 9.43506H61.874L61.44 7.43306C61.3373 7.33039 61.16 7.24639 60.908 7.18106C60.656 7.11572 60.334 7.08306 59.942 7.08306C59.1487 7.08306 58.5093 7.45172 58.024 8.18906C57.548 8.91706 57.31 9.97639 57.31 11.3671C57.31 12.7111 57.5387 13.8077 57.996 14.6571C58.4533 15.5064 59.1207 15.9311 59.998 15.9311C60.418 15.9311 60.74 15.8937 60.964 15.8191C61.1973 15.7351 61.3933 15.6184 61.552 15.4691L62.168 14.0271L63.344 14.1391L63.064 16.3091C62.868 16.3277 62.672 16.3651 62.476 16.4211C62.2893 16.4677 62.1727 16.4957 62.126 16.5051C61.7527 16.6077 61.4027 16.6871 61.076 16.7431C60.7587 16.8084 60.3667 16.8411 59.9 16.8411ZM67.6308 6.22906H69.7728L73.0068 15.7071L73.8188 15.8471V16.6871H69.6888V15.8471L70.7388 15.7071L70.1928 13.8871H66.5668L66.0208 15.7211L67.1548 15.8471V16.6871H63.5848L63.5708 15.8471L64.4108 15.7071L67.6308 6.22906ZM68.5968 8.59506L68.3448 7.50306L68.0788 8.60906L66.8328 12.9071H69.9128L68.5968 8.59506ZM75.3049 7.33506L74.1989 7.15306V6.28506H77.3769L81.5489 12.5851L82.3329 14.1811V7.33506L81.1289 7.15306V6.28506H84.6009V7.15306L83.5229 7.33506V16.6871H81.8289L77.4749 10.0651L76.4949 8.21706V15.7071L77.9089 15.8471V16.6871H74.1989V15.8471L75.3049 15.7071V7.33506ZM89.8472 16.8411C88.3259 16.8411 87.1872 16.3651 86.4312 15.4131C85.6752 14.4611 85.2972 13.1637 85.2972 11.5211C85.2972 10.4477 85.4932 9.50506 85.8852 8.69306C86.2865 7.88106 86.8465 7.25572 87.5652 6.81706C88.2839 6.37839 89.1099 6.15906 90.0432 6.15906C91.5832 6.15906 92.7359 6.61639 93.5012 7.53106C94.2759 8.43639 94.6632 9.70572 94.6632 11.3391C94.6632 12.4217 94.4579 13.3831 94.0472 14.2231C93.6459 15.0537 93.0812 15.6977 92.3532 16.1551C91.6252 16.6124 90.7899 16.8411 89.8472 16.8411ZM89.9872 7.01306C89.2219 7.01306 88.6245 7.39106 88.1952 8.14706C87.7659 8.90306 87.5512 10.0231 87.5512 11.5071C87.5512 12.9724 87.7565 14.0877 88.1672 14.8531C88.5872 15.6091 89.1845 15.9871 89.9592 15.9871C90.7152 15.9871 91.3079 15.5904 91.7372 14.7971C92.1665 13.9944 92.3812 12.8417 92.3812 11.3391C92.3812 9.88306 92.1759 8.80039 91.7652 8.09106C91.3545 7.37239 90.7619 7.01306 89.9872 7.01306ZM96.7287 7.33506L95.6787 7.15306V6.28506H97.7928C97.9888 6.28506 98.2921 6.27572 98.7028 6.25706C99.2441 6.21972 99.7341 6.20106 100.173 6.20106C101.143 6.20106 101.909 6.32239 102.469 6.56506C103.038 6.79839 103.439 7.13906 103.673 7.58706C103.915 8.02572 104.037 8.58572 104.037 9.26706C104.037 10.4431 103.668 11.3577 102.931 12.0111C102.203 12.6644 101.19 12.9911 99.8927 12.9911C99.3794 12.9911 99.0107 12.9771 98.7868 12.9491V15.7071L100.663 15.8471V16.6871H95.6227V15.8471L96.7287 15.7071V7.33506ZM98.7728 12.0531C98.9874 12.0997 99.3514 12.1231 99.8647 12.1231C100.49 12.1231 100.989 11.9084 101.363 11.4791C101.745 11.0404 101.937 10.3171 101.937 9.30906C101.937 8.52506 101.764 7.95572 101.419 7.60106C101.083 7.23706 100.565 7.05506 99.8647 7.05506C99.6034 7.05506 99.3328 7.07372 99.0527 7.11106C98.9221 7.12972 98.8288 7.13906 98.7728 7.13906V12.0531ZM107.889 12.5571L104.893 7.33506L104.095 7.15306V6.28506H108.211V7.15306L107.217 7.33506L108.967 10.7651L109.359 11.7311L109.765 10.7651L111.375 7.33506L110.283 7.15306V6.28506H113.699V7.15306L112.831 7.32106L110.045 12.5431V15.7071L111.571 15.8471V16.6871H106.405V15.8471L107.889 15.7071V12.5571Z" fill="white"/>
<path d="M56.428 23.3351L55.238 23.1531V22.2851H59.718V23.1531L58.486 23.3351V31.7071L59.718 31.8611V32.6871H55.238V31.8471L56.428 31.7071V23.3351ZM62.0159 23.3351L60.9099 23.1531V22.2851H64.0879L68.2599 28.5851L69.0439 30.1811V23.3351L67.8399 23.1531V22.2851H71.3119V23.1531L70.2339 23.3351V32.6871H68.5399L64.1859 26.0651L63.2059 24.2171V31.7071L64.6199 31.8471V32.6871H60.9099V31.8471L62.0159 31.7071V23.3351ZM75.7461 32.8411C75.2421 32.8411 74.7895 32.7991 74.3881 32.7151C73.9868 32.6311 73.5388 32.5191 73.0441 32.3791C72.7175 32.2857 72.4981 32.2344 72.3861 32.2251L72.5121 29.6351H73.6461L73.9541 31.4411C74.0755 31.5717 74.2901 31.6884 74.5981 31.7911C74.9155 31.8937 75.2748 31.9451 75.6761 31.9451C76.3015 31.9451 76.7681 31.8097 77.0761 31.5391C77.3935 31.2591 77.5521 30.8717 77.5521 30.3771C77.5521 30.0504 77.4588 29.7704 77.2721 29.5371C77.0855 29.2944 76.8288 29.0797 76.5021 28.8931C76.1755 28.6971 75.7275 28.4731 75.1581 28.2211C74.3835 27.8664 73.7395 27.4464 73.2261 26.9611C72.7221 26.4664 72.4701 25.7991 72.4701 24.9591C72.4701 24.4364 72.6055 23.9651 72.8761 23.5451C73.1468 23.1157 73.5481 22.7797 74.0801 22.5371C74.6215 22.2851 75.2795 22.1591 76.0541 22.1591C76.5115 22.1591 76.9128 22.1917 77.2581 22.2571C77.6128 22.3224 77.9955 22.4111 78.4061 22.5231C78.6488 22.5884 78.8308 22.6304 78.9521 22.6491L78.8681 25.0991H77.7481L77.4541 23.3771C77.3701 23.2931 77.2021 23.2137 76.9501 23.1391C76.6981 23.0551 76.4181 23.0131 76.1101 23.0131C75.5501 23.0131 75.1255 23.1437 74.8361 23.4051C74.5561 23.6571 74.4161 23.9977 74.4161 24.4271C74.4161 24.7724 74.5188 25.0711 74.7241 25.3231C74.9388 25.5751 75.1955 25.7897 75.4941 25.9671C75.7928 26.1351 76.2641 26.3777 76.9081 26.6951C77.4308 26.9471 77.8788 27.1944 78.2521 27.4371C78.6255 27.6797 78.9475 27.9971 79.2181 28.3891C79.4888 28.7717 79.6241 29.2244 79.6241 29.7471C79.6241 30.2604 79.4935 30.7504 79.2321 31.2171C78.9801 31.6837 78.5601 32.0711 77.9721 32.3791C77.3935 32.6871 76.6515 32.8411 75.7461 32.8411ZM85.4137 32.7991C83.995 32.7991 82.9404 32.4444 82.2497 31.7351C81.559 31.0257 81.2137 29.9104 81.2137 28.3891V23.3351L80.2897 23.1531V22.2851H84.5177V23.1531L83.3277 23.3491V28.5711C83.3277 30.7924 84.1164 31.9031 85.6937 31.9031C86.4684 31.9031 87.0424 31.6184 87.4157 31.0491C87.789 30.4704 87.9757 29.6631 87.9757 28.6271V23.3491L86.7717 23.1531V22.2851H90.2717V23.1531L89.3197 23.3351V28.5151C89.3197 29.9711 88.965 31.0491 88.2557 31.7491C87.5557 32.4491 86.6084 32.7991 85.4137 32.7991ZM90.974 31.8471L92.08 31.7071V23.3351L91.03 23.1391V22.2851H93.06C93.2373 22.2851 93.4333 22.2804 93.648 22.2711C93.8627 22.2617 94.026 22.2524 94.138 22.2431C94.6233 22.2057 95.0247 22.1871 95.342 22.1871C96.3033 22.1871 97.0733 22.2851 97.652 22.4811C98.2307 22.6771 98.6507 22.9757 98.912 23.3771C99.1733 23.7784 99.304 24.3057 99.304 24.9591C99.304 25.6031 99.1313 26.2004 98.786 26.7511C98.4407 27.3017 97.9413 27.6797 97.288 27.8851C97.6613 28.0437 97.9927 28.3331 98.282 28.7531C98.5713 29.1731 98.8793 29.7191 99.206 30.3911C99.4393 30.8484 99.6166 31.1797 99.738 31.3851C99.8687 31.5811 99.9947 31.6931 100.116 31.7211L100.578 31.8611V32.6871H98.198C98.0487 32.6871 97.89 32.5377 97.722 32.2391C97.5633 31.9311 97.3533 31.4504 97.092 30.7971C96.784 30.0317 96.518 29.4344 96.294 29.0051C96.07 28.5757 95.832 28.3097 95.58 28.2071H94.138V31.7071L95.426 31.8471V32.6871H90.974V31.8471ZM95.426 27.3531C95.958 27.3531 96.3733 27.1617 96.672 26.7791C96.9706 26.3964 97.12 25.8224 97.12 25.0571C97.12 24.3757 96.9706 23.8717 96.672 23.5451C96.3827 23.2184 95.8787 23.0551 95.16 23.0551C94.8987 23.0551 94.6747 23.0691 94.488 23.0971C94.3106 23.1157 94.194 23.1251 94.138 23.1251V27.3251C94.25 27.3437 94.5207 27.3531 94.95 27.3531H95.426ZM104.34 22.2291H106.482L109.716 31.7071L110.528 31.8471V32.6871H106.398V31.8471L107.448 31.7071L106.902 29.8871H103.276L102.73 31.7211L103.864 31.8471V32.6871H100.294L100.28 31.8471L101.12 31.7071L104.34 22.2291ZM105.306 24.5951L105.054 23.5031L104.788 24.6091L103.542 28.9071H106.622L105.306 24.5951ZM112.014 23.3351L110.908 23.1531V22.2851H114.086L118.258 28.5851L119.042 30.1811V23.3351L117.838 23.1531V22.2851H121.31V23.1531L120.232 23.3351V32.6871H118.538L114.184 26.0651L113.204 24.2171V31.7071L114.618 31.8471V32.6871H110.908V31.8471L112.014 31.7071V23.3351ZM126.892 32.8411C125.306 32.8411 124.092 32.3697 123.252 31.4271C122.412 30.4751 121.992 29.1777 121.992 27.5351C121.992 26.4524 122.212 25.5097 122.65 24.7071C123.098 23.8951 123.71 23.2697 124.484 22.8311C125.259 22.3924 126.136 22.1731 127.116 22.1731C127.527 22.1731 127.924 22.2011 128.306 22.2571C128.689 22.3037 129.142 22.3691 129.664 22.4531C130.056 22.5184 130.271 22.5511 130.308 22.5511L130.154 25.4351H128.866L128.432 23.4331C128.33 23.3304 128.152 23.2464 127.9 23.1811C127.648 23.1157 127.326 23.0831 126.934 23.0831C126.141 23.0831 125.502 23.4517 125.016 24.1891C124.54 24.9171 124.302 25.9764 124.302 27.3671C124.302 28.7111 124.531 29.8077 124.988 30.6571C125.446 31.5064 126.113 31.9311 126.99 31.9311C127.41 31.9311 127.732 31.8937 127.956 31.8191C128.19 31.7351 128.386 31.6184 128.544 31.4691L129.16 30.0271L130.336 30.1391L130.056 32.3091C129.86 32.3277 129.664 32.3651 129.468 32.4211C129.282 32.4677 129.165 32.4957 129.118 32.5051C128.745 32.6077 128.395 32.6871 128.068 32.7431C127.751 32.8084 127.359 32.8411 126.892 32.8411ZM132.453 23.3351L131.333 23.1531V22.2851H138.795L138.977 24.6371H137.997L137.535 23.2511L134.511 23.1251V26.8911L136.457 26.8491L136.681 25.7011H137.577V29.0891H136.681L136.457 27.8851L134.511 27.8431V31.7911L137.899 31.6231L138.711 29.8311L139.761 30.1251L139.397 32.6871H131.347V31.8471L132.453 31.7071V23.3351Z" fill="white"/>
</svg>
