<svg width="17" height="18" viewBox="0 0 17 18" fill="none" xmlns="http://www.w3.org/2000/svg">
<path d="M16.5 17.5C16.5 14.672 16.5 13.257 15.621 12.379C14.743 11.5 13.328 11.5 10.5 11.5L8.5 13.5L6.5 11.5C3.672 11.5 2.257 11.5 1.379 12.379C0.5 13.257 0.5 14.672 0.5 17.5M12.5 14.5V17.5M14 16H11M12 5V4C12 3.54037 11.9095 3.08525 11.7336 2.66061C11.5577 2.23597 11.2999 1.85013 10.9749 1.52513C10.6499 1.20012 10.264 0.942313 9.83939 0.766422C9.41475 0.59053 8.95963 0.5 8.5 0.5C8.04037 0.5 7.58525 0.59053 7.16061 0.766422C6.73597 0.942313 6.35013 1.20012 6.02513 1.52513C5.70012 1.85013 5.44231 2.23597 5.26642 2.66061C5.09053 3.08525 5 3.54037 5 4V5C5 5.45963 5.09053 5.91475 5.26642 6.33939C5.44231 6.76403 5.70012 7.14987 6.02513 7.47487C6.35013 7.79988 6.73597 8.05769 7.16061 8.23358C7.58525 8.40947 8.04037 8.5 8.5 8.5C8.95963 8.5 9.41475 8.40947 9.83939 8.23358C10.264 8.05769 10.6499 7.79988 10.9749 7.47487C11.2999 7.14987 11.5577 6.76403 11.7336 6.33939C11.9095 5.91475 12 5.45963 12 5Z" stroke="#1B2A51" stroke-linecap="round" stroke-linejoin="round"/>
</svg>
