<svg width="296" height="51" viewBox="0 0 296 51" fill="none" xmlns="http://www.w3.org/2000/svg">
<g clip-path="url(#clip0_1_515)">
<path d="M5.47422 3.76766C7.67422 3.76766 9.63422 5.12766 10.4142 7.18766L20.3842 33.6077H20.5142L30.7442 6.92766C31.4742 5.02766 33.3042 3.76766 35.3442 3.76766C38.8542 3.76766 41.2342 7.32766 39.8942 10.5677L25.4442 45.6077C24.5242 47.8477 22.3442 49.2977 19.9242 49.2977C17.4842 49.2977 15.2842 47.8077 14.3842 45.5477L0.574223 11.0077C-0.805777 7.53766 1.74422 3.76766 5.47422 3.76766Z" fill="white"/>
<path d="M44.6348 8.19766C44.6348 6.65766 45.1848 5.33766 46.2748 4.23766C47.3648 3.13766 48.6848 2.59766 50.2348 2.59766C51.7848 2.59766 53.0948 3.14766 54.1948 4.23766C55.2848 5.32766 55.8348 6.64766 55.8348 8.19766C55.8348 9.74766 55.2848 11.0577 54.1948 12.1577C53.1048 13.2477 51.7848 13.7977 50.2348 13.7977C48.6848 13.7977 47.3748 13.2477 46.2748 12.1577C45.1848 11.0677 44.6348 9.74766 44.6348 8.19766ZM45.4048 18.0377H55.0548V49.2877H45.4048V18.0377Z" fill="white"/>
<path d="M78.0746 27.2377C76.6546 25.4777 74.7946 24.5977 72.4846 24.5977C71.6646 24.5977 70.8747 24.7877 70.1047 25.1777C69.3347 25.5677 68.9446 26.2277 68.9446 27.1677C68.9446 27.9377 69.3447 28.5077 70.1347 28.8677C70.9247 29.2377 71.9346 29.5577 73.1546 29.8277C74.3746 30.1077 75.6846 30.4077 77.0746 30.7277C78.4646 31.0477 79.7747 31.5577 80.9947 32.2377C82.2147 32.9277 83.2246 33.8577 84.0146 35.0377C84.8046 36.2177 85.2047 37.7977 85.2047 39.7677C85.2047 41.7377 84.7647 43.4477 83.8847 44.7477C83.0047 46.0577 81.8846 47.1077 80.5046 47.8977C79.1346 48.6877 77.5846 49.2477 75.8746 49.5677C74.1646 49.8877 72.4646 50.0477 70.7946 50.0477C68.6046 50.0477 66.3946 49.7377 64.1746 49.1177C61.9446 48.4977 60.0546 47.3977 58.5146 45.8077L64.3646 39.3077C65.2646 40.4277 66.2647 41.2677 67.3547 41.8477C68.4447 42.4277 69.7246 42.7177 71.1846 42.7177C72.2946 42.7177 73.3047 42.5577 74.2047 42.2377C75.1047 41.9177 75.5546 41.3277 75.5546 40.4677C75.5546 39.6577 75.1546 39.0477 74.3646 38.6377C73.5746 38.2277 72.5647 37.8877 71.3447 37.6077C70.1247 37.3277 68.8147 37.0277 67.4247 36.7077C66.0347 36.3877 64.7247 35.9077 63.5047 35.2577C62.2847 34.6177 61.2746 33.7077 60.4846 32.5277C59.6946 31.3477 59.2946 29.7777 59.2946 27.7977C59.2946 25.9577 59.6746 24.3677 60.4146 23.0377C61.1546 21.7077 62.1546 20.6177 63.3746 19.7577C64.5946 18.8977 66.0046 18.2677 67.5846 17.8577C69.1746 17.4477 70.7746 17.2477 72.4046 17.2477C74.4646 17.2477 76.5446 17.5477 78.6446 18.1477C80.7446 18.7477 82.5247 19.8177 83.9846 21.3577L78.0647 27.2077L78.0746 27.2377Z" fill="white"/>
<path d="M87.9141 8.19766C87.9141 6.65766 88.4641 5.33766 89.5541 4.23766C90.6441 3.13766 91.9641 2.59766 93.5141 2.59766C95.0641 2.59766 96.3741 3.14766 97.4741 4.23766C98.5641 5.32766 99.1141 6.64766 99.1141 8.19766C99.1141 9.74766 98.5641 11.0577 97.4741 12.1577C96.3841 13.2477 95.0641 13.7977 93.5141 13.7977C91.9641 13.7977 90.6541 13.2477 89.5541 12.1577C88.4641 11.0677 87.9141 9.74766 87.9141 8.19766ZM88.6841 18.0377H98.3341V49.2877H88.6841V18.0377Z" fill="white"/>
<path d="M102.504 33.6677C102.504 31.1777 102.954 28.9277 103.854 26.9177C104.754 24.9077 105.984 23.1777 107.554 21.7377C109.114 20.2977 110.964 19.1977 113.084 18.4277C115.204 17.6577 117.464 17.2677 119.864 17.2677C122.264 17.2677 124.524 17.6577 126.654 18.4277C128.784 19.1977 130.614 20.3077 132.184 21.7377C133.744 23.1777 134.984 24.8977 135.884 26.9177C136.784 28.9377 137.234 31.1877 137.234 33.6677C137.234 36.1477 136.784 38.4077 135.884 40.4177C134.984 42.4377 133.754 44.1577 132.184 45.5977C130.614 47.0377 128.774 48.1377 126.654 48.9077C124.534 49.6777 122.274 50.0677 119.864 50.0677C117.454 50.0677 115.204 49.6777 113.084 48.9077C110.964 48.1377 109.114 47.0277 107.554 45.5977C105.984 44.1577 104.754 42.4377 103.854 40.4177C102.954 38.4077 102.504 36.1477 102.504 33.6677ZM112.154 33.6677C112.154 36.0277 112.824 37.9377 114.184 39.3877C115.534 40.8477 117.434 41.5777 119.874 41.5777C122.314 41.5777 124.214 40.8477 125.564 39.3877C126.914 37.9277 127.594 36.0177 127.594 33.6677C127.594 31.3177 126.914 29.3977 125.564 27.9477C124.214 26.4877 122.314 25.7577 119.874 25.7577C117.434 25.7577 115.534 26.4877 114.184 27.9477C112.834 29.4077 112.154 31.3177 112.154 33.6677Z" fill="white"/>
<path d="M141.284 18.0377H150.544V22.2777H150.674C150.974 21.6777 151.404 21.0777 151.964 20.4777C152.524 19.8777 153.184 19.3377 153.954 18.8677C154.724 18.3977 155.604 18.0077 156.594 17.7077C157.584 17.4077 158.654 17.2577 159.814 17.2577C162.254 17.2577 164.234 17.6377 165.734 18.3777C167.234 19.1277 168.404 20.1677 169.234 21.4977C170.074 22.8277 170.634 24.3877 170.934 26.1977C171.234 27.9977 171.384 29.9477 171.384 32.0477V49.2877H161.734V33.9777C161.734 33.0777 161.704 32.1477 161.634 31.1777C161.564 30.2077 161.374 29.3277 161.054 28.5077C160.734 27.6977 160.244 27.0277 159.574 26.5177C158.904 26.0077 157.954 25.7477 156.714 25.7477C155.474 25.7477 154.464 25.9677 153.694 26.4177C152.924 26.8677 152.334 27.4677 151.924 28.2177C151.514 28.9677 151.254 29.8177 151.124 30.7577C150.994 31.6977 150.934 32.6877 150.934 33.7177V49.2777H141.284V18.0277V18.0377Z" fill="white"/>
<path d="M222.334 0.677658H231.984V49.2977H222.334V0.677658Z" fill="white"/>
<path d="M266.024 49.2977H256.764V45.0577H256.634C256.294 45.6577 255.854 46.2577 255.314 46.8577C254.774 47.4577 254.124 47.9977 253.354 48.4677C252.584 48.9377 251.704 49.3277 250.714 49.6277C249.724 49.9277 248.654 50.0777 247.494 50.0777C245.054 50.0777 243.064 49.6977 241.544 48.9577C240.024 48.2077 238.844 47.1677 238.004 45.8377C237.164 44.5077 236.614 42.9477 236.334 41.1477C236.054 39.3477 235.914 37.3977 235.914 35.2977V18.0577H245.564V33.3677C245.564 34.2677 245.594 35.1977 245.664 36.1677C245.734 37.1377 245.924 38.0177 246.244 38.8377C246.564 39.6477 247.054 40.3177 247.724 40.8277C248.394 41.3377 249.344 41.5977 250.584 41.5977C251.824 41.5977 252.834 41.3677 253.604 40.9177C254.374 40.4677 254.964 39.8677 255.374 39.1177C255.784 38.3677 256.044 37.5177 256.174 36.5777C256.304 35.6377 256.364 34.6477 256.364 33.6177V18.0577H266.014V49.3077L266.024 49.2977Z" fill="white"/>
<path d="M288.524 27.2377C287.114 25.4777 285.244 24.5977 282.934 24.5977C282.114 24.5977 281.324 24.7877 280.554 25.1777C279.784 25.5677 279.394 26.2277 279.394 27.1677C279.394 27.9377 279.784 28.5077 280.584 28.8677C281.374 29.2377 282.384 29.5577 283.604 29.8277C284.824 30.1077 286.134 30.4077 287.524 30.7277C288.914 31.0477 290.224 31.5577 291.444 32.2377C292.664 32.9277 293.674 33.8577 294.464 35.0377C295.254 36.2177 295.654 37.7977 295.654 39.7677C295.654 41.7377 295.214 43.4477 294.334 44.7477C293.454 46.0577 292.334 47.1077 290.954 47.8977C289.584 48.6877 288.034 49.2477 286.324 49.5677C284.614 49.8877 282.914 50.0477 281.244 50.0477C279.054 50.0477 276.844 49.7377 274.624 49.1177C272.394 48.4977 270.504 47.3977 268.964 45.8077L274.814 39.3077C275.714 40.4277 276.714 41.2677 277.804 41.8477C278.894 42.4277 280.174 42.7177 281.634 42.7177C282.754 42.7177 283.754 42.5577 284.654 42.2377C285.554 41.9177 286.004 41.3277 286.004 40.4677C286.004 39.6577 285.604 39.0477 284.814 38.6377C284.024 38.2277 283.014 37.8877 281.794 37.6077C280.574 37.3277 279.264 37.0277 277.874 36.7077C276.484 36.3877 275.174 35.9077 273.954 35.2577C272.734 34.6177 271.724 33.7077 270.934 32.5277C270.144 31.3477 269.744 29.7777 269.744 27.7977C269.744 25.9577 270.124 24.3677 270.864 23.0377C271.604 21.7077 272.604 20.6177 273.824 19.7577C275.044 18.8977 276.454 18.2677 278.034 17.8577C279.624 17.4477 281.224 17.2477 282.854 17.2477C284.914 17.2477 286.994 17.5477 289.094 18.1477C291.194 18.7477 292.974 19.8177 294.434 21.3577L288.514 27.2077L288.524 27.2377Z" fill="white"/>
<path d="M218.284 12.2077C217.184 10.0977 215.714 8.41766 213.854 7.16766C211.994 5.91766 209.814 5.03766 207.324 4.52766C204.824 4.01766 202.184 3.76766 199.374 3.76766H185.114V13.1177H198.014C199.264 13.1177 200.564 13.1877 201.924 13.3277C203.284 13.4677 204.524 13.7977 205.624 14.3077C206.724 14.8177 207.634 15.5377 208.344 16.4777C209.054 17.4177 209.414 18.6477 209.414 20.1777C209.414 21.5977 209.144 22.7777 208.604 23.7077C208.064 24.6477 207.354 25.3777 206.474 25.9177C205.664 26.4077 204.734 26.6777 203.794 26.6777H195.214V15.0277H185.114V26.6777H178.814C176.044 26.6777 173.794 28.9277 173.794 31.6977C173.794 34.4677 176.044 36.7177 178.814 36.7177H185.114V44.2377C185.114 47.0277 187.374 49.2877 190.164 49.2877C192.954 49.2877 195.214 47.0277 195.214 44.2377V36.7677H199.914C202.764 36.7677 205.414 36.4977 207.864 35.9677C210.304 35.4377 212.424 34.5277 214.204 33.2577C215.984 31.9877 217.384 30.2777 218.404 28.1377C219.424 25.9977 219.934 23.3477 219.934 20.1877C219.934 17.0277 219.384 14.3177 218.294 12.1977L218.284 12.2077Z" fill="white"/>
</g>
<defs>
<clipPath id="clip0_1_515">
<rect width="295.47" height="49.39" fill="white" transform="translate(0.194336 0.677658)"/>
</clipPath>
</defs>
</svg>
