<svg width="28" height="36" viewBox="0 0 28 36" fill="none" xmlns="http://www.w3.org/2000/svg">
<path d="M24.5359 23.76C24.9985 23.3208 25.3668 22.792 25.6185 22.2059C25.8702 21.6198 26 20.9886 26 20.3508C26 19.7129 25.8702 19.0817 25.6185 18.4956C25.3668 17.9095 24.9985 17.3808 24.5359 16.9415C23.5891 16.0429 22.3335 15.542 21.028 15.542C19.7226 15.542 18.467 16.0429 17.5202 16.9415L14 20.4615L10.4798 16.9415C9.53298 16.0429 8.27736 15.542 6.97195 15.542C5.66655 15.542 4.41092 16.0429 3.46408 16.9415C3.00153 17.3808 2.6332 17.9095 2.3815 18.4956C2.1298 19.0817 2 19.7129 2 20.3508C2 20.9886 2.1298 21.6198 2.3815 22.2059C2.6332 22.792 3.00153 23.3208 3.46408 23.76L14 34L24.5359 23.76ZM14 11.8462C15.3057 11.8462 16.558 11.3275 17.4813 10.4042C18.4046 9.48096 18.9233 8.22876 18.9233 6.92308C18.9233 5.6174 18.4046 4.36519 17.4813 3.44194C16.558 2.51868 15.3057 2 14 2C12.6943 2 11.442 2.51868 10.5187 3.44194C9.59538 4.36519 9.07667 5.6174 9.07667 6.92308C9.07667 8.22876 9.59538 9.48096 10.5187 10.4042C11.442 11.3275 12.6943 11.8462 14 11.8462Z" stroke="white" stroke-width="3" stroke-linecap="round" stroke-linejoin="round"/>
</svg>
