<svg width="32" height="32" viewBox="0 0 32 32" fill="none" xmlns="http://www.w3.org/2000/svg">
<path d="M30.9538 17.1918C30.726 20.0546 29.6812 22.7918 27.9435 25.0783C26.2058 27.3648 23.8483 29.1044 21.151 30.0905C18.4537 31.0765 15.5301 31.2676 12.7274 30.6409C9.92475 30.0143 7.36088 28.5963 5.3404 26.5554C3.31991 24.5145 1.92775 21.9365 1.3293 19.1277C0.730859 16.3189 0.951285 13.3973 1.9644 10.7101C2.97751 8.02284 4.74072 5.68291 7.04454 3.96828C9.34837 2.25365 12.096 1.23639 14.9609 1.03735" stroke="white" stroke-width="2" stroke-linecap="round" stroke-linejoin="round"/>
<path d="M22.4382 18.516C22.0215 19.5887 21.3439 20.5405 20.4669 21.2855C19.5898 22.0305 18.5409 22.5451 17.4149 22.7828C16.289 23.0205 15.1216 22.9738 14.0182 22.6469C12.9149 22.32 11.9104 21.7232 11.0956 20.9106C10.2809 20.0979 9.68153 19.095 9.35181 17.9925C9.02208 16.89 8.97237 15.7227 9.20717 14.5961C9.44197 13.4696 9.95388 12.4193 10.6966 11.5403C11.4393 10.6613 12.3894 9.98136 13.461 9.56185M15.9995 16.0005L21.769 10.2311M21.769 10.2311L26.3845 11.385L31.0001 6.76944L26.3845 5.61555L25.2306 1L20.6151 5.61555L21.769 10.2311Z" stroke="white" stroke-width="2" stroke-linecap="round" stroke-linejoin="round"/>
</svg>
