<svg width="38" height="38" viewBox="0 0 38 38" fill="none" xmlns="http://www.w3.org/2000/svg">
<mask id="path-1-outside-1_1_469" maskUnits="userSpaceOnUse" x="0.205078" y="-0.5" width="38" height="38" fill="black">
<rect fill="white" x="0.205078" y="-0.5" width="38" height="38"/>
<path d="M33.8627 14.9089C33.8627 14.6542 33.7615 14.4099 33.5813 14.2298C33.4012 14.0496 33.1569 13.9485 32.9022 13.9485C32.6474 13.9485 32.4031 14.0496 32.223 14.2298C32.0429 14.4099 31.9417 14.6542 31.9417 14.9089H33.8627ZM6.96918 14.9089C6.96918 14.6542 6.86798 14.4099 6.68786 14.2298C6.50773 14.0496 6.26343 13.9485 6.0087 13.9485C5.75396 13.9485 5.50966 14.0496 5.32953 14.2298C5.14941 14.4099 5.04822 14.6542 5.04822 14.9089H6.96918ZM36.0641 19.4309C36.2444 19.6112 36.489 19.7126 36.7441 19.7126C36.9992 19.7126 37.2438 19.6112 37.4241 19.4309C37.6045 19.2505 37.7058 19.0059 37.7058 18.7509C37.7058 18.4958 37.6045 18.2512 37.4241 18.0708L36.0641 19.4309ZM19.4554 1.4622L20.1355 0.782177C20.0462 0.692731 19.9402 0.621765 19.8236 0.573345C19.7069 0.524924 19.5818 0.5 19.4554 0.5C19.3291 0.5 19.204 0.524924 19.0873 0.573345C18.9706 0.621765 18.8646 0.692731 18.7754 0.782177L19.4554 1.4622ZM1.48675 18.0708C1.3064 18.2512 1.20508 18.4958 1.20508 18.7509C1.20508 19.0059 1.3064 19.2505 1.48675 19.4309C1.6671 19.6112 1.91172 19.7126 2.16677 19.7126C2.42183 19.7126 2.66644 19.6112 2.84679 19.4309L1.48675 18.0708ZM9.85062 37H29.0602V35.079H9.85062V37ZM33.8627 32.1976V14.9089H31.9417V32.1976H33.8627ZM6.96918 32.1976V14.9089H5.04822V32.1976H6.96918ZM37.4241 18.0708L20.1355 0.782177L18.7754 2.14222L36.0641 19.4309L37.4241 18.0708ZM18.7754 0.782177L1.48675 18.0708L2.84679 19.4309L20.1355 2.14222L18.7754 0.782177ZM29.0602 37C30.3339 37 31.5554 36.494 32.4561 35.5934C33.3567 34.6928 33.8627 33.4713 33.8627 32.1976H31.9417C31.9417 32.9618 31.6381 33.6947 31.0977 34.2351C30.5574 34.7755 29.8245 35.079 29.0602 35.079V37ZM9.85062 35.079C9.08642 35.079 8.35351 34.7755 7.81313 34.2351C7.27276 33.6947 6.96918 32.9618 6.96918 32.1976H5.04822C5.04822 33.4713 5.55418 34.6928 6.45481 35.5934C7.35543 36.494 8.57694 37 9.85062 37V35.079Z"/>
</mask>
<path d="M33.8627 14.9089C33.8627 14.6542 33.7615 14.4099 33.5813 14.2298C33.4012 14.0496 33.1569 13.9485 32.9022 13.9485C32.6474 13.9485 32.4031 14.0496 32.223 14.2298C32.0429 14.4099 31.9417 14.6542 31.9417 14.9089H33.8627ZM6.96918 14.9089C6.96918 14.6542 6.86798 14.4099 6.68786 14.2298C6.50773 14.0496 6.26343 13.9485 6.0087 13.9485C5.75396 13.9485 5.50966 14.0496 5.32953 14.2298C5.14941 14.4099 5.04822 14.6542 5.04822 14.9089H6.96918ZM36.0641 19.4309C36.2444 19.6112 36.489 19.7126 36.7441 19.7126C36.9992 19.7126 37.2438 19.6112 37.4241 19.4309C37.6045 19.2505 37.7058 19.0059 37.7058 18.7509C37.7058 18.4958 37.6045 18.2512 37.4241 18.0708L36.0641 19.4309ZM19.4554 1.4622L20.1355 0.782177C20.0462 0.692731 19.9402 0.621765 19.8236 0.573345C19.7069 0.524924 19.5818 0.5 19.4554 0.5C19.3291 0.5 19.204 0.524924 19.0873 0.573345C18.9706 0.621765 18.8646 0.692731 18.7754 0.782177L19.4554 1.4622ZM1.48675 18.0708C1.3064 18.2512 1.20508 18.4958 1.20508 18.7509C1.20508 19.0059 1.3064 19.2505 1.48675 19.4309C1.6671 19.6112 1.91172 19.7126 2.16677 19.7126C2.42183 19.7126 2.66644 19.6112 2.84679 19.4309L1.48675 18.0708ZM9.85062 37H29.0602V35.079H9.85062V37ZM33.8627 32.1976V14.9089H31.9417V32.1976H33.8627ZM6.96918 32.1976V14.9089H5.04822V32.1976H6.96918ZM37.4241 18.0708L20.1355 0.782177L18.7754 2.14222L36.0641 19.4309L37.4241 18.0708ZM18.7754 0.782177L1.48675 18.0708L2.84679 19.4309L20.1355 2.14222L18.7754 0.782177ZM29.0602 37C30.3339 37 31.5554 36.494 32.4561 35.5934C33.3567 34.6928 33.8627 33.4713 33.8627 32.1976H31.9417C31.9417 32.9618 31.6381 33.6947 31.0977 34.2351C30.5574 34.7755 29.8245 35.079 29.0602 35.079V37ZM9.85062 35.079C9.08642 35.079 8.35351 34.7755 7.81313 34.2351C7.27276 33.6947 6.96918 32.9618 6.96918 32.1976H5.04822C5.04822 33.4713 5.55418 34.6928 6.45481 35.5934C7.35543 36.494 8.57694 37 9.85062 37V35.079Z" fill="white"/>
<path d="M31.9417 15.0589H33.8627V14.7589H31.9417V15.0589ZM5.04822 15.0589H6.96918V14.7589H5.04822V15.0589ZM37.3181 17.9648L35.958 19.3248L36.1701 19.5369L37.5302 18.1769L37.3181 17.9648ZM2.95286 19.3248L1.59282 17.9648L1.38069 18.1769L2.74073 19.5369L2.95286 19.3248ZM29.2102 37V35.079H28.9102V37H29.2102ZM9.70062 35.079V37H10.0006V35.079H9.70062ZM31.9417 32.3476H33.8627V32.0476H31.9417V32.3476ZM5.04822 32.3476H6.96918V32.0476H5.04822V32.3476ZM36.0641 19.4309L35.8519 19.643L36.0641 19.4309ZM36.7441 19.7126V19.4126V19.7126ZM37.4241 18.0708L37.6362 17.8587L37.4241 18.0708ZM19.4554 1.4622L19.2433 1.67433L19.4554 1.88646L19.6676 1.67433L19.4554 1.4622ZM19.4554 0.5V0.8V0.5ZM1.48675 18.0708L1.27462 17.8587L1.48675 18.0708ZM1.20508 18.7509H1.50508H1.20508ZM2.16677 19.7126V20.0126V19.7126ZM2.84679 19.4309L2.63466 19.2187L2.84679 19.4309ZM33.8627 32.1976H34.1627H33.8627ZM5.04822 32.1976H4.74822H5.04822ZM18.7754 2.14222L18.5633 1.93009L18.3511 2.14222L18.5633 2.35435L18.7754 2.14222ZM20.1355 2.14222L20.3476 2.35435L20.5597 2.14222L20.3476 1.93009L20.1355 2.14222ZM34.1627 14.9089C34.1627 14.5746 34.0299 14.254 33.7935 14.0176L33.3692 14.4419C33.4931 14.5658 33.5626 14.7338 33.5626 14.9089H34.1627ZM33.7935 14.0176C33.5571 13.7813 33.2365 13.6485 32.9022 13.6485V14.2485C33.0773 14.2485 33.2453 14.318 33.3692 14.4419L33.7935 14.0176ZM32.9022 13.6485C32.5679 13.6485 32.2473 13.7813 32.0109 14.0176L32.4351 14.4419C32.559 14.318 32.727 14.2485 32.9022 14.2485V13.6485ZM32.0109 14.0176C31.7745 14.254 31.6417 14.5746 31.6417 14.9089H32.2417C32.2417 14.7338 32.3113 14.5658 32.4351 14.4419L32.0109 14.0176ZM7.26918 14.9089C7.26918 14.5746 7.13638 14.254 6.89999 14.0176L6.47573 14.4419C6.59959 14.5658 6.66918 14.7338 6.66918 14.9089H7.26918ZM6.89999 14.0176C6.66361 13.7813 6.343 13.6485 6.0087 13.6485V14.2485C6.18387 14.2485 6.35186 14.318 6.47573 14.4419L6.89999 14.0176ZM6.0087 13.6485C5.6744 13.6485 5.35379 13.7813 5.1174 14.0176L5.54167 14.4419C5.66553 14.318 5.83353 14.2485 6.0087 14.2485V13.6485ZM5.1174 14.0176C4.88102 14.254 4.74822 14.5746 4.74822 14.9089H5.34822C5.34822 14.7338 5.4178 14.5658 5.54167 14.4419L5.1174 14.0176ZM35.8519 19.643C36.0886 19.8796 36.4095 20.0126 36.7441 20.0126V19.4126C36.5686 19.4126 36.4003 19.3428 36.2762 19.2187L35.8519 19.643ZM36.7441 20.0126C37.0787 20.0126 37.3996 19.8796 37.6362 19.643L37.212 19.2187C37.0879 19.3428 36.9196 19.4126 36.7441 19.4126V20.0126ZM37.6362 19.643C37.8729 19.4064 38.0058 19.0855 38.0058 18.7509H37.4058C37.4058 18.9263 37.3361 19.0947 37.212 19.2187L37.6362 19.643ZM38.0058 18.7509C38.0058 18.4162 37.8729 18.0953 37.6362 17.8587L37.212 18.283C37.3361 18.4071 37.4058 18.5754 37.4058 18.7509H38.0058ZM19.6676 1.67433L20.3476 0.994309L19.9233 0.570045L19.2433 1.25007L19.6676 1.67433ZM20.3479 0.570314C20.2308 0.452929 20.0917 0.359798 19.9385 0.296254L19.7086 0.850436C19.7888 0.883733 19.8617 0.932534 19.9231 0.994041L20.3479 0.570314ZM19.9385 0.296254C19.7854 0.232709 19.6212 0.2 19.4554 0.2V0.8C19.5423 0.8 19.6283 0.817139 19.7086 0.850436L19.9385 0.296254ZM19.4554 0.2C19.2896 0.2 19.1255 0.232709 18.9723 0.296254L19.2023 0.850436C19.2825 0.817139 19.3686 0.8 19.4554 0.8V0.2ZM18.9723 0.296254C18.8192 0.359798 18.6801 0.452929 18.563 0.570314L18.9878 0.994041C19.0492 0.932534 19.122 0.883733 19.2023 0.850436L18.9723 0.296254ZM18.5633 0.994309L19.2433 1.67433L19.6676 1.25007L18.9875 0.570045L18.5633 0.994309ZM1.27462 17.8587C1.03801 18.0953 0.905078 18.4162 0.905078 18.7509H1.50508C1.50508 18.5754 1.57479 18.4071 1.69888 18.283L1.27462 17.8587ZM0.905078 18.7509C0.905078 19.0855 1.03801 19.4064 1.27462 19.643L1.69888 19.2187C1.57479 19.0947 1.50508 18.9263 1.50508 18.7509H0.905078ZM1.27462 19.643C1.51123 19.8796 1.83215 20.0126 2.16677 20.0126V19.4126C1.99128 19.4126 1.82298 19.3428 1.69888 19.2187L1.27462 19.643ZM2.16677 20.0126C2.50139 20.0126 2.82231 19.8796 3.05893 19.643L2.63466 19.2187C2.51057 19.3428 2.34227 19.4126 2.16677 19.4126V20.0126ZM9.85062 37.3H29.0602V36.7H9.85062V37.3ZM29.0602 34.779H9.85062V35.379H29.0602V34.779ZM34.1627 32.1976V14.9089H33.5626V32.1976H34.1627ZM31.6417 14.9089V32.1976H32.2417V14.9089H31.6417ZM7.26918 32.1976V14.9089H6.66918V32.1976H7.26918ZM4.74822 14.9089V32.1976H5.34822V14.9089H4.74822ZM37.6362 17.8587L20.3476 0.570045L19.9233 0.994309L37.212 18.283L37.6362 17.8587ZM19.9233 0.570045L18.5633 1.93009L18.9875 2.35435L20.3476 0.994309L19.9233 0.570045ZM18.5633 2.35435L35.8519 19.643L36.2762 19.2187L18.9875 1.93009L18.5633 2.35435ZM18.5633 0.570045L1.27462 17.8587L1.69888 18.283L18.9875 0.994309L18.5633 0.570045ZM3.05893 19.643L20.3476 2.35435L19.9233 1.93009L2.63466 19.2187L3.05893 19.643ZM20.3476 1.93009L18.9875 0.570045L18.5633 0.994309L19.9233 2.35435L20.3476 1.93009ZM29.0602 37.3C30.4135 37.3 31.7113 36.7624 32.6682 35.8055L32.2439 35.3813C31.3996 36.2256 30.2544 36.7 29.0602 36.7V37.3ZM32.6682 35.8055C33.6251 34.8487 34.1627 33.5508 34.1627 32.1976H33.5626C33.5626 33.3917 33.0883 34.5369 32.2439 35.3813L32.6682 35.8055ZM31.6417 32.1976C31.6417 32.8822 31.3697 33.5388 30.8856 34.0229L31.3099 34.4472C31.9065 33.8506 32.2417 33.0414 32.2417 32.1976H31.6417ZM30.8856 34.0229C30.4015 34.5071 29.7449 34.779 29.0602 34.779V35.379C29.904 35.379 30.7132 35.0438 31.3099 34.4472L30.8856 34.0229ZM9.85062 34.779C9.16598 34.779 8.50938 34.5071 8.02527 34.0229L7.601 34.4472C8.19764 35.0438 9.00685 35.379 9.85062 35.379V34.779ZM8.02527 34.0229C7.54115 33.5388 7.26918 32.8822 7.26918 32.1976H6.66918C6.66918 33.0414 7.00436 33.8506 7.601 34.4472L8.02527 34.0229ZM4.74822 32.1976C4.74822 33.5508 5.28579 34.8487 6.24268 35.8055L6.66694 35.3813C5.82258 34.5369 5.34822 33.3917 5.34822 32.1976H4.74822ZM6.24268 35.8055C7.19956 36.7624 8.49738 37.3 9.85062 37.3V36.7C8.65651 36.7 7.5113 36.2256 6.66694 35.3813L6.24268 35.8055Z" fill="white" mask="url(#path-1-outside-1_1_469)"/>
<path d="M22.949 16.8303C21.4821 16.8303 20.2065 17.5076 19.4563 18.6425C18.7061 17.5076 17.4306 16.8303 15.9637 16.8303C14.8525 16.8316 13.7872 17.2842 13.0015 18.0886C12.2157 18.893 11.7738 19.9836 11.7725 21.1213C11.7725 23.2095 13.0438 25.3829 15.5515 27.5799C16.7006 28.5823 17.9419 29.4685 19.2579 30.2259C19.3189 30.2595 19.3871 30.2771 19.4563 30.2771C19.5255 30.2771 19.5937 30.2595 19.6547 30.2259C20.9707 29.4685 22.212 28.5823 23.3611 27.5799C25.8688 25.3829 27.1402 23.2095 27.1402 21.1213C27.1389 19.9836 26.6969 18.893 25.9112 18.0886C25.1254 17.2842 24.0601 16.8316 22.949 16.8303ZM19.4563 29.3535C18.31 28.6762 12.6107 25.1061 12.6107 21.1213C12.6116 20.2111 12.9652 19.3386 13.5938 18.695C14.2224 18.0514 15.0747 17.6895 15.9637 17.6885C17.3803 17.6885 18.5699 18.463 19.0686 19.7103C19.1002 19.789 19.1539 19.8563 19.2229 19.9037C19.292 19.951 19.3732 19.9763 19.4563 19.9763C19.5394 19.9763 19.6206 19.951 19.6897 19.9037C19.7587 19.8563 19.8124 19.789 19.844 19.7103C20.3427 18.463 21.5323 17.6885 22.949 17.6885C23.8379 17.6895 24.6902 18.0514 25.3188 18.695C25.9474 19.3386 26.301 20.2111 26.3019 21.1213C26.3019 25.1061 20.6026 28.6762 19.4563 29.3535Z" fill="white"/>
<path d="M22.949 16.8303L22.9496 16.3303H22.949V16.8303ZM19.4563 18.6425L19.0392 18.9182L19.4563 19.5493L19.8734 18.9182L19.4563 18.6425ZM15.9637 16.8303V16.3303L15.9631 16.3303L15.9637 16.8303ZM11.7725 21.1213L11.2725 21.1207V21.1213H11.7725ZM15.5515 27.5799L15.222 27.9559L15.2228 27.9566L15.5515 27.5799ZM19.2579 30.2259L19.0085 30.6594L19.0169 30.664L19.2579 30.2259ZM19.6547 30.2259L19.8957 30.6641L19.9041 30.6593L19.6547 30.2259ZM23.3611 27.5799L23.6898 27.9566L23.6906 27.9559L23.3611 27.5799ZM27.1402 21.1213H27.6402L27.6402 21.1207L27.1402 21.1213ZM19.4563 29.3535L19.202 29.7839L19.4563 29.9342L19.7106 29.7839L19.4563 29.3535ZM12.6107 21.1213L12.1107 21.1208V21.1213H12.6107ZM15.9637 17.6885V17.1885L15.9631 17.1885L15.9637 17.6885ZM19.0686 19.7103L18.6044 19.8959L18.6046 19.8964L19.0686 19.7103ZM19.844 19.7103L20.308 19.8964L20.3083 19.8959L19.844 19.7103ZM22.949 17.6885L22.9495 17.1885H22.949V17.6885ZM26.3019 21.1213H26.8019L26.8019 21.1208L26.3019 21.1213ZM22.949 16.3303C21.3235 16.3303 19.887 17.0842 19.0392 18.3668L19.8734 18.9182C20.526 17.9309 21.6406 17.3303 22.949 17.3303V16.3303ZM19.8734 18.3668C19.0256 17.0842 17.5891 16.3303 15.9637 16.3303V17.3303C17.272 17.3303 18.3866 17.9309 19.0392 18.9182L19.8734 18.3668ZM15.9631 16.3303C14.7156 16.3318 13.5222 16.8399 12.6438 17.7392L13.3591 18.4379C14.0522 17.7284 14.9893 17.3315 15.9642 17.3303L15.9631 16.3303ZM12.6438 17.7392C11.7658 18.6381 11.2739 19.8544 11.2725 21.1207L12.2725 21.1218C12.2736 20.1129 12.6657 19.1479 13.3591 18.4379L12.6438 17.7392ZM11.2725 21.1213C11.2725 23.4207 12.6695 25.7197 15.222 27.9559L15.881 27.2038C13.4181 25.0461 12.2725 22.9984 12.2725 21.1213H11.2725ZM15.2228 27.9566C16.3964 28.9804 17.6642 29.8855 19.0085 30.6593L19.5073 29.7926C18.2196 29.0515 17.0049 28.1843 15.8802 27.2031L15.2228 27.9566ZM19.0169 30.664C19.1513 30.738 19.3023 30.7771 19.4563 30.7771V29.7771C19.4718 29.7771 19.4865 29.781 19.4989 29.7879L19.0169 30.664ZM19.4563 30.7771C19.6103 30.7771 19.7613 30.738 19.8957 30.664L19.4137 29.7879C19.4261 29.781 19.4408 29.7771 19.4563 29.7771V30.7771ZM19.9041 30.6593C21.2485 29.8855 22.5163 28.9804 23.6898 27.9566L23.0324 27.2031C21.9077 28.1843 20.693 29.0515 19.4053 29.7926L19.9041 30.6593ZM23.6906 27.9559C26.2432 25.7197 27.6402 23.4207 27.6402 21.1213H26.6402C26.6402 22.9984 25.4945 25.0461 23.0316 27.2038L23.6906 27.9559ZM27.6402 21.1207C27.6387 19.8544 27.1469 18.6381 26.2688 17.7392L25.5535 18.4379C26.2469 19.1479 26.639 20.1129 26.6402 21.1218L27.6402 21.1207ZM26.2688 17.7392C25.3905 16.8399 24.197 16.3318 22.9496 16.3303L22.9484 17.3303C23.9233 17.3315 24.8604 17.7284 25.5535 18.4379L26.2688 17.7392ZM19.7106 28.923C19.1508 28.5922 17.4754 27.5521 15.9463 26.1135C14.3931 24.6523 13.1107 22.8911 13.1107 21.1213H12.1107C12.1107 23.3363 13.678 25.3526 15.261 26.8419C16.8681 28.3538 18.6156 29.4375 19.202 29.7839L19.7106 28.923ZM13.1107 21.1218C13.1115 20.3403 13.4152 19.5934 13.9515 19.0444L13.2361 18.3456C12.5152 19.0837 12.1118 20.0819 12.1107 21.1208L13.1107 21.1218ZM13.9515 19.0444C14.4874 18.4957 15.2115 18.1893 15.9642 18.1885L15.9631 17.1885C14.9379 17.1896 13.9574 17.6072 13.2361 18.3456L13.9515 19.0444ZM15.9637 18.1885C17.1905 18.1885 18.1869 18.8518 18.6044 19.8959L19.5329 19.5246C18.9529 18.0742 17.57 17.1885 15.9637 17.1885V18.1885ZM18.6046 19.8964C18.6724 20.0655 18.7885 20.2119 18.94 20.3159L19.5059 19.4914C19.5193 19.5006 19.528 19.5125 19.5327 19.5241L18.6046 19.8964ZM18.94 20.3159C19.0917 20.42 19.2714 20.4763 19.4563 20.4763V19.4763C19.475 19.4763 19.4923 19.4821 19.5059 19.4914L18.94 20.3159ZM19.4563 20.4763C19.6412 20.4763 19.8209 20.42 19.9726 20.3159L19.4068 19.4914C19.4203 19.4821 19.4376 19.4763 19.4563 19.4763V20.4763ZM19.9726 20.3159C20.1241 20.2119 20.2402 20.0655 20.308 19.8964L19.38 19.5241C19.3846 19.5125 19.3933 19.5006 19.4068 19.4914L19.9726 20.3159ZM20.3083 19.8959C20.7258 18.8518 21.7221 18.1885 22.949 18.1885V17.1885C21.3426 17.1885 19.9597 18.0742 19.3797 19.5246L20.3083 19.8959ZM22.9484 18.1885C23.7011 18.1893 24.4252 18.4957 24.9612 19.0444L25.6765 18.3456C24.9552 17.6072 23.9747 17.1896 22.9495 17.1885L22.9484 18.1885ZM24.9612 19.0444C25.4975 19.5934 25.8011 20.3403 25.8019 21.1218L26.8019 21.1208C26.8009 20.0819 26.3974 19.0837 25.6765 18.3456L24.9612 19.0444ZM25.8019 21.1213C25.8019 22.8911 24.5196 24.6523 22.9664 26.1135C21.4372 27.5521 19.7618 28.5922 19.202 28.923L19.7106 29.7839C20.2971 29.4375 22.0445 28.3538 23.6516 26.8419C25.2346 25.3526 26.8019 23.3363 26.8019 21.1213H25.8019Z" fill="white"/>
</svg>
