<svg width="24" height="29" viewBox="0 0 24 29" fill="none" xmlns="http://www.w3.org/2000/svg">
<path d="M12 10.8017C10.5863 10.8017 9.37543 10.2975 8.36743 9.28907C7.35943 8.28064 6.856 7.06733 6.85714 5.64914C6.85829 4.23094 7.36171 3.01877 8.36743 2.01264C9.37314 1.00651 10.584 0.502297 12 0.500008C13.416 0.497718 14.6269 1.00193 15.6326 2.01264C16.6383 3.02335 17.1417 4.23609 17.1429 5.65085C17.144 7.06562 16.6406 8.27778 15.6326 9.28735C14.6246 10.2969 13.4137 10.8017 12 10.8017ZM12 9.08475C12.9429 9.08475 13.7503 8.74823 14.4223 8.07518C15.0943 7.40214 15.4297 6.59403 15.4286 5.65085C15.4274 4.70768 15.092 3.89899 14.4223 3.2248C13.7526 2.55062 12.9451 2.21467 12 2.21696C11.0549 2.21924 10.248 2.5552 9.57943 3.2248C8.91086 3.89441 8.57486 4.7031 8.57143 5.65085C8.568 6.59861 8.904 7.40672 9.57943 8.07518C10.2549 8.74365 11.0617 9.08017 12 9.08475ZM0 28.5V19.7401C0 19.0305 0.202286 18.3666 0.606857 17.7485C1.01029 17.1304 1.56857 16.6485 2.28171 16.3028C3.716 15.6023 5.27257 15.0386 6.95143 14.6116C8.62914 14.1847 10.312 13.9712 12 13.9712C13.688 13.9712 15.3709 14.1847 17.0486 14.6116C18.7263 15.0386 20.2829 15.6023 21.7183 16.3028C22.4314 16.6496 22.9897 17.1315 23.3931 17.7485C23.7977 18.3666 24 19.0305 24 19.7401V25.7254C24 26.5152 23.736 27.1751 23.208 27.7051C22.68 28.235 22.0211 28.5 21.2314 28.5H9C7.99429 28.5 7.15429 28.1629 6.48 27.4887C5.808 26.8157 5.472 25.9744 5.472 24.9648C5.472 23.9575 5.80857 23.1174 6.48171 22.4443C7.15371 21.7701 7.99314 21.433 9 21.433H14.2714L16.8291 16.3286C16.06 16.1042 15.2326 15.9417 14.3469 15.8409C13.4611 15.7402 12.6789 15.6893 12 15.6881C10.3611 15.6881 8.79086 15.8833 7.28914 16.2736C5.78743 16.6651 4.39371 17.1767 3.108 17.8086C2.66914 18.0169 2.32686 18.2956 2.08114 18.6447C1.83543 18.9938 1.71314 19.359 1.71429 19.7401V28.5H0ZM9 26.7831H11.6503L13.4434 23.15H9C8.504 23.15 8.07771 23.3286 7.72114 23.6857C7.36457 24.0417 7.18629 24.4686 7.18629 24.9665C7.18629 25.4633 7.36457 25.8902 7.72114 26.2474C8.07771 26.6045 8.504 26.7831 9 26.7831ZM13.5429 26.7831H21.2314C21.5389 26.7831 21.7914 26.6835 21.9891 26.4843C22.1869 26.2863 22.2857 26.0333 22.2857 25.7254V19.7401C22.2857 19.359 22.152 18.9938 21.8846 18.6447C21.6183 18.2956 21.2903 18.0169 20.9006 17.8086C20.536 17.614 20.148 17.4348 19.7366 17.2712C19.3251 17.1075 18.9137 16.9507 18.5023 16.8007L13.5429 26.7831Z" fill="white"/>
</svg>
