<svg width="24" height="24" viewBox="0 0 24 24" fill="none" xmlns="http://www.w3.org/2000/svg">
<circle cx="12" cy="12" r="12" fill="#F7F5F4"/>
<path d="M9.93947 14.2473L17.2558 6.92736C17.2559 6.92735 17.2559 6.92733 17.2559 6.92731C17.3809 6.80219 17.5293 6.70293 17.6927 6.6352C17.8561 6.56746 18.0312 6.53259 18.2081 6.53259C18.385 6.53259 18.5601 6.56746 18.7235 6.6352C18.8869 6.70293 19.0354 6.8022 19.1604 6.92733C19.1604 6.92734 19.1604 6.92735 19.1604 6.92736L18.9835 7.10405C19.189 7.30971 19.3045 7.5886 19.3045 7.8794C19.3045 8.17019 19.189 8.44909 18.9835 8.65474L9.93947 14.2473ZM9.93947 14.2473L6.75884 11.0654C6.63498 10.9376 6.48699 10.8355 6.32344 10.7652C6.15918 10.6947 5.98252 10.6575 5.80375 10.6559C5.62498 10.6544 5.4477 10.6885 5.28224 10.7562C5.11678 10.8239 4.96647 10.9239 4.84007 11.0504C4.71368 11.1768 4.61372 11.3272 4.54604 11.4927C4.47836 11.6582 4.4443 11.8355 4.44585 12.0143C4.4474 12.1931 4.48454 12.3698 4.55508 12.5341C4.62533 12.6977 4.72732 12.8457 4.85513 12.9696L9.93947 14.2473Z" fill="#2D1D46" stroke="#2D1D46" stroke-width="0.5"/>
</svg>
