<svg width="14" height="19" viewBox="0 0 14 19" fill="none" xmlns="http://www.w3.org/2000/svg">
<path d="M13.0942 4.67969C13.5161 5.10156 13.7622 5.66406 13.7622 6.26172V16C13.7622 17.2656 12.7427 18.25 11.5122 18.25H2.51221C1.24658 18.25 0.262207 17.2656 0.262207 16V2.5C0.262207 1.26953 1.24658 0.25 2.51221 0.25H7.75049C8.34814 0.25 8.91064 0.496094 9.33252 0.917969L13.0942 4.67969ZM8.13721 1.48047V5.3125C8.13721 5.62891 8.3833 5.875 8.69971 5.875H12.5317C12.4966 5.73438 12.4263 5.59375 12.2856 5.45312L8.55908 1.72656C8.41846 1.58594 8.27783 1.51562 8.13721 1.48047ZM12.6372 16V7H8.69971C7.75049 7 7.01221 6.26172 7.01221 5.3125V1.375H2.51221C1.87939 1.375 1.38721 1.90234 1.38721 2.5V16C1.38721 16.6328 1.87939 17.125 2.51221 17.125H11.5122C12.1099 17.125 12.6372 16.6328 12.6372 16ZM7.57471 8.6875V12.9766L9.40283 11.1133C9.61377 10.9023 10.0005 10.9023 10.2114 11.1133C10.4224 11.3242 10.4224 11.7109 10.2114 11.9219L7.39893 14.7344C7.18799 14.9453 6.80127 14.9453 6.59033 14.7344L3.77783 11.9219C3.56689 11.7109 3.56689 11.3242 3.77783 11.1133C3.8833 11.0078 4.02393 10.9375 4.19971 10.9375C4.34033 10.9375 4.48096 11.0078 4.58643 11.1133L6.44971 12.9766V8.6875C6.44971 8.40625 6.6958 8.125 7.01221 8.125C7.29346 8.125 7.57471 8.40625 7.57471 8.6875Z" fill="#666666"/>
</svg>
