<svg width="35" height="32" viewBox="0 0 35 32" fill="none" xmlns="http://www.w3.org/2000/svg">
<path d="M2.88313 0.211681C1.29063 0.211681 3.27176e-08 1.51484 3.27176e-08 3.12282V11.2554C-0.000209205 13.9884 1.00319 16.6244 2.81617 18.6537C4.62915 20.6829 7.12293 21.9614 9.81531 22.2418C9.11036 20.508 8.74845 18.6516 8.75 16.7773C8.75 14.9441 9.09125 13.1903 9.7125 11.5779L6.87969 8.72421C6.778 8.62153 6.69733 8.49963 6.64229 8.36547C6.58726 8.23132 6.55893 8.08753 6.55893 7.94231C6.55893 7.7971 6.58726 7.65331 6.64229 7.51915C6.69733 7.38499 6.778 7.2631 6.87969 7.16042C6.98138 7.05774 7.10211 6.97628 7.23497 6.92071C7.36784 6.86514 7.51025 6.83654 7.65406 6.83654C7.79788 6.83654 7.94028 6.86514 8.07315 6.92071C8.20602 6.97628 8.32675 7.05774 8.42844 7.16042L10.7209 9.4774C12.4529 6.52069 15.1746 4.28649 18.3947 3.17804C16.3726 1.26832 13.7062 0.207674 10.9375 0.211681H2.88313ZM13.7222 24.5521L9.0475 29.2722C8.94304 29.3741 8.85971 29.496 8.80239 29.6307C8.74507 29.7654 8.71489 29.9104 8.71363 30.057C8.71237 30.2036 8.74004 30.3491 8.79504 30.4848C8.85003 30.6205 8.93125 30.7438 9.03394 30.8475C9.13664 30.9512 9.25876 31.0332 9.39318 31.0887C9.52759 31.1443 9.67162 31.1722 9.81684 31.1709C9.96207 31.1697 10.1056 31.1392 10.239 31.0813C10.3725 31.0234 10.4932 30.9393 10.5941 30.8338L15.2687 26.1137C17.0258 27.5914 19.1635 28.5329 21.4314 28.8279C23.6993 29.123 26.0035 28.7593 28.0741 27.7796C30.1447 26.7998 31.8959 25.2445 33.1225 23.296C34.3491 21.3474 35.0004 19.0862 35 16.7773V7.74353C35 6.0207 33.6219 4.62919 31.9156 4.62919H22.9688C20.6821 4.62879 18.4427 5.28639 16.5128 6.52493C14.583 7.76347 13.0427 9.53167 12.0724 11.6224C11.102 13.7131 10.7419 16.0397 11.0341 18.3296C11.3263 20.6196 12.2587 22.778 13.7222 24.5521ZM23.7409 17.5592L16.8241 24.5433C16.2527 24.0824 15.734 23.5586 15.2775 22.9817L22.1944 15.9954C22.3995 15.7881 22.6777 15.6714 22.968 15.6712C23.2582 15.671 23.5367 15.7872 23.742 15.9943C23.9474 16.2014 24.0629 16.4824 24.0631 16.7754C24.0633 17.0685 23.9482 17.3496 23.7431 17.557" fill="#498260"/>
</svg>
