<svg width="19" height="24" viewBox="0 0 19 24" fill="none" xmlns="http://www.w3.org/2000/svg">
<path fill-rule="evenodd" clip-rule="evenodd" d="M9.79331 22.3039C11.1591 21.0768 12.4231 19.7431 13.5731 18.3156C15.9956 15.302 17.4693 12.3307 17.5691 9.68865C17.6085 8.6149 17.429 7.54428 17.0413 6.54076C16.6535 5.53723 16.0654 4.62139 15.3122 3.84793C14.559 3.07448 13.656 2.45928 12.6573 2.03909C11.6586 1.6189 10.5846 1.40233 9.49941 1.40233C8.41426 1.40233 7.34024 1.6189 6.34151 2.03909C5.34278 2.45928 4.43983 3.07448 3.6866 3.84793C2.93337 4.62139 2.34531 5.53723 1.95755 6.54076C1.56978 7.54428 1.39028 8.6149 1.42975 9.68865C1.53069 12.3307 3.00556 15.302 5.42687 18.3156C6.57692 19.7431 7.84093 21.0768 9.20669 22.3039C9.3381 22.4215 9.43587 22.5069 9.5 22.5602L9.79331 22.3039ZM8.62362 23.6737C8.62362 23.6737 0 16.4825 0 9.40646C0 6.91171 1.00089 4.51914 2.78249 2.75509C4.56408 0.991035 6.98044 0 9.5 0C12.0196 0 14.4359 0.991035 16.2175 2.75509C17.9991 4.51914 19 6.91171 19 9.40646C19 16.4825 10.3764 23.6737 10.3764 23.6737C9.89662 24.1111 9.10694 24.1064 8.62362 23.6737ZM9.5 12.6987C10.3818 12.6987 11.2276 12.3519 11.8511 11.7344C12.4747 11.117 12.825 10.2796 12.825 9.40646C12.825 8.5333 12.4747 7.6959 11.8511 7.07848C11.2276 6.46106 10.3818 6.1142 9.5 6.1142C8.61816 6.1142 7.77243 6.46106 7.14887 7.07848C6.52531 7.6959 6.175 8.5333 6.175 9.40646C6.175 10.2796 6.52531 11.117 7.14887 11.7344C7.77243 12.3519 8.61816 12.6987 9.5 12.6987ZM9.5 14.1097C8.24022 14.1097 7.03204 13.6142 6.14124 12.7321C5.25044 11.8501 4.75 10.6538 4.75 9.40646C4.75 8.15909 5.25044 6.9628 6.14124 6.08077C7.03204 5.19875 8.24022 4.70323 9.5 4.70323C10.7598 4.70323 11.968 5.19875 12.8588 6.08077C13.7496 6.9628 14.25 8.15909 14.25 9.40646C14.25 10.6538 13.7496 11.8501 12.8588 12.7321C11.968 13.6142 10.7598 14.1097 9.5 14.1097Z" fill="#2D1D46"/>
</svg>
