<svg width="22" height="20" viewBox="0 0 22 20" fill="none" xmlns="http://www.w3.org/2000/svg">
<path d="M4.5 2.96152L4.00486 2.89198L4 2.92658V2.96152H4.5ZM1.00415 2.86133V3.36133H1.54297L1.50276 2.82401L1.00415 2.86133ZM1 2.86133V2.36133H0.5V2.86133H1ZM6.5 14.1613H7V13.8816L6.76161 13.7352L6.5 14.1613ZM6.5 18.8613H6V19.3613H6.5V18.8613ZM21.5 18.8613V19.3613H22V18.8613H21.5ZM16.3284 4.0329L16.682 3.67935L16.682 3.67935L16.3284 4.0329ZM16.3284 9.68976L16.682 10.0433V10.0433L16.3284 9.68976ZM10.6716 9.68976L11.0251 9.3362H11.0251L10.6716 9.68976ZM4.01473 2.75C4.01473 2.79837 4.01135 2.84574 4.00486 2.89198L4.99514 3.03106C5.00809 2.93886 5.01473 2.84502 5.01473 2.75H4.01473ZM2.76709 1.63867C3.50381 1.63867 4.01473 2.17177 4.01473 2.75H5.01473C5.01473 1.54841 3.98224 0.638672 2.76709 0.638672V1.63867ZM1.5 2.75C1.5 2.17865 2.02287 1.63867 2.76709 1.63867V0.638672C1.55943 0.638672 0.5 1.54152 0.5 2.75H1.5ZM1.50276 2.82401C1.50093 2.79963 1.5 2.77495 1.5 2.75H0.5C0.5 2.79989 0.501865 2.84946 0.505546 2.89864L1.50276 2.82401ZM1.00415 2.36133H1V3.36133H1.00415V2.36133ZM0.5 2.86133V4.36133H1.5V2.86133H0.5ZM0.5 4.36133C0.5 8.69351 2.80754 12.4809 6.23839 14.5874L6.76161 13.7352C3.61246 11.8017 1.5 8.32914 1.5 4.36133H0.5ZM6 14.1613V18.8613H7V14.1613H6ZM6.5 19.3613H21.5V18.3613H6.5V19.3613ZM22 18.8613V16.8613H21V18.8613H22ZM22 16.8613C22 16.0127 21.5709 15.3063 20.9646 14.7467C20.3617 14.1902 19.5508 13.7457 18.6872 13.3997C16.9607 12.7081 14.8975 12.3613 13.5 12.3613V13.3613C14.7725 13.3613 16.7093 13.6846 18.3153 14.328C19.1179 14.6495 19.8065 15.0387 20.2864 15.4816C20.7628 15.9213 21 16.38 21 16.8613H22ZM13.5 12.3613H13.25V13.3613H13.5V12.3613ZM13.25 12.3613C8.76676 12.3613 5 8.5759 5 4.36133H4C4 9.14676 8.23324 13.3613 13.25 13.3613V12.3613ZM5 4.36133V2.96152H4V4.36133H5ZM13.5 2.36133C12.3065 2.36133 11.1619 2.83543 10.318 3.67935L11.0251 4.38645C11.6815 3.73008 12.5717 3.36133 13.5 3.36133V2.36133ZM16.682 3.67935C15.8381 2.83543 14.6935 2.36133 13.5 2.36133V3.36133C14.4283 3.36133 15.3185 3.73008 15.9749 4.38645L16.682 3.67935ZM18 6.86133C18 5.66785 17.5259 4.52326 16.682 3.67935L15.9749 4.38645C16.6313 5.04283 17 5.93307 17 6.86133H18ZM16.682 10.0433C17.5259 9.1994 18 8.0548 18 6.86133H17C17 7.78959 16.6313 8.67982 15.9749 9.3362L16.682 10.0433ZM13.5 11.3613C14.6935 11.3613 15.8381 10.8872 16.682 10.0433L15.9749 9.3362C15.3185 9.99258 14.4283 10.3613 13.5 10.3613V11.3613ZM10.318 10.0433C11.1619 10.8872 12.3065 11.3613 13.5 11.3613V10.3613C12.5717 10.3613 11.6815 9.99258 11.0251 9.3362L10.318 10.0433ZM9 6.86133C9 8.0548 9.4741 9.1994 10.318 10.0433L11.0251 9.3362C10.3687 8.67982 10 7.78959 10 6.86133H9ZM10.318 3.67935C9.4741 4.52326 9 5.66785 9 6.86133H10C10 5.93307 10.3687 5.04283 11.0251 4.38645L10.318 3.67935Z" fill="#211F54"/>
</svg>
