<svg width="29" height="29" viewBox="0 0 29 29" fill="none" xmlns="http://www.w3.org/2000/svg">
<path d="M17.1999 5.04988C16.5249 5.72488 15.1708 5.60608 13.1498 3.93747M13.1498 3.93747C13.4486 3.69267 13.7587 3.41097 14.08 3.09237C17.1931 0.00895195 21.4322 0.612405 23.4181 3.09237C24.2632 4.14807 25.9196 6.17173 25.0583 11.1249M13.1498 3.93747C12.851 3.69267 12.541 3.41097 12.2197 3.09237C9.10654 0.00895195 4.8675 0.612405 2.88162 3.09237C1.51001 4.80688 -2.00003 9.0729 6.59146 24.274C6.94787 24.9031 7.65663 25.3 8.41938 25.3C9.6371 25.3 10.5889 24.328 10.628 23.194C10.6901 21.4349 11.0303 19.4747 11.9794 18.5499M19.8999 21.25L20.8233 22.1734C21.0218 22.3718 21.1217 22.4717 21.2418 22.465C21.3633 22.4582 21.4511 22.3489 21.6266 22.1288L23.95 19.225M15.8499 19.1629V19.684C15.8499 21.3067 15.8499 22.118 16.0497 22.8605C16.2993 23.7815 16.7691 24.6279 17.4186 25.327C17.9451 25.8967 18.6417 26.3395 20.0336 27.2264C20.6559 27.6233 20.9678 27.8218 21.2999 27.9149C21.7089 28.0284 22.1423 28.0284 22.5513 27.9149C22.8821 27.8218 23.1939 27.6233 23.8163 27.2264C25.2082 26.3395 25.9048 25.8967 26.4313 25.327C27.0808 24.6279 27.5506 23.7815 27.8002 22.8605C28 22.118 28 21.308 28 19.684V19.1629C28 18.153 28 17.6481 27.8083 17.2215C27.688 16.9582 27.519 16.72 27.3101 16.5195C26.9686 16.1955 26.4839 16.0173 25.5146 15.6623L23.5247 14.9333C22.7336 14.6444 22.338 14.4999 21.9249 14.4999C21.5118 14.4999 21.1163 14.6444 20.3252 14.9346L18.3352 15.6636C17.3659 16.0173 16.8813 16.1942 16.5397 16.5195C16.3304 16.7199 16.1609 16.9581 16.0402 17.2215C15.8499 17.6481 15.8499 18.153 15.8499 19.1629Z" stroke="white" stroke-width="1.5" stroke-linecap="round" stroke-linejoin="round"/>
</svg>
