<svg width="24" height="26" viewBox="0 0 24 26" fill="none" xmlns="http://www.w3.org/2000/svg">
<path fill-rule="evenodd" clip-rule="evenodd" d="M12.4502 3.19487C12.3925 3.19547 12.2986 3.11689 12.2155 3.00606C12.1355 2.89181 12.0555 2.8004 12.0327 2.80612C12.0041 2.80612 11.987 2.76613 11.987 2.72042C11.987 2.67472 11.9698 2.63473 11.947 2.63473C11.9184 2.64044 11.8327 2.54333 11.7528 2.42336C11.6671 2.30339 11.5014 2.09773 11.3814 1.96634C11.2557 1.82923 11.0958 1.62928 11.0158 1.51503C10.9358 1.40648 10.7816 1.22368 10.673 1.11513C10.5645 1.00659 10.4217 0.920898 10.3588 0.920898C10.296 0.920898 10.2046 0.949462 10.1589 0.978026C10.1132 1.00659 9.99894 1.03515 9.90182 1.03515C9.8047 1.03515 9.48479 1.09799 9.18772 1.17226C8.89066 1.24653 8.49076 1.36078 8.30224 1.42362C8.00518 1.52074 7.95947 1.55502 7.94234 1.68641C7.93662 1.78924 7.95947 1.83494 8.0166 1.83494C8.0623 1.83494 8.10229 1.86351 8.10229 1.89207C8.10229 1.92063 8.18798 2.05774 8.29081 2.19485C8.38793 2.32624 8.53647 2.49763 8.61644 2.57189C8.69642 2.65187 8.78211 2.7547 8.81639 2.81183C8.85067 2.86324 8.92493 2.9775 8.98206 3.0689C9.0449 3.16031 9.15916 3.29741 9.23914 3.37739C9.31912 3.45737 9.50192 3.67446 9.63903 3.86298C9.77614 4.0515 9.92467 4.24574 9.96466 4.29144C9.9971 4.32387 10.09 4.43689 10.2004 4.57124L10.2005 4.57135L10.2006 4.57155L10.201 4.57196C10.2459 4.6267 10.2938 4.68496 10.3417 4.74275C10.5074 4.9427 10.7016 5.18263 10.7702 5.28546C10.833 5.38258 10.993 5.5711 11.1244 5.70249C11.2557 5.8396 11.3586 5.97671 11.3586 6.00527C11.3586 6.03384 11.3757 6.0624 11.4043 6.0624C11.4271 6.05669 11.5128 6.1538 11.5928 6.27377C11.6728 6.39374 11.827 6.59369 11.9356 6.71366C12.0441 6.83934 12.2155 7.03357 12.3183 7.14212C12.3789 7.21023 12.4194 7.25579 12.4502 7.2819V3.19487ZM12.4502 10.0456C12.3923 10.0528 12.3438 10.0447 12.3298 10.0214C12.3126 9.99279 12.2269 9.86711 12.1298 9.74143C12.0327 9.62146 11.9356 9.49578 11.9127 9.4615C11.8899 9.43294 11.7927 9.31297 11.6956 9.20443C11.5985 9.09589 11.4785 8.94164 11.4271 8.86166C11.3757 8.78168 11.2786 8.656 11.21 8.57602C11.1415 8.49604 10.9987 8.33037 10.8901 8.20469C10.7873 8.07901 10.6216 7.87335 10.5302 7.74767C10.4388 7.62199 10.2903 7.42775 10.1932 7.3135C10.0961 7.20496 9.96466 7.05071 9.90182 6.97073C9.83898 6.89647 9.65617 6.66795 9.50192 6.46229C9.34197 6.26235 9.14773 6.02241 9.06204 5.93672C8.97064 5.84531 8.90208 5.75962 8.90208 5.73106C8.90208 5.70821 8.79925 5.58253 8.67357 5.44542C8.54789 5.31403 8.44506 5.17692 8.44506 5.14836C8.44506 5.11979 8.41078 5.07409 8.37079 5.04553C8.32509 5.02267 8.24511 4.93127 8.18227 4.83415C8.12514 4.73704 8.00518 4.5885 7.91948 4.49139L7.91235 4.4833C7.82664 4.38617 7.70037 4.24308 7.62813 4.14862C7.55387 4.0515 7.47389 3.93153 7.45675 3.87441C7.4339 3.82299 7.39391 3.77729 7.35963 3.77729C7.32536 3.77729 7.3025 3.7373 7.3025 3.6916C7.3025 3.64589 7.26252 3.6059 7.21681 3.6059C7.17111 3.6059 7.13112 3.58877 7.13112 3.5602C7.13683 3.53735 7.05685 3.41738 6.96545 3.2917C6.86833 3.16602 6.73694 3.00035 6.66267 2.92037C6.58841 2.84039 6.48558 2.70329 6.43416 2.61759C6.37703 2.5319 6.28563 2.46335 6.23421 2.46335C6.17709 2.46335 6.05712 2.50334 5.96 2.55475C5.86288 2.60617 5.69721 2.71471 5.58867 2.8004C5.48013 2.88609 5.32017 3.00035 5.23448 3.05176C5.14307 3.10318 5.02882 3.19458 4.96598 3.246C4.90885 3.30313 4.76603 3.41738 4.65177 3.50307C4.53752 3.59448 4.40613 3.72587 4.36042 3.80585C4.29187 3.92011 4.28616 3.97724 4.33757 4.07435C4.37756 4.14862 4.4404 4.22288 4.48039 4.24574C4.52609 4.2743 4.56037 4.33143 4.56037 4.37713C4.56037 4.42283 4.58322 4.46853 4.61179 4.47425C4.64606 4.48567 4.886 4.77702 5.1545 5.11979C5.36305 5.38603 5.56815 5.65571 5.67612 5.79766L5.74292 5.8853C5.80004 5.95957 5.95429 6.14809 6.0914 6.31376C6.13748 6.36986 6.18356 6.42526 6.22496 6.47503L6.22525 6.47538L6.22545 6.47561L6.22548 6.47565C6.30188 6.56748 6.36223 6.64004 6.37703 6.66224C6.39217 6.68494 6.45992 6.77028 6.5471 6.8801L6.54715 6.88016L6.54721 6.88024C6.59164 6.9362 6.64112 6.99852 6.69124 7.06214C6.83977 7.25066 7.03972 7.49631 7.13112 7.60485C7.22253 7.71339 7.38248 7.90763 7.48531 8.03331C7.58814 8.15899 7.69669 8.29038 7.73096 8.33037C7.76524 8.36465 7.85093 8.49033 7.93091 8.6103C8.01089 8.72456 8.15371 8.89594 8.24511 8.99877C8.34223 9.09589 8.5079 9.30155 8.61073 9.4615C8.71927 9.61575 8.82782 9.75286 8.85638 9.75857C8.87923 9.76999 8.90208 9.8157 8.90208 9.8614C8.90208 9.9071 8.93636 9.94709 8.97635 9.94709C9.01062 9.9528 9.13059 10.0671 9.23342 10.2042L9.23892 10.2123C9.33375 10.3517 9.41623 10.473 9.41623 10.4898C9.41623 10.5069 9.51335 10.6155 9.63332 10.7297C9.75329 10.8497 9.90182 11.0325 9.96466 11.1411C10.0218 11.2496 10.1475 11.421 10.2446 11.5181C10.3417 11.6209 10.4902 11.8095 10.5874 11.9408C10.6845 12.0722 10.7759 12.1751 10.8044 12.1751C10.8273 12.1751 10.8444 12.2151 10.8444 12.2608C10.8444 12.3065 10.8787 12.3579 10.9187 12.375C10.953 12.3922 11.0787 12.5464 11.1872 12.7178C11.2957 12.8892 11.4214 13.0263 11.4614 13.032C11.4957 13.032 11.53 13.0491 11.53 13.072C11.5242 13.1005 11.5871 13.1805 11.6556 13.2605C11.7299 13.3405 11.8442 13.5004 11.9184 13.6204C11.987 13.7347 12.067 13.8318 12.1012 13.8318C12.1355 13.8318 12.1584 13.8546 12.1584 13.8889C12.1584 13.9232 12.2098 13.9974 12.2726 14.0603L12.3869 14.1745C12.4085 14.1465 12.4296 14.1194 12.4502 14.0933V10.0456ZM12.4502 16.8474C12.3952 16.8882 12.3425 16.9167 12.3183 16.9167C12.2783 16.9167 12.1527 16.8196 12.0441 16.7053C11.9299 16.5853 11.7642 16.3854 11.6728 16.2597C11.5814 16.134 11.4328 15.9626 11.3472 15.877C11.2615 15.7855 11.1872 15.6941 11.1872 15.6599C11.1872 15.6256 11.1701 15.597 11.1415 15.5913C11.1186 15.5799 10.9987 15.4485 10.873 15.2885C10.7473 15.1343 10.5874 14.9401 10.5188 14.8601C10.4445 14.7801 10.3017 14.6144 10.2046 14.483C10.1477 14.4134 10.0732 14.3193 10.0016 14.2288L10.0014 14.2286L10.0013 14.2284C9.94367 14.1556 9.88795 14.0852 9.84469 14.0317C9.75329 13.9118 9.57048 13.6947 9.4448 13.5461C9.31912 13.4033 9.14202 13.1862 9.0449 13.0606C8.9535 12.9406 8.7307 12.6721 8.55932 12.4664C8.38793 12.2608 8.22226 12.0665 8.18227 12.0323C8.148 11.998 8.03374 11.8494 7.9252 11.7009C7.81665 11.5524 7.71382 11.4324 7.69097 11.4324C7.66241 11.4324 7.64527 11.4096 7.64527 11.3753C7.64527 11.341 7.53102 11.1982 7.3882 11.0497C7.24538 10.8954 7.13112 10.7526 7.13112 10.7183C7.13112 10.684 7.034 10.5698 6.91404 10.4612C6.79978 10.3527 6.63411 10.1585 6.54842 10.0328C6.46273 9.9071 6.30848 9.71287 6.19994 9.60432C6.09711 9.49578 5.88574 9.24442 5.73149 9.04447C5.57153 8.85024 5.42871 8.68457 5.40586 8.69028C5.3773 8.69028 5.36016 8.65029 5.36016 8.60459C5.36016 8.55888 5.32588 8.50176 5.28589 8.47891C5.2459 8.45034 5.13736 8.33037 5.04596 8.19898C4.94884 8.06759 4.76603 7.83907 4.63464 7.68483C4.49753 7.53058 4.26902 7.25066 4.12049 7.06214C3.96624 6.87361 3.79486 6.66795 3.73202 6.60511C3.66918 6.54227 3.51493 6.35375 3.38925 6.18808C3.26357 6.02241 3.1436 5.89102 3.12075 5.89102C3.09219 5.89102 3.07505 5.86817 3.07505 5.83389C3.07505 5.80532 3.02935 5.72535 2.97793 5.66251C2.9208 5.59966 2.86368 5.54825 2.84654 5.54825C2.8294 5.54825 2.77798 5.58253 2.72657 5.62252V5.6168C2.68087 5.65679 2.56661 5.80532 2.47521 5.94814C2.3838 6.09096 2.24669 6.30805 2.17814 6.43373C2.10388 6.55941 1.9382 6.87933 1.80681 7.14783C1.6697 7.41633 1.54402 7.63913 1.52117 7.64484C1.49261 7.65626 1.47547 7.71911 1.47547 7.78766C1.47547 7.86193 1.5783 8.0276 1.70398 8.15899C1.82966 8.2961 1.93249 8.42178 1.93249 8.44463C1.9382 8.47319 2.01818 8.58174 2.12101 8.69599C2.1939 8.77293 2.28689 8.88145 2.36334 8.97067C2.39474 9.00732 2.42336 9.04071 2.44664 9.06732L2.47172 9.09816C2.55188 9.19669 2.68622 9.36181 2.7837 9.49007C2.89224 9.63289 3.04077 9.80427 3.11504 9.87282C3.18359 9.94709 3.24643 10.0271 3.24643 10.0613C3.24643 10.0956 3.26357 10.1242 3.29213 10.1299C3.31498 10.1413 3.43495 10.2727 3.56063 10.4327C3.68632 10.5869 3.84056 10.7754 3.9034 10.8497C3.96624 10.924 4.10335 11.0782 4.20618 11.1925C4.30901 11.3124 4.43469 11.4724 4.48039 11.5581C4.52609 11.6495 4.58893 11.7181 4.6175 11.7181C4.64606 11.7181 4.67463 11.758 4.67463 11.8037C4.67463 11.8494 4.69176 11.8894 4.72033 11.8894C4.74318 11.8837 4.85172 12.0037 4.96027 12.1465C5.06881 12.2893 5.25162 12.5064 5.36016 12.6264C5.4687 12.7464 5.65151 12.9634 5.76005 13.112C5.8686 13.2548 6.05141 13.4776 6.15995 13.5976C6.26849 13.7175 6.47415 13.9632 6.61697 14.1403C6.75979 14.3174 6.89118 14.4602 6.91975 14.4602C6.9426 14.4602 6.95974 14.483 6.95974 14.5173C6.95974 14.5516 7.02258 14.643 7.09684 14.7287C7.17682 14.8201 7.45675 15.1571 7.72525 15.4885L7.82625 15.6106C8.06267 15.8964 8.27573 16.1539 8.33081 16.214C8.39365 16.2883 8.44506 16.3683 8.44506 16.4025C8.44506 16.4368 8.4622 16.4654 8.49076 16.4711C8.51361 16.4825 8.65643 16.6425 8.81068 16.831C8.97064 17.0195 9.13631 17.2137 9.18201 17.2652C9.23342 17.3166 9.40481 17.5222 9.55905 17.7165C9.71901 17.9107 9.93038 18.1564 10.0332 18.2649C10.0664 18.302 10.0983 18.3371 10.1259 18.3675L10.1263 18.3679C10.1791 18.4261 10.216 18.4668 10.216 18.4706C10.216 18.482 10.1246 18.5334 10.0046 18.5905C9.82184 18.6819 9.69616 18.6934 9.24485 18.6705C8.94779 18.6534 8.61073 18.6077 8.50219 18.5677C8.39365 18.5277 8.09087 18.3963 7.83379 18.2763C7.57101 18.1564 7.34821 18.0192 7.33107 17.9735C7.31393 17.9278 7.27965 17.8879 7.24538 17.8879C7.2111 17.8879 7.07399 17.7736 6.93117 17.6308C6.78835 17.488 6.6741 17.3623 6.6741 17.3451C6.6741 17.328 6.59983 17.248 6.51414 17.1566C6.42845 17.0709 6.27992 16.8995 6.18851 16.7739C6.09711 16.6482 5.95429 16.4654 5.86288 16.374C5.77719 16.2826 5.62295 16.0998 5.52012 15.9741C5.41157 15.8484 5.25162 15.6427 5.16021 15.517C5.06881 15.3914 4.90314 15.1857 4.79459 15.06C4.68034 14.9286 4.49182 14.7115 4.37756 14.5744C4.26331 14.4316 3.93196 14.026 3.6349 13.6718C3.34355 13.3176 3.0522 12.9577 2.98936 12.872C2.92652 12.7863 2.80083 12.6435 2.70943 12.5464C2.61803 12.455 2.46378 12.2665 2.36666 12.1294C2.26955 11.998 2.17243 11.8894 2.14958 11.8894C2.12101 11.8894 2.10388 11.8666 2.10388 11.8323C2.10388 11.798 2.00105 11.6666 1.87536 11.5295C1.74968 11.3981 1.64685 11.2725 1.64685 11.2439C1.64685 11.221 1.49261 11.0497 1.30409 10.8611C1.11556 10.6726 0.96132 10.4955 0.96132 10.4612C0.96132 10.427 0.909905 10.3813 0.847064 10.347C0.784223 10.3127 0.721383 10.2956 0.709957 10.3013C0.698532 10.3127 0.658542 10.644 0.624266 11.0439C0.589989 11.4496 0.561425 12.0665 0.567138 12.4207C0.567138 12.7692 0.595702 13.3005 0.635691 13.5861C0.687106 13.9974 0.732808 14.1574 0.847064 14.2945C0.882873 14.338 0.932425 14.3998 0.985978 14.4666L0.986247 14.4669L0.986261 14.467C1.05224 14.5493 1.12426 14.6391 1.18412 14.7115C1.28695 14.8372 1.39549 14.9515 1.42405 14.9572C1.45262 14.9686 1.47547 15.0086 1.47547 15.0429C1.48118 15.0829 1.53831 15.1686 1.60686 15.2314C1.67542 15.2943 1.83537 15.4828 1.96106 15.6484C2.08674 15.8141 2.20671 15.9455 2.23527 15.9455C2.25812 15.9455 2.27526 15.9855 2.27526 16.0312C2.27526 16.0769 2.31525 16.1169 2.36095 16.1169C2.40665 16.1169 2.46378 16.1626 2.48092 16.214C2.49806 16.2711 2.57232 16.3911 2.63516 16.4768C2.70372 16.5625 2.86939 16.751 3.00649 16.8881C3.13789 17.0309 3.24643 17.1566 3.24643 17.1738C3.24643 17.1909 3.29785 17.2709 3.3664 17.3566C3.42645 17.4439 3.56996 17.6147 3.68728 17.7543L3.70345 17.7736C3.82913 17.9164 4.01766 18.1449 4.1262 18.2877C4.24045 18.4306 4.41184 18.6419 4.51467 18.7676C4.6175 18.8876 4.886 19.1675 5.1088 19.396C5.32588 19.6188 5.58296 19.8645 5.68008 19.9387C5.77148 20.013 5.94858 20.1444 6.07426 20.2244C6.19994 20.3044 6.31419 20.3843 6.33133 20.4015C6.34847 20.4186 6.44559 20.4757 6.54842 20.5272C6.64553 20.5843 6.7655 20.63 6.80549 20.63C6.83977 20.6243 6.91404 20.6643 6.95974 20.7157C7.00544 20.7671 7.09113 20.8071 7.14826 20.8014C7.19967 20.8014 7.31393 20.8356 7.40533 20.8813C7.49103 20.9271 7.72525 21.007 7.93091 21.0699C8.22226 21.1499 8.49648 21.1727 9.18772 21.1727C9.67331 21.1727 10.2389 21.1613 10.4445 21.1441L10.8159 21.1156L10.8444 26H12.4502V16.8474Z" fill="white"/>
<path fill-rule="evenodd" clip-rule="evenodd" d="M12.4512 7.28191V3.19487C12.453 3.19485 12.4547 3.19476 12.4564 3.19459C12.5078 3.18316 12.8335 2.81754 13.1819 2.37766C13.5304 1.93778 13.9246 1.4579 14.056 1.30937C14.2331 1.10942 14.3473 1.03516 14.4616 1.03516C14.5473 1.03516 14.7244 1.06943 14.8558 1.11514L14.91 1.13101C15.0592 1.17481 15.3047 1.24686 15.5013 1.29223C15.7241 1.34936 15.9241 1.41791 15.9583 1.44648C15.9926 1.46933 16.0612 1.49218 16.1126 1.49218C16.1697 1.49218 16.284 1.53217 16.3697 1.57787C16.4611 1.62357 16.5982 1.68641 16.6839 1.72069C16.7867 1.75497 16.8438 1.81781 16.8438 1.89207C16.8438 1.95491 16.8267 2.00633 16.8038 2.00633C16.7753 2.00633 16.6553 2.14915 16.5296 2.32053C16.4039 2.49763 16.284 2.63473 16.2554 2.63473C16.2326 2.63473 16.2154 2.67472 16.2154 2.72043C16.2154 2.76613 16.1983 2.80612 16.1754 2.80612C16.1469 2.80612 16.0269 2.93751 15.9012 3.10318C15.7755 3.26885 15.6099 3.4688 15.5299 3.55449C15.4499 3.64018 15.3242 3.80585 15.2442 3.92011C15.1643 4.04008 15.0157 4.22289 14.9129 4.32572C14.8158 4.43426 14.7301 4.53709 14.7301 4.55994C14.7301 4.5885 14.6673 4.66848 14.5873 4.74846C14.5073 4.82844 14.4387 4.91985 14.4387 4.94841C14.4387 4.97697 14.3645 5.0798 14.2674 5.17692C14.176 5.27404 14.0217 5.45113 13.9303 5.57682C13.8702 5.6594 13.788 5.76419 13.7176 5.8539L13.7175 5.85393C13.6808 5.90072 13.6473 5.94342 13.6218 5.97671C13.5418 6.07383 13.3705 6.27949 13.2333 6.43945C13.0962 6.60512 12.9249 6.8222 12.8449 6.92503C12.7649 7.02786 12.6564 7.16497 12.6049 7.22781C12.5625 7.27729 12.5376 7.30636 12.5101 7.30901C12.4931 7.31066 12.475 7.30211 12.4512 7.28191ZM12.4512 14.0933V10.0456C12.464 10.044 12.4772 10.0416 12.4907 10.0385C12.5592 10.0214 12.6164 9.96994 12.6164 9.92995C12.6221 9.89568 12.7021 9.78142 12.8049 9.67859C12.9077 9.58147 13.0505 9.40438 13.1305 9.29012C13.2105 9.17587 13.3019 9.05019 13.3305 9.01591L13.3806 8.95662L13.3808 8.95634L13.3808 8.95632C13.4433 8.88219 13.5482 8.75767 13.6561 8.63315C13.8046 8.46177 13.9246 8.30181 13.9303 8.27325C13.9303 8.2504 14.0046 8.1647 14.0903 8.0733C14.1817 7.98761 14.3416 7.8048 14.4502 7.66198C14.553 7.51916 14.6615 7.39919 14.6844 7.38777C14.713 7.38205 14.7301 7.35349 14.7301 7.31921C14.7301 7.28494 14.8044 7.19353 14.8901 7.10213C14.9815 7.01644 15.2557 6.67938 15.507 6.34804C15.7527 6.0167 16.0155 5.68536 16.084 5.60538C16.1583 5.5254 16.3354 5.30832 16.4839 5.11979C16.6324 4.93127 16.781 4.74846 16.8153 4.70847C16.8438 4.6742 16.9352 4.54852 17.0152 4.43426C17.0952 4.32 17.238 4.14862 17.3294 4.0515C17.4208 3.95439 17.5236 3.82871 17.5579 3.77158C17.5922 3.72016 17.7065 3.5602 17.815 3.41739C17.9235 3.26885 18.0492 3.1546 18.0892 3.14888C18.1235 3.14888 18.1692 3.10318 18.1863 3.04605C18.1978 2.99464 18.2606 2.90324 18.3291 2.84611C18.4377 2.7547 18.4548 2.7547 18.6891 2.86896C18.8204 2.93751 19.1061 3.13175 19.3289 3.31456C19.5517 3.49165 19.8659 3.77158 20.0316 3.93154C20.1915 4.09721 20.3286 4.26859 20.3286 4.30287C20.3286 4.34286 20.2315 4.50853 20.1172 4.66848C19.9973 4.83415 19.7973 5.08552 19.6716 5.23976C19.546 5.38829 19.3689 5.59395 19.2832 5.68536C19.1918 5.78248 19.0775 5.93101 19.0261 6.02241C18.9747 6.1081 18.9118 6.17666 18.889 6.17666C18.8604 6.17666 18.8433 6.21665 18.8433 6.26235C18.8433 6.30805 18.809 6.36518 18.7633 6.38803C18.7176 6.41659 18.5462 6.5994 18.3806 6.80506C18.2149 7.01072 18.0435 7.21638 17.9978 7.26209C17.9521 7.30779 17.8093 7.49631 17.6779 7.67912C17.5465 7.86193 17.4265 8.01046 17.4037 8.00475C17.3751 8.00475 17.358 8.04474 17.358 8.09044C17.358 8.13614 17.318 8.17613 17.2723 8.17613C17.2266 8.17613 17.1866 8.19898 17.1866 8.23326C17.1866 8.26753 17.0666 8.43892 16.9238 8.61601C16.7753 8.79882 16.6382 8.95878 16.621 8.97592C16.6039 8.99306 16.5011 9.11303 16.4039 9.24442C16.3011 9.38153 16.2154 9.51292 16.2154 9.5472C16.2154 9.58147 16.1983 9.5929 16.1754 9.57576C16.1469 9.56433 16.0669 9.63289 15.9869 9.73572C15.9455 9.79299 15.9006 9.85027 15.865 9.8957C15.8367 9.93183 15.8142 9.96047 15.8041 9.97566C15.7755 10.0099 15.6327 10.187 15.4842 10.3756C15.3356 10.5641 15.17 10.7697 15.1186 10.8326C15.0614 10.8954 14.9358 11.0554 14.8329 11.1868C14.7301 11.3124 14.4787 11.6209 14.2845 11.8723C14.0845 12.1179 13.8846 12.335 13.8389 12.3579C13.7932 12.3864 13.7589 12.4436 13.7589 12.4893C13.7589 12.535 13.7361 12.5807 13.7132 12.5864C13.6847 12.5978 13.5647 12.7292 13.4447 12.8892C13.3248 13.0434 13.1705 13.2319 13.0962 13.3005C13.022 13.3748 12.9591 13.449 12.9591 13.4719C12.9534 13.5004 12.8734 13.609 12.7706 13.7175C12.6822 13.8108 12.577 13.9337 12.4512 14.0933ZM12.4512 26V16.8474C12.4741 16.8303 12.4974 16.8112 12.5192 16.791C12.5878 16.7167 12.7021 16.5853 12.7592 16.4939L12.7782 16.4663C12.8364 16.3816 12.8997 16.2895 12.9306 16.2483C12.9648 16.2026 13.1248 16.0198 13.2905 15.8427C13.4561 15.6599 13.5875 15.4999 13.5875 15.4771C13.5875 15.4485 13.6675 15.3514 13.7589 15.26C13.8503 15.1686 13.9303 15.0657 13.9303 15.0315C13.9303 14.9972 13.9474 14.9743 13.976 14.9743C13.9989 14.9743 14.1188 14.8429 14.2445 14.6773C14.3702 14.5116 14.5244 14.3231 14.5873 14.2602C14.6501 14.1974 14.8272 13.9917 14.9757 13.8032C15.0259 13.7395 15.0754 13.6772 15.1199 13.6211L15.1199 13.6211L15.12 13.621C15.2071 13.5113 15.2748 13.426 15.2899 13.4033L15.3572 13.3216L15.3572 13.3215L15.3573 13.3214C15.4321 13.2302 15.5569 13.078 15.6898 12.9177C15.8335 12.7494 15.9773 12.5722 16.0679 12.4604C16.1034 12.4166 16.1308 12.3829 16.1469 12.3636C16.1983 12.295 16.2783 12.2379 16.3182 12.2322C16.3525 12.2322 16.3868 12.1979 16.3868 12.1637C16.3868 12.1237 16.5468 11.8951 16.7467 11.6609C16.9409 11.4267 17.118 11.2268 17.1409 11.221C17.1695 11.2096 17.1866 11.1811 17.1866 11.1468C17.1866 11.1125 17.3351 10.9183 17.5179 10.7069C17.695 10.5012 17.8893 10.2727 17.9407 10.2099C17.9978 10.1413 18.2834 9.79856 18.5862 9.45008C18.8833 9.09589 19.1289 8.79311 19.1289 8.77597C19.1289 8.75883 19.2203 8.65029 19.3346 8.53604C19.4431 8.41607 19.5974 8.22755 19.6716 8.119C19.7402 8.01046 19.8659 7.8505 19.9516 7.76481C20.0316 7.67341 20.1001 7.59343 20.1001 7.57629C20.1001 7.55915 20.1915 7.45061 20.2943 7.33635C20.4029 7.21638 20.5514 7.03929 20.6257 6.94217C20.6999 6.84505 20.8256 6.69081 20.917 6.5994C21.0027 6.508 21.1513 6.3309 21.2484 6.20522C21.3398 6.07954 21.4255 5.95957 21.4312 5.94243C21.4369 5.91958 21.4997 5.89102 21.574 5.86817C21.6654 5.84532 21.6997 5.85674 21.6997 5.91958C21.6997 5.96528 21.734 6.02241 21.7797 6.05098C21.8254 6.07383 21.9168 6.1938 21.9853 6.31948C22.0539 6.44516 22.1567 6.62225 22.2138 6.71937C22.2767 6.81649 22.3624 6.96502 22.4081 7.06214C22.4251 7.09842 22.4486 7.14984 22.4751 7.20807L22.4755 7.20887L22.4755 7.20891C22.52 7.3064 22.5731 7.42281 22.6194 7.51916C22.688 7.67912 22.7794 7.90192 22.8194 8.02189C22.8937 8.22183 22.8937 8.23897 22.7737 8.36465C22.6994 8.43321 22.5623 8.59316 22.4709 8.71884C22.3795 8.84453 22.2424 9.0102 22.1738 9.09017C22.1474 9.12099 22.1108 9.16284 22.0706 9.20885L22.0704 9.20907C22.0063 9.2824 21.9329 9.36629 21.8768 9.43294C21.7797 9.54148 21.7054 9.65003 21.6997 9.67859C21.6997 9.70144 21.6026 9.8157 21.4826 9.93567C21.3683 10.0499 21.1627 10.2899 21.037 10.4612C20.9113 10.6326 20.7285 10.8554 20.6371 10.9468C20.5457 11.0439 20.38 11.2496 20.2715 11.4039C20.1629 11.5581 20.0201 11.7352 19.9573 11.8037C19.8944 11.8666 19.7745 12.0094 19.6888 12.1179C19.6088 12.2265 19.4888 12.375 19.4203 12.4493C19.3517 12.5178 19.3003 12.5864 19.3003 12.6035C19.3003 12.6207 19.2261 12.7007 19.1404 12.7921C19.049 12.8777 18.889 13.072 18.7805 13.2205C18.6719 13.369 18.5691 13.489 18.5462 13.489C18.5177 13.489 18.5005 13.529 18.5005 13.5747C18.5005 13.6204 18.4605 13.6604 18.4148 13.6604C18.3691 13.6604 18.3291 13.6832 18.3291 13.7175C18.3291 13.7518 18.2263 13.8946 18.0949 14.0489C18.0399 14.1139 17.9806 14.1832 17.9269 14.2459L17.9267 14.2462L17.9266 14.2463C17.8577 14.3268 17.7982 14.3963 17.7693 14.4316C17.7276 14.4775 17.6129 14.6207 17.4806 14.7859L17.4805 14.786L17.4804 14.7861C17.4315 14.8471 17.3803 14.9111 17.3294 14.9743C17.1409 15.2086 16.9581 15.4256 16.9238 15.4599L16.8907 15.4989C16.8239 15.5773 16.6758 15.7511 16.5239 15.9398C16.3411 16.174 16.124 16.4311 16.0555 16.5111C15.9812 16.5911 15.8384 16.7681 15.7413 16.9053C15.6384 17.0424 15.4556 17.2594 15.3299 17.3908C15.2043 17.5222 15.05 17.7108 14.9929 17.8022C14.93 17.8993 14.8272 18.0364 14.7644 18.1107C14.7322 18.1429 14.6924 18.1852 14.6408 18.24L14.6408 18.24L14.6407 18.2402L14.6404 18.2405C14.5824 18.3022 14.5095 18.3796 14.4159 18.4763L14.5301 18.5562C14.593 18.5962 14.7244 18.6477 14.8158 18.6648C14.9072 18.6819 15.1928 18.6876 15.4442 18.6705C15.6956 18.6591 16.004 18.6191 16.1297 18.5848C16.2554 18.5505 16.5639 18.4134 16.8153 18.2877C17.0666 18.1564 17.2951 18.0135 17.3294 17.9735C17.3637 17.9278 17.4208 17.8936 17.4608 17.8879C17.4951 17.8879 17.5294 17.8707 17.5294 17.8479C17.5294 17.8193 17.6779 17.6422 17.855 17.448C18.0378 17.2537 18.2777 16.9738 18.3863 16.831C18.4948 16.6825 18.6776 16.4711 18.7862 16.3511C18.8947 16.2369 19.0889 15.9969 19.2146 15.8141C19.3403 15.637 19.4888 15.4771 19.546 15.4599C19.5974 15.4428 19.6431 15.3914 19.6431 15.3457C19.6431 15.3 19.6602 15.2543 19.6888 15.2486C19.7116 15.2371 19.8202 15.1172 19.9287 14.9743C20.0316 14.8315 20.1629 14.6773 20.2086 14.6259C20.2601 14.5802 20.4543 14.3402 20.6428 14.1003C20.8313 13.8546 21.0027 13.6604 21.0313 13.6604C21.0541 13.6604 21.0713 13.6204 21.0713 13.5747C21.0713 13.529 21.0941 13.489 21.1284 13.489C21.1627 13.489 21.2427 13.3862 21.3169 13.2605C21.3855 13.1348 21.4769 13.032 21.5169 13.032C21.5512 13.032 21.5854 13.0149 21.5854 12.992C21.5854 12.9634 21.654 12.8606 21.7397 12.7521C21.8311 12.6435 22.0082 12.4379 22.1396 12.295C22.271 12.1522 22.3795 12.0151 22.3852 11.9923C22.3852 11.9637 22.4423 11.8894 22.5166 11.8209C22.5852 11.7466 22.7337 11.5752 22.8422 11.4324C22.9451 11.2896 23.105 11.1068 23.1964 11.0211C23.2821 10.9297 23.3564 10.8383 23.3564 10.804C23.3564 10.7697 23.385 10.7526 23.4192 10.764C23.4535 10.7697 23.5163 10.9068 23.5621 11.0611C23.602 11.221 23.642 11.7181 23.6535 12.1751C23.6649 12.6378 23.6363 13.2834 23.5963 13.6318C23.5506 13.9803 23.4821 14.3916 23.4364 14.5459C23.385 14.7058 23.265 14.9343 23.1679 15.06C23.0849 15.1674 22.9478 15.3331 22.8419 15.461L22.8419 15.4611L22.7908 15.5228C22.6766 15.6484 22.5395 15.8084 22.488 15.877C22.4309 15.9455 22.3852 16.0255 22.3852 16.0598C22.3852 16.094 22.3681 16.1169 22.3452 16.1169C22.3167 16.1169 22.1738 16.2769 22.0139 16.4711C21.8914 16.6253 21.7653 16.7723 21.7043 16.8435C21.6885 16.862 21.677 16.8753 21.6711 16.8824C21.6368 16.9167 21.4597 17.1223 21.2827 17.3451C21.1377 17.5218 20.9641 17.7271 20.8528 17.8587L20.7799 17.945C20.6885 18.0535 20.5057 18.282 20.3686 18.4534C20.2372 18.6248 19.8487 19.0533 19.5003 19.4017C19.1518 19.7502 18.7233 20.133 18.5462 20.2472C18.3634 20.3615 18.1749 20.4586 18.1292 20.4586C18.0835 20.4586 18.0321 20.4986 18.0149 20.5443C17.9978 20.59 17.9235 20.63 17.8436 20.63C17.7636 20.63 17.6893 20.67 17.6722 20.7157C17.655 20.7614 17.5922 20.8014 17.5294 20.8014C17.4665 20.8014 17.3465 20.8356 17.2609 20.8814C17.1695 20.9213 16.9866 20.9899 16.8438 21.0299C16.701 21.0642 16.3811 21.1213 16.1297 21.1556C15.8784 21.1841 15.3242 21.1956 14.9015 21.1784C14.3759 21.1613 14.056 21.1213 13.9017 21.0584C13.7761 21.007 13.6104 20.9728 13.3876 21.0013L13.3762 23.2579C13.3647 24.4975 13.3476 25.623 13.3019 26H12.4512Z" fill="white"/>
</svg>
