<svg width="136" height="23" viewBox="0 0 136 23" fill="none" xmlns="http://www.w3.org/2000/svg">
<g clip-path="url(#clip0_1_5514)">
<path d="M2.43025 1.43896C3.44287 1.43896 4.34503 2.07229 4.70405 3.03159L9.29307 15.3349H9.35291L14.0616 2.91052C14.3976 2.02572 15.2399 1.43896 16.1789 1.43896C17.7945 1.43896 18.89 3.09679 18.2732 4.6056L11.6221 20.9231C11.1986 21.9662 10.1952 22.6414 9.08134 22.6414C7.95825 22.6414 6.94563 21.9476 6.53137 20.8951L0.174856 4.8105C-0.460336 3.19458 0.713388 1.43896 2.43025 1.43896Z" fill="#146262"/>
<path d="M20.4541 3.5021C20.4541 2.78495 20.7073 2.17025 21.209 1.658C21.7107 1.14576 22.3183 0.894287 23.0317 0.894287C23.7451 0.894287 24.3481 1.15041 24.8544 1.658C25.3561 2.1656 25.6093 2.7803 25.6093 3.5021C25.6093 4.22391 25.3561 4.83395 24.8544 5.3462C24.3527 5.85379 23.7451 6.10992 23.0317 6.10992C22.3183 6.10992 21.7153 5.85379 21.209 5.3462C20.7073 4.83861 20.4541 4.22391 20.4541 3.5021ZM20.8085 8.08441H25.2503V22.6369H20.8085V8.08441Z" fill="#146262"/>
<path d="M35.8469 12.3683C35.1933 11.5487 34.3372 11.1389 33.2739 11.1389C32.8965 11.1389 32.5329 11.2274 32.1784 11.409C31.824 11.5907 31.6445 11.898 31.6445 12.3357C31.6445 12.6943 31.8286 12.9598 32.1922 13.1274C32.5559 13.2997 33.0208 13.4487 33.5823 13.5745C34.1438 13.7048 34.7468 13.8446 35.3866 13.9936C36.0264 14.1426 36.6294 14.3801 37.1909 14.6967C37.7525 15.0181 38.2174 15.4512 38.581 16.0007C38.9446 16.5502 39.1287 17.2859 39.1287 18.2033C39.1287 19.1207 38.9262 19.917 38.5211 20.5224C38.1161 21.1325 37.6006 21.6214 36.9654 21.9893C36.3348 22.3572 35.6214 22.618 34.8343 22.767C34.0472 22.916 33.2647 22.9905 32.496 22.9905C31.488 22.9905 30.4708 22.8462 29.449 22.5574C28.4225 22.2687 27.5526 21.7565 26.8438 21.016L29.5364 17.9891C29.9507 18.5107 30.4109 18.9019 30.9127 19.1719C31.4144 19.442 32.0035 19.5771 32.6755 19.5771C33.1865 19.5771 33.6513 19.5026 34.0656 19.3536C34.4799 19.2045 34.687 18.9298 34.687 18.5293C34.687 18.1521 34.5029 17.868 34.1392 17.6771C33.7756 17.4862 33.3107 17.3278 32.7492 17.1975C32.1876 17.0671 31.5847 16.9274 30.9449 16.7783C30.3051 16.6293 29.7021 16.4058 29.1406 16.1031C28.579 15.8051 28.1141 15.3813 27.7505 14.8318C27.3869 14.2823 27.2028 13.5512 27.2028 12.6291C27.2028 11.7723 27.3777 11.0318 27.7183 10.4125C28.0589 9.79313 28.5192 9.28553 29.0807 8.88505C29.6423 8.48456 30.2913 8.19118 31.0185 8.00025C31.7504 7.80932 32.4868 7.71619 33.2371 7.71619C34.1853 7.71619 35.1427 7.85589 36.1093 8.1353C37.0759 8.41471 37.8952 8.91299 38.5672 9.63014L35.8423 12.3544L35.8469 12.3683Z" fill="#146262"/>
<path d="M40.376 3.50198C40.376 2.78483 40.6291 2.17013 41.1308 1.65788C41.6326 1.14563 42.2401 0.894165 42.9536 0.894165C43.667 0.894165 44.27 1.15029 44.7763 1.65788C45.278 2.16548 45.5312 2.78017 45.5312 3.50198C45.5312 4.22379 45.278 4.83383 44.7763 5.34608C44.2746 5.85367 43.667 6.1098 42.9536 6.1098C42.2401 6.1098 41.6372 5.85367 41.1308 5.34608C40.6291 4.83849 40.376 4.22379 40.376 3.50198ZM40.7304 8.08429H45.1721V22.6368H40.7304V8.08429Z" fill="#146262"/>
<path d="M47.0918 15.3629C47.0918 14.2033 47.2989 13.1556 47.7132 12.2195C48.1274 11.2835 48.6936 10.4779 49.4162 9.8073C50.1343 9.13672 50.9858 8.62447 51.9616 8.2659C52.9374 7.90732 53.9776 7.72571 55.0823 7.72571C56.187 7.72571 57.2272 7.90732 58.2076 8.2659C59.1881 8.62447 60.0304 9.14138 60.753 9.8073C61.4711 10.4779 62.0418 11.2789 62.4561 12.2195C62.8703 13.1602 63.0774 14.208 63.0774 15.3629C63.0774 16.5178 62.8703 17.5702 62.4561 18.5062C62.0418 19.4469 61.4757 20.2479 60.753 20.9185C60.0304 21.589 59.1834 22.1013 58.2076 22.4599C57.2318 22.8184 56.1916 23.0001 55.0823 23.0001C53.973 23.0001 52.9374 22.8184 51.9616 22.4599C50.9858 22.1013 50.1343 21.5844 49.4162 20.9185C48.6936 20.2479 48.1274 19.4469 47.7132 18.5062C47.2989 17.5702 47.0918 16.5178 47.0918 15.3629ZM51.5335 15.3629C51.5335 16.4619 51.8419 17.3513 52.4679 18.0266C53.0893 18.7065 53.9638 19.0464 55.0869 19.0464C56.21 19.0464 57.0846 18.7065 57.7059 18.0266C58.3273 17.3467 58.6403 16.4572 58.6403 15.3629C58.6403 14.2685 58.3273 13.3744 57.7059 12.6992C57.0846 12.0193 56.21 11.6793 55.0869 11.6793C53.9638 11.6793 53.0893 12.0193 52.4679 12.6992C51.8465 13.3791 51.5335 14.2685 51.5335 15.3629Z" fill="#146262"/>
<path d="M64.9414 8.08406H69.2036V10.0585H69.2635C69.4016 9.77914 69.5995 9.49973 69.8572 9.22032C70.115 8.94091 70.4188 8.68944 70.7732 8.47057C71.1276 8.2517 71.5327 8.07009 71.9883 7.93038C72.444 7.79068 72.9365 7.72083 73.4705 7.72083C74.5936 7.72083 75.5049 7.89778 76.1953 8.24239C76.8858 8.59165 77.4243 9.07596 77.8063 9.69531C78.193 10.3147 78.4507 11.0411 78.5888 11.884C78.7269 12.7222 78.7959 13.6303 78.7959 14.6083V22.6366H74.3542V15.507C74.3542 15.0879 74.3404 14.6548 74.3082 14.2031C74.276 13.7514 74.1885 13.3416 74.0412 12.9597C73.8939 12.5825 73.6684 12.2705 73.36 12.033C73.0516 11.7955 72.6143 11.6745 72.0436 11.6745C71.4728 11.6745 71.0079 11.7769 70.6535 11.9865C70.2991 12.196 70.0275 12.4754 69.8388 12.8247C69.6501 13.174 69.5304 13.5698 69.4706 14.0075C69.4108 14.4453 69.3831 14.9063 69.3831 15.3859V22.6319H64.9414V8.0794V8.08406Z" fill="#146262"/>
<path d="M102.248 0H106.69V22.6414H102.248V0Z" fill="#146262"/>
<path d="M122.357 22.6414H118.095V20.6669H118.035C117.879 20.9463 117.676 21.2257 117.428 21.5051C117.179 21.7845 116.88 22.036 116.525 22.2549C116.171 22.4737 115.766 22.6554 115.31 22.7951C114.855 22.9348 114.362 23.0046 113.828 23.0046C112.705 23.0046 111.789 22.8277 111.089 22.4831C110.39 22.1338 109.847 21.6495 109.46 21.0301C109.073 20.4108 108.82 19.6843 108.691 18.8461C108.562 18.0079 108.498 17.0998 108.498 16.1219V8.09351H112.94V15.2231C112.94 15.6422 112.954 16.0753 112.986 16.527C113.018 16.9787 113.105 17.3885 113.253 17.7704C113.4 18.1476 113.626 18.4596 113.934 18.6971C114.242 18.9346 114.68 19.0556 115.25 19.0556C115.821 19.0556 116.286 18.9485 116.64 18.739C116.995 18.5294 117.266 18.25 117.455 17.9008C117.644 17.5515 117.764 17.1557 117.823 16.7179C117.883 16.2802 117.911 15.8192 117.911 15.3395V8.09351H122.353V22.646L122.357 22.6414Z" fill="#146262"/>
<path d="M132.713 12.3683C132.064 11.5487 131.203 11.1389 130.14 11.1389C129.763 11.1389 129.399 11.2274 129.045 11.409C128.69 11.5907 128.511 11.898 128.511 12.3357C128.511 12.6943 128.69 12.9598 129.058 13.1274C129.422 13.2997 129.887 13.4487 130.449 13.5745C131.01 13.7048 131.613 13.8446 132.253 13.9936C132.893 14.1426 133.496 14.3801 134.057 14.6967C134.619 15.0181 135.084 15.4512 135.447 16.0007C135.811 16.5502 135.995 17.2859 135.995 18.2033C135.995 19.1207 135.792 19.917 135.387 20.5224C134.982 21.1325 134.467 21.6214 133.832 21.9893C133.201 22.3572 132.488 22.618 131.7 22.767C130.913 22.916 130.131 22.9905 129.362 22.9905C128.354 22.9905 127.337 22.8462 126.315 22.5574C125.289 22.2687 124.419 21.7565 123.71 21.016L126.403 17.9891C126.817 18.5107 127.277 18.9019 127.779 19.1719C128.281 19.442 128.87 19.5771 129.542 19.5771C130.057 19.5771 130.518 19.5026 130.932 19.3536C131.346 19.2045 131.553 18.9298 131.553 18.5293C131.553 18.1521 131.369 17.868 131.005 17.6771C130.642 17.4862 130.177 17.3278 129.615 17.1975C129.054 17.0671 128.451 16.9274 127.811 16.7783C127.171 16.6293 126.568 16.4058 126.007 16.1031C125.445 15.8051 124.98 15.3813 124.617 14.8318C124.253 14.2823 124.069 13.5512 124.069 12.6291C124.069 11.7723 124.244 11.0318 124.585 10.4125C124.925 9.79313 125.385 9.28553 125.947 8.88505C126.508 8.48456 127.157 8.19118 127.885 8.00025C128.617 7.80932 129.353 7.71619 130.103 7.71619C131.051 7.71619 132.009 7.85589 132.975 8.1353C133.942 8.41471 134.761 8.91299 135.433 9.63014L132.709 12.3544L132.713 12.3683Z" fill="#146262"/>
<path d="M100.383 5.36932C99.877 4.38673 99.2004 3.60438 98.3442 3.02228C97.4881 2.44018 96.4847 2.03038 95.3386 1.79288C94.1879 1.55539 92.9727 1.43896 91.6793 1.43896H85.1157V5.79309H91.0533C91.6287 5.79309 92.2271 5.82568 92.853 5.89088C93.479 5.95607 94.0498 6.10975 94.5561 6.34725C95.0624 6.58474 95.4813 6.92003 95.8081 7.35777C96.1349 7.79552 96.3006 8.3683 96.3006 9.0808C96.3006 9.74206 96.1763 10.2916 95.9277 10.7247C95.6792 11.1624 95.3524 11.5023 94.9473 11.7538C94.5745 11.982 94.1464 12.1077 93.7138 12.1077H89.7645V6.68254H85.1157V12.1077H82.2159C80.9409 12.1077 79.9053 13.1555 79.9053 14.4454C79.9053 15.7354 80.9409 16.7832 82.2159 16.7832H85.1157V20.2851C85.1157 21.5843 86.1559 22.6368 87.4401 22.6368C88.7243 22.6368 89.7645 21.5843 89.7645 20.2851V16.8064H91.9279C93.2397 16.8064 94.4594 16.6807 95.5871 16.4339C96.7102 16.1871 97.686 15.7633 98.5053 15.1719C99.3246 14.5805 99.969 13.7842 100.439 12.7876C100.908 11.7911 101.143 10.557 101.143 9.08545C101.143 7.6139 100.89 6.3519 100.388 5.36466L100.383 5.36932Z" fill="#146262"/>
</g>
<defs>
<clipPath id="clip0_1_5514">
<rect width="136" height="23" fill="white"/>
</clipPath>
</defs>
</svg>
