<svg width="24" height="28" viewBox="0 0 24 28" fill="none" xmlns="http://www.w3.org/2000/svg">
<path d="M10 14.59L7.41 12L6 13.41L10 17.41L18 9.41L16.59 8L10 14.59Z" fill="white"/>
<path d="M12 28L5.82401 24.707C4.0632 23.7705 2.59071 22.3721 1.56464 20.6619C0.538572 18.9517 -0.00233026 16.9944 7.54603e-06 15V2C7.54603e-06 1.46957 0.210721 0.960859 0.585794 0.585786C0.960867 0.210714 1.46957 0 2.00001 0H22C22.5304 0 23.0391 0.210714 23.4142 0.585786C23.7893 0.960859 24 1.46957 24 2V15C24.0023 16.9944 23.4614 18.9517 22.4354 20.6619C21.4093 22.3721 19.9368 23.7705 18.176 24.707L12 28ZM2.00001 2V15C1.99889 16.6317 2.44188 18.2329 3.28149 19.632C4.12109 21.0311 5.32564 22.1753 6.76601 22.942L12 25.733L17.234 22.943C18.6745 22.1763 19.8792 21.0319 20.7188 19.6326C21.5584 18.2333 22.0013 16.6319 22 15V2H2.00001Z" fill="white"/>
</svg>
