<svg width="26" height="20" viewBox="0 0 26 20" fill="none" xmlns="http://www.w3.org/2000/svg">
<path d="M14.6819 12.6249C14.833 11.5749 15.2748 10.5882 15.9573 9.7761C16.6398 8.96403 17.5358 8.35901 18.5441 8.0294C19.5524 7.69979 20.6327 7.65872 21.6631 7.91084C22.6935 8.16296 23.6328 8.69822 24.375 9.45614V5.31239C24.375 3.57039 23.322 2.51739 20.9658 2.04614C20.7607 1.99775 20.5825 1.87162 20.4687 1.69437C20.3549 1.51711 20.3144 1.30259 20.3557 1.09603C20.397 0.889473 20.5169 0.707033 20.6902 0.587189C20.8634 0.467344 21.0764 0.419462 21.2842 0.453641C24.3441 1.06464 26 2.72052 26 5.31239V12.2186C26 12.3356 25.9767 12.4451 25.9301 12.5469C25.9767 12.8383 26 13.1351 26 13.4374C26.0026 14.8771 25.4591 16.2642 24.4792 17.3189C23.4992 18.3736 22.1557 19.0174 20.7198 19.1205C19.2838 19.2236 17.8621 18.7783 16.7416 17.8744C15.621 16.9704 14.885 15.6752 14.6819 14.2499H11.3181C11.0923 15.7415 10.2832 17.0823 9.06876 17.9773C7.85434 18.8724 6.33411 19.2483 4.8425 19.0225C3.35089 18.7967 2.01008 17.9876 1.11504 16.7731C0.220001 15.5587 -0.155957 14.0385 0.069875 12.5469C0.0239935 12.4435 0.000194228 12.3317 0 12.2186L0 5.31239C0 2.72052 1.65587 1.06464 4.71575 0.453641C4.92361 0.419462 5.13661 0.467344 5.30985 0.587189C5.48308 0.707033 5.603 0.889473 5.64431 1.09603C5.68562 1.30259 5.64509 1.51711 5.53128 1.69437C5.41747 1.87162 5.23926 1.99775 5.03425 2.04614C2.678 2.51739 1.625 3.57039 1.625 5.31239V9.45614C2.36717 8.69822 3.30651 8.16296 4.3369 7.91084C5.36728 7.65872 6.44764 7.69979 7.45592 8.0294C8.46419 8.35901 9.36019 8.96403 10.0427 9.7761C10.7252 10.5882 11.167 11.5749 11.3181 12.6249H14.6819ZM5.6875 17.4999C6.76494 17.4999 7.79825 17.0719 8.56012 16.31C9.32199 15.5481 9.75 14.5148 9.75 13.4374C9.75 12.3599 9.32199 11.3266 8.56012 10.5648C7.79825 9.8029 6.76494 9.37489 5.6875 9.37489C4.61006 9.37489 3.57675 9.8029 2.81488 10.5648C2.05301 11.3266 1.625 12.3599 1.625 13.4374C1.625 14.5148 2.05301 15.5481 2.81488 16.31C3.57675 17.0719 4.61006 17.4999 5.6875 17.4999ZM20.3125 17.4999C21.3899 17.4999 22.4233 17.0719 23.1851 16.31C23.947 15.5481 24.375 14.5148 24.375 13.4374C24.375 12.3599 23.947 11.3266 23.1851 10.5648C22.4233 9.8029 21.3899 9.37489 20.3125 9.37489C19.2351 9.37489 18.2017 9.8029 17.4399 10.5648C16.678 11.3266 16.25 12.3599 16.25 13.4374C16.25 14.5148 16.678 15.5481 17.4399 16.31C18.2017 17.0719 19.2351 17.4999 20.3125 17.4999Z" fill="white"/>
</svg>
