<svg width="1440" height="185" viewBox="0 0 1440 185" fill="none" xmlns="http://www.w3.org/2000/svg">
<path d="M786.614 24.4157L791.556 29.8119L792.201 30.4855C793.737 32.0898 796.28 32.1538 797.895 30.6288C799.373 29.2331 801.658 29.1524 803.231 30.4404L804.518 31.4945C806.596 33.1959 809.733 32.3008 810.6 29.7593C811.2 28.002 812.968 26.9231 814.805 27.1942L816.598 27.4587C816.957 27.5117 817.321 27.5321 817.683 27.5198L819.283 27.4652C820.942 27.4086 822.543 28.0809 823.664 29.3051C825.131 30.9067 827.383 31.5314 829.466 30.9143L836.005 28.9764C836.283 28.894 836.473 28.6387 836.473 28.3489C836.473 28.2432 836.499 28.139 836.548 28.0454L836.752 27.6558C837.284 26.6391 838.452 26.1298 839.559 26.432L840.376 26.6549C840.549 26.7021 840.711 26.782 840.855 26.8903C841.665 27.5028 842.838 27.0834 843.076 26.0958L843.148 25.797C843.254 25.3547 843.543 24.9782 843.942 24.7602L848.394 22.33C849.534 21.7076 850.854 21.4988 852.131 21.7391L853.065 21.9149C853.963 22.084 854.755 22.6097 855.259 23.3721C855.961 24.4337 857.2 25.0109 858.465 24.8656L860.528 24.6284C861.488 24.5182 862.441 24.8744 863.094 25.5864C863.664 26.2093 864.47 26.564 865.315 26.564H865.476H866.777C867.198 26.564 867.619 26.5959 868.036 26.6594L872.382 27.3215C873.237 27.4518 873.92 28.1017 874.092 28.9493C874.275 29.8458 875.026 30.515 875.938 30.5931L878.71 30.8305C880.741 31.0044 882.531 32.2348 883.42 34.0689L885.248 37.8398C885.739 38.8512 886.526 39.6891 887.504 40.2418L888.929 41.0464C889.785 41.5299 890.315 42.4369 890.315 43.4201V44.348C890.315 45.0615 890.803 45.6824 891.496 45.8506C892.323 46.0513 893.157 45.5457 893.362 44.7196L894.073 41.8466C894.335 40.788 894.971 39.8599 895.863 39.2334L898.644 37.2819L902.065 35.0084L907.204 31.3823C910.12 29.3257 913.692 28.4193 917.235 28.8375L918.703 29.1858C919.787 29.4431 920.877 28.7833 921.151 27.7036C921.308 27.0877 921.743 26.58 922.327 26.3303L923.346 25.8948C924.279 25.4962 925.342 25.5389 926.24 26.0109C927.728 26.7935 929.566 26.3591 930.547 24.9928L931.652 23.4539C932.447 22.3469 934.033 22.1886 935.03 23.1167C936.112 24.1229 937.853 23.8389 938.558 22.541L939.443 20.9138C939.8 20.2573 940.348 19.7243 941.014 19.3851L947.052 16.3086C948.262 15.6917 949.639 15.4786 950.979 15.7004L951.613 15.8052C953.018 16.0376 954.255 16.8645 955.006 18.0741C956.011 19.6899 957.853 20.5865 959.744 20.38L962.326 20.0982C963.413 19.9795 964.479 20.4577 965.114 21.3485C965.763 22.2594 966.862 22.7372 967.97 22.5905L971.077 22.1794H976.162C977.98 22.1794 979.564 23.419 980.001 25.1837C980.437 26.9484 982.021 28.1879 983.839 28.1879H986.479C988.853 28.1879 991.08 29.3381 992.454 31.274L1001.41 43.8965C1001.82 44.4638 1002.3 44.9693 1002.85 45.3971L1003.88 46.199C1004.03 46.3155 1004.15 46.4634 1004.23 46.6323C1004.57 47.289 1005.38 47.5343 1006.02 47.1712L1007.6 46.2783C1008.4 45.8266 1008.95 45.0377 1009.1 44.1329L1009.13 43.9514C1009.4 42.2956 1010.9 41.1275 1012.57 41.2706L1015.89 41.555C1016.52 41.6089 1017.01 41.0169 1016.84 40.4087C1016.7 39.9347 1016.97 39.441 1017.44 39.2981L1017.95 39.1461C1018.65 38.9331 1019 38.1494 1018.7 37.4821C1018.33 36.6936 1018.89 35.7921 1019.76 35.7665L1022.58 35.6832C1023.14 35.6667 1023.68 35.4939 1024.15 35.1842L1025.08 34.565C1026.04 33.9294 1026.25 32.6124 1025.54 31.7118C1024.76 30.733 1025.08 29.2898 1026.2 28.735L1027.38 28.1494C1028.31 27.6902 1028.82 26.679 1028.65 25.6607C1028.41 24.2533 1029.48 22.9617 1030.9 22.9285L1033.36 22.8714C1034.44 22.8463 1035.37 22.1052 1035.64 21.0586C1035.82 20.3321 1036.34 19.7332 1037.03 19.4386L1037.98 19.0295C1038.8 18.679 1039.76 18.8847 1040.36 19.5426C1040.99 20.2375 1042.02 20.4238 1042.86 19.9984L1044.24 19.2961C1046.12 18.3469 1048.41 18.9495 1049.58 20.6993L1051.1 22.9914L1051.94 24.2607C1052.62 25.2933 1053.78 25.9144 1055.02 25.9144C1055.94 25.9144 1056.83 25.5671 1057.52 24.9411L1058.66 23.8909C1060.63 22.0795 1063.64 22.0227 1065.68 23.7586L1067.9 25.653C1068.09 25.8128 1068.17 26.066 1068.1 26.3045C1067.95 26.9036 1068.65 27.3558 1069.13 26.9676L1070.18 26.1185C1070.35 25.9854 1070.55 25.9035 1070.76 25.883L1073.53 25.6148C1075.82 25.3918 1078.11 26.1436 1079.82 27.6867L1081.53 29.22C1081.95 29.6009 1082.22 30.1258 1082.28 30.6925C1082.48 32.642 1084.87 33.4599 1086.22 32.0391L1086.58 31.6638C1086.82 31.4064 1087.12 31.2034 1087.44 31.0678L1092.45 28.9999L1095.83 27.4024C1100.8 25.0571 1106.36 24.2559 1111.79 25.1025L1114.61 25.2649L1120.56 25.6708C1122.88 25.8289 1125.08 26.7359 1126.84 28.255C1127.41 28.7502 1127.93 29.3048 1128.39 29.9094L1132.31 35.1071C1133.38 36.5298 1134.82 37.6318 1136.48 38.2936L1147.59 42.7376C1148.27 43.0103 1149.02 42.5378 1149.07 41.8049C1149.1 41.3356 1149.43 40.94 1149.88 40.8268L1150.07 40.7799C1151.09 40.5274 1151.44 39.2598 1150.7 38.5195L1150.4 38.2242C1149.67 37.4978 1149.82 36.2802 1150.7 35.7487L1152.85 34.45C1153.95 33.7913 1154.6 32.5973 1154.57 31.3228L1154.57 31.2405C1154.51 29.1983 1156.13 27.5028 1158.17 27.4591L1160.09 27.4181C1161.26 27.393 1162.29 26.6176 1162.63 25.4956C1163.06 24.0979 1164.51 23.2884 1165.93 23.6635L1167.26 24.0166C1168.27 24.2863 1169.35 23.9896 1170.09 23.2397C1170.74 22.5735 1171.68 22.26 1172.6 22.3963L1173.66 22.5525C1175.49 22.8227 1177.03 24.0845 1177.65 25.8267C1178.78 28.9688 1182.6 30.1838 1185.33 28.2587L1188.97 25.6889C1189.37 25.4084 1189.81 25.1993 1190.28 25.0712C1191.69 24.6872 1193.19 25.0632 1194.26 26.0637L1195.3 27.0455C1195.64 27.3661 1195.87 27.7847 1195.96 28.243C1196.26 29.7401 1197.93 30.5121 1199.26 29.7688L1201.73 28.3919C1202.88 27.7503 1204.26 27.6705 1205.48 28.1755L1209.17 29.7078C1210.38 30.2072 1211.65 30.5163 1212.95 30.6241L1383.12 44.752L660.12 84.2818C643.048 85.2152 628.693 71.6237 628.693 54.5265V29.1631C628.693 26.1458 631.197 23.7306 634.212 23.8385L635.483 23.884C636.865 23.9335 638.142 23.1461 638.718 21.8884C638.875 21.5435 639.09 21.2273 639.351 20.9526L640.529 19.7163C641.901 18.276 644.037 17.8685 645.843 18.7026L646.639 19.0705C646.673 19.086 646.703 19.108 646.728 19.1352C646.796 19.2099 646.9 19.2415 646.999 19.2176L648.114 18.947C648.156 18.9368 648.199 18.9316 648.243 18.9316C648.298 18.9316 648.353 18.9232 648.406 18.9068L649.532 18.5555C650.114 18.3737 650.715 18.2569 651.324 18.2071L654.496 17.9473C655.718 17.8472 656.895 17.443 657.92 16.7714L658.558 16.3537C659.99 15.4154 661.767 15.1672 663.401 15.6771L664.168 15.9164C665.922 16.4633 667.832 15.8971 669.004 14.4828C669.583 13.7839 670.359 13.2752 671.231 13.0227L673.076 12.488C675.713 11.7243 678.541 11.9954 680.984 13.2459L681.94 13.735L684.832 14.8929C685.861 15.3049 686.767 15.975 687.462 16.8387L688.445 18.0594C689.771 19.707 692.064 20.2107 693.959 19.2705C695.879 18.3175 698.211 18.8574 699.527 20.5502C700.668 22.0191 702.597 22.6477 704.383 22.1247L707.478 21.2179C707.507 21.2094 707.537 21.2051 707.568 21.2051C707.635 21.2051 707.7 21.2263 707.754 21.2658L708.704 21.9572C709.194 22.3141 709.569 22.8065 709.783 23.3739C710.217 24.5238 711.287 25.3103 712.514 25.3808L715.174 25.5337C715.818 25.5707 716.464 25.4912 717.08 25.2991L718.856 24.745C719.746 24.4674 720.397 23.7026 720.529 22.7797L720.595 22.3215C720.812 20.8043 722.519 20.0135 723.817 20.8292C724.935 21.5322 726.417 21.0505 726.909 19.8244L727.372 18.6671C727.79 17.6242 728.731 16.882 729.842 16.718L732.763 16.2871C733.263 16.2132 733.771 16.3586 734.157 16.686L734.622 17.0809C735.375 17.7208 736.538 17.3705 736.813 16.4208C736.992 15.8019 737.58 15.393 738.222 15.4405L742.647 15.7681C744.701 15.9202 746.715 15.1367 748.127 13.6359L750.041 11.6008C750.939 10.6468 752.349 10.3808 753.532 10.9425C754.431 11.369 755.064 12.2261 755.22 13.2083C755.424 14.4875 756.408 15.5238 757.68 15.7717L757.798 15.7948C758.985 16.0261 760.202 15.5815 760.959 14.6399L761.641 13.7936C763.06 12.0299 765.479 11.4242 767.562 12.3109L770.001 13.3491C771.821 14.1237 773.317 15.5046 774.234 17.257L775.516 19.7071C776.066 20.7565 777.062 21.4994 778.225 21.7261L779.362 21.9478C780.092 22.0901 780.682 22.6272 780.892 23.3407L781.003 23.7204C781.392 25.0414 783.075 25.4311 784.005 24.4156C784.706 23.6501 785.913 23.6501 786.614 24.4157Z" fill="#39291E"/>
<path d="M756.064 0H756.212V0.507366H756.064V0Z" fill="#39291E"/>
<path d="M670.25 0.507366H670.399V1.01473H670.25V0.507366Z" fill="#39291E"/>
<path d="M682.445 1.5221H682.594V2.02947H682.445V1.5221Z" fill="#39291E"/>
<path d="M686.907 7.10313H687.056V7.61049H686.907V7.10313Z" fill="#39291E"/>
<path d="M1019.75 11.6694H1019.9V12.1768H1019.75V11.6694Z" fill="#39291E"/>
<path d="M954.907 11.6694H955.056V12.1768H954.907V11.6694Z" fill="#39291E"/>
<path d="M656.716 14.2063H656.865V14.7136H656.716V14.2063Z" fill="#39291E"/>
<path d="M1106.75 16.2357H1106.9V16.7431H1106.75V16.2357Z" fill="#39291E"/>
<path d="M648.685 17.7578H648.834V18.2652H648.685V17.7578Z" fill="#39291E"/>
<path d="M647.347 18.2652H647.198V18.7726H647.347V19.2799H647.495V18.7726H647.347V18.2652Z" fill="#39291E"/>
<path d="M1112.85 18.7726H1113V19.2799H1112.85V18.7726Z" fill="#39291E"/>
<path d="M959.666 18.7726H959.815V19.2799H959.666V18.7726Z" fill="#39291E"/>
<path d="M691.071 19.7873H691.22V20.2947H691.071V19.7873Z" fill="#39291E"/>
<path d="M964.574 20.802H964.723V21.3094H964.574V20.802Z" fill="#39291E"/>
<path d="M726.468 20.802H726.616V21.3094H726.468V20.802Z" fill="#39291E"/>
<path d="M1188.11 23.3389H1188.25V23.8462H1188.11V23.3389Z" fill="#39291E"/>
<path d="M708.026 24.8609H708.175V25.3683H708.026V24.8609Z" fill="#39291E"/>
<path d="M639.316 25.3683H639.464V25.8757H639.316V25.3683Z" fill="#39291E"/>
<path d="M975.58 25.8757H975.729V26.383H975.58V25.8757Z" fill="#39291E"/>
<path d="M1084.59 27.9051H1084.74V28.4125H1084.59V27.9051Z" fill="#39291E"/>
<path d="M709.959 28.9199H710.108V29.4272H709.959V28.9199Z" fill="#39291E"/>
<path d="M973.646 30.442H973.795V30.9493H973.646V30.442Z" fill="#39291E"/>
<path d="M701.928 30.442H702.077V30.9493H701.928V30.442Z" fill="#39291E"/>
<path d="M1190.78 32.9788H1190.93V33.4862H1190.78V32.9788Z" fill="#39291E"/>
<path d="M858.98 32.9788H859.129V33.4862H858.98V32.9788Z" fill="#39291E"/>
<path d="M638.275 33.4862H638.423V33.9935H638.275V33.4862Z" fill="#39291E"/>
<path d="M1079.09 35.0083H1079.24V35.5156H1079.09V35.0083Z" fill="#39291E"/>
<path d="M921.742 42.1114H921.891V42.6188H921.742V42.1114Z" fill="#39291E"/>
<path d="M790.419 48.7072H790.568V49.2145H790.419V48.7072Z" fill="#39291E"/>
<path d="M1010.08 49.2145H1010.23V49.7219H1010.08V49.2145Z" fill="#39291E"/>
<path d="M834.738 49.2145H834.887V49.7219H834.738V49.2145Z" fill="#39291E"/>
<path d="M792.055 51.7514H792.203V52.2587H792.055V51.7514Z" fill="#39291E"/>
<path d="M1131.59 56.3177H1131.74V56.825H1131.59V56.3177Z" fill="#39291E"/>
<path d="M905.233 58.8545H905.382V59.3619H905.233V58.8545Z" fill="#39291E"/>
<path d="M902.408 67.9871H902.556V68.4945H902.408V67.9871Z" fill="#39291E"/>
<path d="M898.987 75.0902H899.136V75.5976H898.987V75.0902Z" fill="#39291E"/>
<path d="M994.914 77.627H995.063V78.1344H994.914V77.627Z" fill="#39291E"/>
<path d="M650.673 20.0903H650.822V20.2928H650.673V20.0903Z" fill="#FBFBFB"/>
<path d="M648.59 20.9H648.739V21.1024H648.59V20.9Z" fill="#FBFBFB"/>
<path d="M707.943 23.7339H708.092V23.9363H707.943V23.7339Z" fill="#FBFBFB"/>
<path d="M574.796 35.7234L567.958 42.4618L567.087 43.2831C564.894 45.35 561.497 45.435 559.204 43.4804C557.113 41.6986 554.07 41.5931 551.861 43.2257L549.675 44.8412C546.893 46.8977 542.916 45.7263 541.693 42.4899C540.835 40.2211 538.527 38.8424 536.122 39.1625L533.338 39.5334C532.865 39.5963 532.388 39.6205 531.912 39.6059L529.508 39.5319C527.303 39.4639 525.165 40.3019 523.593 41.8509C521.555 43.8597 518.605 44.6392 515.841 43.8997L506.504 41.4022C506.162 41.3108 505.924 41.0013 505.924 40.6477C505.924 40.5101 505.888 40.3749 505.819 40.2559L505.491 39.6895C504.774 38.4534 503.327 37.8387 501.94 38.1805L500.529 38.5281C500.294 38.5861 500.07 38.6858 499.87 38.8224C498.714 39.6114 497.124 39.0213 496.763 37.6687L496.726 37.5275C496.567 36.9328 496.159 36.4355 495.607 36.1635L489.434 33.1218C487.869 32.3509 486.101 32.0932 484.382 32.3854L482.913 32.6348C481.731 32.8357 480.673 33.489 479.964 34.4563C478.995 35.7788 477.397 36.4876 475.766 36.3185L472.589 35.9889C471.326 35.8578 470.07 36.2983 469.165 37.1898C468.37 37.9739 467.297 38.4134 466.18 38.4134H465.87H463.199L456.159 39.3815C455.081 39.5297 454.208 40.3311 453.969 41.3924C453.717 42.5094 452.766 43.3317 451.624 43.4199L447.526 43.7367C444.749 43.9513 442.272 45.5654 440.953 48.0195L438.593 52.4137C437.896 53.71 436.82 54.7627 435.509 55.431L433.359 56.527C432.259 57.0879 431.566 58.2185 431.566 59.4534V60.3601C431.566 61.374 430.86 62.2512 429.87 62.4681C428.748 62.7137 427.631 62.0381 427.327 60.9308L426.409 57.5857C426.027 56.1902 425.137 54.9876 423.915 54.2131L420.063 51.7732L415.339 48.9393L408.434 44.5428C404.26 41.885 399.307 40.7231 394.387 41.2473L392.076 41.7422C390.719 42.033 389.369 41.2193 388.993 39.8832C388.768 39.0855 388.18 38.4403 387.407 38.142L385.921 37.5693C384.638 37.0743 383.207 37.1279 381.964 37.7177C379.856 38.7178 377.337 38.1335 375.885 36.3075L374.515 34.5852C373.361 33.1335 371.236 32.9198 369.815 34.1124C368.264 35.4144 365.917 35.0233 364.872 33.2888L363.773 31.4642C363.243 30.5845 362.46 29.8847 361.527 29.4556L353.168 25.6116C351.515 24.8513 349.676 24.5895 347.876 24.8582L346.742 25.0275C344.901 25.3024 343.257 26.3288 342.201 27.8619C340.814 29.876 338.443 30.9774 336.009 30.7376L331.964 30.339C330.543 30.1989 329.148 30.7924 328.262 31.9137C327.358 33.0593 325.924 33.6522 324.475 33.4791L320.029 32.948H312.614C310.321 32.948 308.311 34.4812 307.704 36.6928C307.097 38.9044 305.087 40.4376 302.794 40.4376H299.695C295.968 40.4376 292.614 42.6964 291.212 46.1492L289.349 50.7398C288.861 51.943 288.036 52.9803 286.974 53.7278L286.051 54.3778C285.836 54.5287 285.658 54.7256 285.53 54.954C285.065 55.7781 284.033 56.0889 283.19 55.6585L280.968 54.523C279.824 53.9382 279.017 52.8528 278.788 51.588C278.411 49.5085 276.523 48.051 274.416 48.2139L269.264 48.612C268.49 48.6718 267.9 47.9316 268.132 47.1908C268.317 46.5977 267.973 45.9692 267.374 45.8052L266.494 45.5644C265.606 45.3211 265.164 44.3237 265.581 43.502C266.064 42.5488 265.39 41.4169 264.321 41.3884L260.012 41.2737C259.363 41.2564 258.729 41.0717 258.172 40.7376L256.681 39.843C255.44 39.0985 255.175 37.4118 256.129 36.3232C257.158 35.149 256.758 33.3139 255.333 32.6756L253.455 31.8344C252.262 31.3004 251.592 30.0185 251.833 28.7346C252.155 27.0194 250.861 25.4252 249.116 25.3886L245.053 25.3034C243.711 25.2753 242.546 24.3733 242.182 23.0816C241.921 22.1568 241.24 21.409 240.343 21.0633L238.865 20.4933C237.756 20.0655 236.499 20.3269 235.652 21.1613C234.758 22.0424 233.413 22.28 232.271 21.7586L230.3 20.8587C227.646 19.6464 224.505 20.4595 222.772 22.8076L220.816 25.4585L219.777 26.8761C218.751 28.2753 217.12 29.102 215.386 29.102C214.116 29.102 212.886 28.6582 211.909 27.8474L210.026 26.2847C207.447 24.1443 203.729 24.0754 201.072 26.1188L197.637 28.7611C197.369 28.9667 197.255 29.3152 197.349 29.6392C197.567 30.3891 196.712 30.9897 196.08 30.5309L194.451 29.3479C194.229 29.187 193.968 29.0894 193.695 29.0655L189.324 28.6826C186.467 28.4323 183.624 29.303 181.396 31.1107L178.848 33.1787C178.231 33.6795 177.835 34.4027 177.746 35.1925C177.465 37.6801 174.461 38.7745 172.646 37.05L171.842 36.286C171.492 35.9534 171.079 35.695 170.626 35.5262L163.712 32.948L159.198 31.0245C152.206 28.0451 144.534 27.0305 137.008 28.0899L133.106 28.2924L124.604 28.816C121.579 29.0023 118.68 30.0999 116.29 31.9645C115.452 32.6183 114.686 33.3593 114.004 34.175L108.807 40.3935C107.232 42.2783 105.185 43.711 102.875 44.545L87.3658 50.1438C86.5074 50.4537 85.5905 49.8581 85.5245 48.9479C85.4806 48.3419 85.0447 47.8363 84.4518 47.7035L84.1977 47.6466C82.8283 47.3399 82.3765 45.6149 83.4197 44.6763L83.6629 44.4575C84.6357 43.5822 84.4507 42.0079 83.3014 41.382L80.2122 39.6996C78.763 38.9104 77.8803 37.3497 77.9268 35.7003C77.9972 33.2038 76.0197 31.0869 73.5227 31.0387L70.089 30.9723C68.5836 30.9432 67.2582 29.9728 66.7757 28.5465C66.1841 26.7975 64.3566 25.788 62.5611 26.2184L60.2972 26.761C58.9431 27.0856 57.5163 26.7149 56.4914 25.7723C55.578 24.9321 54.3386 24.5411 53.1084 24.7049L51.3982 24.9327C48.9593 25.2574 46.8857 26.8732 45.9746 29.1586C44.3942 33.123 39.5971 34.6714 35.9972 32.3791L30.4454 28.844C29.8716 28.4787 29.2422 28.2094 28.5818 28.0467C26.6285 27.5655 24.5629 28.053 23.0309 29.3568L21.7041 30.486C21.216 30.9014 20.8771 31.465 20.739 32.0909C20.3261 33.9627 18.2606 34.9445 16.5484 34.0829L12.7201 32.1565C11.1584 31.3706 9.3396 31.2724 7.70237 31.8855L6.29806 32.4114C2.51007 33.8299 0 37.4501 0 41.495V62.7067C0 84.9599 18.0397 103 40.2929 103H759.318C777.855 103 792.882 87.9726 792.882 69.4357V42.5266C792.882 38.2838 789.37 34.8833 785.129 35.0203L783.206 35.0825C781.465 35.1387 779.848 34.182 779.06 32.6284C778.828 32.1702 778.518 31.7553 778.145 31.4018L776.604 29.9414C774.636 28.0772 771.755 27.5478 769.254 28.5907L768.098 29.0728C768.051 29.0921 768.009 29.1201 767.973 29.1554C767.879 29.2484 767.744 29.2874 767.615 29.259L766.062 28.9189C766.003 28.9061 765.943 28.8996 765.883 28.8996C765.807 28.8996 765.731 28.8891 765.657 28.8684L764.105 28.4313C763.298 28.2043 762.471 28.0588 761.636 27.9971L757.202 27.6694C755.54 27.5466 753.93 27.0414 752.495 26.1934L751.679 25.7107C749.657 24.5153 747.234 24.1992 744.974 24.8357L743.643 25.2104C741.339 25.8592 738.866 25.1565 737.247 23.3932C736.422 22.495 735.356 21.8533 734.176 21.5449L731.446 20.8311C727.872 19.8967 724.085 20.2328 720.731 21.7819L719.345 22.4222L715.346 23.8673C713.926 24.3802 712.657 25.2387 711.652 26.3652L710.492 27.6666C708.547 29.8472 705.415 30.5172 702.748 29.3229L702.561 29.239C699.966 28.0768 696.917 28.7569 695.062 30.9113C693.456 32.7763 690.926 33.5608 688.547 32.9318L684.075 31.7494C684.035 31.7389 683.994 31.7335 683.953 31.7335C683.859 31.7335 683.768 31.7608 683.69 31.8121L682.364 32.683C681.7 33.1196 681.181 33.7449 680.874 34.4787C680.283 35.8938 678.932 36.8446 677.401 36.924L673.321 37.1356C672.513 37.1775 671.704 37.087 670.925 36.8677L668.29 36.1258C667.107 35.7928 666.226 34.8022 666.034 33.5887L666.014 33.4641C665.68 31.3536 663.34 30.227 661.481 31.2815C659.908 32.1742 657.908 31.5148 657.174 29.8615L656.636 28.6506C656.035 27.2961 654.773 26.3513 653.304 26.1557L649.112 25.5975C648.444 25.5085 647.767 25.6889 647.232 26.099L646.438 26.708C645.431 27.4798 643.963 27.0204 643.576 25.8121C643.319 25.0097 642.548 24.4858 641.707 24.542L635.337 24.9676C632.586 25.1513 629.886 24.1684 627.896 22.2597L625.255 19.7252C624.017 18.5377 622.19 18.2052 620.613 18.8807L620.382 18.9795C619.201 19.4857 618.354 20.5534 618.131 21.819C617.853 23.3964 616.617 24.6311 615.04 24.9087L614.464 25.01C612.88 25.2888 611.264 24.7278 610.194 23.5272L609.257 22.4765C607.272 20.251 604.117 19.4861 601.334 20.5554L597.797 21.9143C595.236 22.8979 593.09 24.7282 591.714 27.1009L590.189 29.7298C589.378 31.1285 587.991 32.0977 586.398 32.3779L584.749 32.6682C583.77 32.8404 582.966 33.5382 582.658 34.4829L582.588 34.6982C582 36.4989 579.724 37.0529 578.375 35.7234C577.382 34.7454 575.789 34.7454 574.796 35.7234Z" fill="#39291E"/>
<path d="M617.566 8H617.361V8.50737H617.566V8Z" fill="#39291E"/>
<path d="M736.064 8.50737H735.859V9.01473H736.064V8.50737Z" fill="#39291E"/>
<path d="M719.224 9.5221H719.018V10.0295H719.224V9.5221Z" fill="#39291E"/>
<path d="M713.063 15.1031H712.857V15.6105H713.063V15.1031Z" fill="#39291E"/>
<path d="M253.448 19.6694H253.243V20.1768H253.448V19.6694Z" fill="#39291E"/>
<path d="M342.989 19.6694H342.784V20.1768H342.989V19.6694Z" fill="#39291E"/>
<path d="M754.753 22.2063H754.547V22.7136H754.753V22.2063Z" fill="#39291E"/>
<path d="M133.308 24.2357H133.102V24.7431H133.308V24.2357Z" fill="#39291E"/>
<path d="M765.842 25.7578H765.637V26.2652H765.842V25.7578Z" fill="#39291E"/>
<path d="M767.691 26.2652H767.896V26.7726H767.691V27.2799H767.485V26.7726H767.691V26.2652Z" fill="#39291E"/>
<path d="M124.888 26.7726H124.682V27.2799H124.888V26.7726Z" fill="#39291E"/>
<path d="M336.417 26.7726H336.212V27.2799H336.417V26.7726Z" fill="#39291E"/>
<path d="M707.312 27.7873H707.107V28.2947H707.312V27.7873Z" fill="#39291E"/>
<path d="M329.64 28.802H329.435V29.3094H329.64V28.802Z" fill="#39291E"/>
<path d="M658.435 28.802H658.229V29.3094H658.435V28.802Z" fill="#39291E"/>
<path d="M20.9713 31.3389H20.766V31.8462H20.9713V31.3389Z" fill="#39291E"/>
<path d="M683.9 32.8609H683.695V33.3683H683.9V32.8609Z" fill="#39291E"/>
<path d="M778.781 33.3683H778.575V33.8757H778.781V33.3683Z" fill="#39291E"/>
<path d="M314.443 33.8757H314.237V34.383H314.443V33.8757Z" fill="#39291E"/>
<path d="M163.908 35.9051H163.702V36.4125H163.908V35.9051Z" fill="#39291E"/>
<path d="M681.231 36.9199H681.025V37.4272H681.231V36.9199Z" fill="#39291E"/>
<path d="M317.113 38.442H316.907V38.9493H317.113V38.442Z" fill="#39291E"/>
<path d="M692.321 38.442H692.115V38.9493H692.321V38.442Z" fill="#39291E"/>
<path d="M17.2747 40.9788H17.0693V41.4862H17.2747V40.9788Z" fill="#39291E"/>
<path d="M475.452 40.9788H475.246V41.4862H475.452V40.9788Z" fill="#39291E"/>
<path d="M780.218 41.4862H780.013V41.9935H780.218V41.4862Z" fill="#39291E"/>
<path d="M171.506 43.0083H171.301V43.5156H171.506V43.0083Z" fill="#39291E"/>
<path d="M388.786 50.1114H388.581V50.6188H388.786V50.1114Z" fill="#39291E"/>
<path d="M570.126 56.7072H569.921V57.2145H570.126V56.7072Z" fill="#39291E"/>
<path d="M266.797 57.2145H266.592V57.7219H266.797V57.2145Z" fill="#39291E"/>
<path d="M508.927 57.2145H508.721V57.7219H508.927V57.2145Z" fill="#39291E"/>
<path d="M567.867 59.7514H567.662V60.2587H567.867V59.7514Z" fill="#39291E"/>
<path d="M99.0113 64.3177H98.806V64.825H99.0113V64.3177Z" fill="#39291E"/>
<path d="M411.582 66.8545H411.377V67.3619H411.582V66.8545Z" fill="#39291E"/>
<path d="M415.484 75.9871H415.279V76.4945H415.484V75.9871Z" fill="#39291E"/>
<path d="M420.207 83.0902H420.002V83.5976H420.207V83.0902Z" fill="#39291E"/>
<path d="M287.745 85.627H287.539V86.1344H287.745V85.627Z" fill="#39291E"/>
<path d="M763.098 28.0903H762.892V28.2928H763.098V28.0903Z" fill="#FBFBFB"/>
<path d="M765.974 28.9H765.768V29.1024H765.974V28.9Z" fill="#FBFBFB"/>
<path d="M684.015 31.7339H683.81V31.9363H684.015V31.7339Z" fill="#FBFBFB"/>
<rect x="678.589" y="86" width="60.8734" height="54" fill="#D9D9D9"/>
<g clip-path="url(#clip0_1_586)">
<rect width="1440" height="130" transform="translate(0 55)" fill="#39291E"/>
</g>
<g clip-path="url(#clip1_1_586)">
<path d="M1697.66 32.7232L1690.81 39.4618L1689.93 40.2827C1687.74 42.3509 1684.33 42.436 1682.03 40.4803C1679.94 38.6978 1676.89 38.5922 1674.68 40.2253L1672.48 41.8468C1669.69 43.9019 1665.71 42.7295 1664.49 39.4918C1663.63 37.2213 1661.32 35.842 1658.91 36.1618L1656.11 36.5335C1655.64 36.5963 1655.16 36.6206 1654.69 36.6059L1652.27 36.5318C1650.07 36.4639 1647.93 37.3019 1646.35 38.8513C1644.31 40.8603 1641.35 41.6398 1638.59 40.9009L1629.22 38.4019C1628.88 38.3107 1628.64 38.0014 1628.64 37.6479C1628.64 37.5102 1628.61 37.3749 1628.54 37.2558L1628.21 36.6877C1627.49 35.4524 1626.04 34.838 1624.66 35.1791L1623.24 35.5282C1623 35.5861 1622.78 35.6858 1622.58 35.8225C1621.42 36.612 1619.83 36.0204 1619.46 34.6652L1619.43 34.5289C1619.27 33.9333 1618.86 33.4355 1618.31 33.1635L1612.12 30.1216C1610.55 29.3508 1608.78 29.0931 1607.06 29.3851L1605.58 29.6351C1604.4 29.8358 1603.34 30.4891 1602.63 31.4568C1601.66 32.7792 1600.06 33.4878 1598.43 33.3189L1595.24 32.9887C1593.97 32.8577 1592.72 33.2981 1591.81 34.1897C1591.01 34.9739 1589.94 35.4134 1588.82 35.4134H1588.51H1585.83L1578.77 36.382C1577.69 36.5299 1576.82 37.3311 1576.58 38.3926C1576.33 39.5095 1575.38 40.3316 1574.24 40.4196L1570.12 40.7368C1567.34 40.9514 1564.86 42.567 1563.54 45.0245L1561.17 49.4127C1560.47 50.7096 1559.4 51.7625 1558.08 52.4303L1555.93 53.5283C1554.82 54.0883 1554.13 55.2189 1554.13 56.454V57.3553C1554.13 58.3719 1553.42 59.2513 1552.43 59.4684C1551.31 59.7139 1550.19 59.0374 1549.88 57.9285L1548.96 54.5881C1548.58 53.1911 1547.69 51.9876 1546.46 51.2134L1542.6 48.7732L1537.87 45.9393L1530.96 41.5452C1526.77 38.8856 1521.81 37.723 1516.87 38.2473L1514.55 38.7434C1513.2 39.0336 1511.85 38.2201 1511.47 36.8842C1511.24 36.0858 1510.66 35.4404 1509.88 35.1425L1508.39 34.5691C1507.11 34.0741 1505.67 34.1278 1504.43 34.7176C1502.31 35.7182 1499.79 35.133 1498.33 33.3045L1496.96 31.5862C1495.8 30.1331 1493.68 29.919 1492.25 31.1123C1490.7 32.4152 1488.35 32.0234 1487.3 30.2865L1486.2 28.466C1485.67 27.5852 1484.88 26.8846 1483.95 26.4555L1475.57 22.6112C1473.91 21.8511 1472.07 21.5894 1470.27 21.8579L1469.13 22.028C1467.28 22.3026 1465.64 23.3289 1464.58 24.8625C1463.19 26.8766 1460.82 27.9777 1458.38 27.7382L1454.32 27.3387C1452.9 27.1987 1451.5 27.7922 1450.61 28.9138C1449.71 30.0595 1448.27 30.6524 1446.82 30.4795L1442.36 29.948H1434.36C1432.4 29.948 1430.68 31.2567 1430.16 33.1449C1429.52 35.4994 1427.06 36.86 1424.72 36.1583L1421.04 35.054C1418.42 34.2678 1415.58 34.8567 1413.49 36.6198L1411.07 38.6521L1408.52 40.4469C1408.3 40.598 1408.13 40.795 1408 41.0238C1407.53 41.848 1406.5 42.1589 1405.66 41.7289L1403.42 40.5915C1402.28 40.0072 1401.47 38.9214 1401.24 37.6558C1400.86 35.5768 1398.98 34.12 1396.87 34.2825L1391.69 34.6816C1390.92 34.7412 1390.33 34.0009 1390.56 33.2605C1390.75 32.6673 1390.4 32.0386 1389.81 31.8749L1388.92 31.6331C1388.03 31.3902 1387.59 30.3924 1388.01 29.5709C1388.49 28.6183 1387.82 27.4862 1386.75 27.4578L1381.43 27.3166L1375.3 24.5764C1374.9 24.3962 1374.64 23.996 1374.64 23.5546C1374.64 22.9455 1374.15 22.4483 1373.55 22.4355L1367.23 22.3033C1365.88 22.2752 1364.72 21.3737 1364.35 20.0822C1364.09 19.1571 1363.41 18.4092 1362.51 18.064L1361.03 17.4927C1359.92 17.0652 1358.66 17.3266 1357.81 18.1614C1356.91 19.0427 1355.57 19.2805 1354.42 18.7592L1352.45 17.8588C1349.79 16.646 1346.64 17.4603 1344.9 19.8118L1342.94 22.4585L1341.9 23.8728C1340.87 25.2743 1339.24 26.102 1337.5 26.102C1336.23 26.102 1335 25.658 1334.02 24.8466L1332.12 23.2786C1329.54 21.1408 1325.82 21.072 1323.17 23.1127L1319.72 25.7608C1319.45 25.9666 1319.33 26.3157 1319.43 26.6402C1319.65 27.3902 1318.79 27.9914 1318.16 27.5332L1316.52 26.3477C1316.3 26.187 1316.04 26.0894 1315.77 26.0656L1311.38 25.6818C1308.52 25.432 1305.68 26.3014 1303.45 28.1067L1300.89 30.1779C1300.27 30.6792 1299.87 31.4038 1299.78 32.1953C1299.5 34.6839 1296.5 35.7798 1294.68 34.0564L1293.87 33.2863C1293.52 32.9535 1293.1 32.695 1292.65 32.5263L1288.39 30.9428C1286.62 30.2816 1284.92 29.4269 1283.33 28.3942L1273.98 22.322C1267.69 18.2329 1260.13 16.5561 1252.69 17.6004L1248.78 17.8028L1240.26 18.3267C1237.23 18.5129 1234.33 19.6099 1231.93 21.4739C1231.09 22.1284 1230.32 22.8704 1229.64 23.6873L1222.51 32.1982C1222.19 32.5866 1221.83 32.9452 1221.44 33.2698L1210.26 42.5971C1209.6 43.1478 1208.6 42.7206 1208.53 41.8634C1208.5 41.399 1208.17 41.0117 1207.71 40.9101L1207.22 40.8009C1205.85 40.4944 1205.4 38.7664 1206.44 37.8275L1206.68 37.6117C1207.66 36.737 1207.47 35.1616 1206.32 34.5364L1202.81 32.6283C1201.61 31.9775 1200.88 30.709 1200.92 29.3465C1200.99 26.8639 1198.6 25.0501 1196.23 25.7899L1192.24 27.0353C1190.65 27.5295 1188.96 26.6699 1188.43 25.0986C1187.92 23.6028 1186.36 22.7396 1184.82 23.107L1182.09 23.7615C1180.73 24.0858 1179.3 23.7151 1178.28 22.7723C1177.36 21.932 1176.12 21.541 1174.89 21.7047L1173.17 21.9332C1170.73 22.2576 1168.65 23.8741 1167.74 26.1615C1166.15 30.1268 1161.35 31.6761 1157.75 29.3861L1152.18 25.8444C1151.6 25.4788 1150.97 25.2094 1150.31 25.0466C1148.35 24.5653 1146.28 25.0532 1144.75 26.3582L1143.42 27.4856C1142.93 27.9012 1142.59 28.4656 1142.45 29.0926C1142.04 30.9645 1139.97 31.9466 1138.26 31.0863L1134.41 29.1558C1132.85 28.3703 1131.03 28.2721 1129.39 28.8848L1127.99 29.4088C1124.19 30.8287 1121.67 34.4584 1121.67 38.5145V59.7187C1121.67 81.9653 1139.7 99.9997 1161.95 99.9997H1882.63C1901.17 99.9997 1916.2 84.9721 1916.2 66.4346V39.5454C1916.2 35.2922 1912.68 31.8833 1908.43 32.0204L1906.5 32.0826C1904.75 32.1388 1903.14 31.1825 1902.35 29.6293C1902.11 29.1705 1901.8 28.7552 1901.43 28.4015L1899.89 26.9428C1897.91 25.0772 1895.03 24.5473 1892.52 25.5904L1891.36 26.0728C1891.32 26.0921 1891.27 26.1202 1891.24 26.1554C1891.14 26.2484 1891.01 26.2874 1890.88 26.2591L1889.32 25.9189C1889.26 25.9061 1889.2 25.8996 1889.14 25.8996C1889.07 25.8996 1888.99 25.8891 1888.92 25.8684L1887.36 25.4313C1886.55 25.2043 1885.72 25.0588 1884.89 24.9971L1880.44 24.6693C1878.78 24.5465 1877.16 24.0414 1875.73 23.1932L1874.91 22.7111C1872.88 21.5153 1870.46 21.199 1868.19 21.8356L1866.85 22.2117C1864.55 22.8598 1862.07 22.1573 1860.45 20.3939C1859.62 19.4952 1858.55 18.8534 1857.37 18.5451L1854.63 17.8304C1851.05 16.8964 1847.26 17.2324 1843.9 18.7813L1842.51 19.4222L1838.5 20.8673C1837.08 21.3802 1835.81 22.2392 1834.8 23.3667L1833.64 24.6637C1831.69 26.8468 1828.55 27.5176 1825.88 26.3229L1825.69 26.2372C1823.09 25.0757 1820.03 25.756 1818.17 27.9111C1816.57 29.7767 1814.03 30.5614 1811.65 29.9328L1807.17 28.7494C1807.13 28.7389 1807.08 28.7335 1807.04 28.7335C1806.95 28.7335 1806.86 28.7609 1806.78 28.8122L1805.45 29.6832C1804.78 30.1197 1804.26 30.7452 1803.96 31.4795C1803.36 32.8943 1802.01 33.8444 1800.48 33.9237L1796.39 34.1357C1795.58 34.1775 1794.77 34.0872 1793.99 33.8683L1791.35 33.1253C1790.16 32.7926 1789.28 31.8013 1789.09 30.5866L1789.07 30.4715C1788.73 28.3562 1786.39 27.2266 1784.52 28.2819C1782.95 29.1749 1780.94 28.5143 1780.21 26.8584L1779.67 25.6521C1779.07 24.2966 1777.8 23.3515 1776.33 23.156L1772.13 22.5974C1771.46 22.5084 1770.78 22.6888 1770.25 23.099L1769.45 23.7103C1768.44 24.4816 1766.97 24.0217 1766.58 22.8129C1766.32 22.0099 1765.55 21.4857 1764.71 21.5418L1758.32 21.9678C1755.57 22.1514 1752.86 21.1684 1750.87 19.2591L1748.22 16.7244C1746.98 15.537 1745.15 15.2045 1743.57 15.8795L1743.34 15.9807C1742.16 16.4861 1741.31 17.5537 1741.08 18.8196C1740.81 20.3966 1739.57 21.6307 1737.99 21.9077L1737.41 22.0104C1735.82 22.289 1734.2 21.7279 1733.13 20.5269L1732.19 19.4761C1730.2 17.2502 1727.04 16.485 1724.26 17.5536L1720.7 18.9159C1718.14 19.8985 1715.99 21.7284 1714.61 24.1017L1713.09 26.7271C1712.27 28.1276 1710.88 29.0976 1709.29 29.3778L1707.63 29.6684C1706.65 29.8405 1705.85 30.5389 1705.54 31.4847L1705.47 31.6945C1704.88 33.4985 1702.6 34.0539 1701.24 32.7232C1700.25 31.7447 1698.65 31.7447 1697.66 32.7232Z" fill="#39291E"/>
<path d="M1740.52 5H1740.31V5.50737H1740.52V5Z" fill="#39291E"/>
<path d="M1859.26 5.50737H1859.06V6.01473H1859.26V5.50737Z" fill="#39291E"/>
<path d="M1842.39 6.5221H1842.18V7.02947H1842.39V6.5221Z" fill="#39291E"/>
<path d="M1836.21 12.1031H1836.01V12.6105H1836.21V12.1031Z" fill="#39291E"/>
<path d="M1375.64 16.6694H1375.44V17.1768H1375.64V16.6694Z" fill="#39291E"/>
<path d="M1465.37 16.6694H1465.16V17.1768H1465.37V16.6694Z" fill="#39291E"/>
<path d="M1877.99 19.2063H1877.78V19.7136H1877.99V19.2063Z" fill="#39291E"/>
<path d="M1255.25 21.2357H1255.05V21.7431H1255.25V21.2357Z" fill="#39291E"/>
<path d="M1889.1 22.7578H1888.9V23.2652H1889.1V22.7578Z" fill="#39291E"/>
<path d="M1890.95 23.2652H1891.16V23.7726H1890.95V24.2799H1890.75V23.7726H1890.95V23.2652Z" fill="#39291E"/>
<path d="M1246.82 23.7726H1246.61V24.2799H1246.82V23.7726Z" fill="#39291E"/>
<path d="M1458.78 23.7726H1458.58V24.2799H1458.78V23.7726Z" fill="#39291E"/>
<path d="M1830.45 24.7873H1830.24V25.2947H1830.45V24.7873Z" fill="#39291E"/>
<path d="M1451.99 25.802H1451.79V26.3094H1451.99V25.802Z" fill="#39291E"/>
<path d="M1781.47 25.802H1781.27V26.3094H1781.47V25.802Z" fill="#39291E"/>
<path d="M1142.68 28.3389H1142.48V28.8462H1142.68V28.3389Z" fill="#39291E"/>
<path d="M1806.99 29.8609H1806.78V30.3683H1806.99V29.8609Z" fill="#39291E"/>
<path d="M1902.07 30.3683H1901.86V30.8757H1902.07V30.3683Z" fill="#39291E"/>
<path d="M1436.76 30.8757H1436.56V31.383H1436.76V30.8757Z" fill="#39291E"/>
<path d="M1285.92 32.9051H1285.71V33.4125H1285.92V32.9051Z" fill="#39291E"/>
<path d="M1804.31 33.9199H1804.11V34.4272H1804.31V33.9199Z" fill="#39291E"/>
<path d="M1439.44 35.442H1439.23V35.9493H1439.44V35.442Z" fill="#39291E"/>
<path d="M1815.43 35.442H1815.22V35.9493H1815.43V35.442Z" fill="#39291E"/>
<path d="M1138.98 37.9788H1138.77V38.4862H1138.98V37.9788Z" fill="#39291E"/>
<path d="M1598.11 37.9788H1597.9V38.4862H1598.11V37.9788Z" fill="#39291E"/>
<path d="M1903.51 38.4862H1903.3V38.9935H1903.51V38.4862Z" fill="#39291E"/>
<path d="M1293.53 40.0083H1293.32V40.5156H1293.53V40.0083Z" fill="#39291E"/>
<path d="M1511.26 47.1114H1511.06V47.6188H1511.26V47.1114Z" fill="#39291E"/>
<path d="M1692.98 53.7072H1692.77V54.2145H1692.98V53.7072Z" fill="#39291E"/>
<path d="M1389.02 54.2145H1388.81V54.7219H1389.02V54.2145Z" fill="#39291E"/>
<path d="M1631.65 54.2145H1631.45V54.7219H1631.65V54.2145Z" fill="#39291E"/>
<path d="M1690.72 56.7514H1690.51V57.2587H1690.72V56.7514Z" fill="#39291E"/>
<path d="M1220.88 61.3177H1220.68V61.825H1220.88V61.3177Z" fill="#39291E"/>
<path d="M1534.11 63.8545H1533.9V64.3619H1534.11V63.8545Z" fill="#39291E"/>
<path d="M1538.02 72.9871H1537.81V73.4945H1538.02V72.9871Z" fill="#39291E"/>
<path d="M1542.75 80.0902H1542.54V80.5976H1542.75V80.0902Z" fill="#39291E"/>
<path d="M1410.01 82.627H1409.8V83.1344H1410.01V82.627Z" fill="#39291E"/>
</g>
<defs>
<clipPath id="clip0_1_586">
<rect width="1440" height="130" fill="white" transform="translate(0 55)"/>
</clipPath>
<clipPath id="clip1_1_586">
<rect width="318.338" height="95" fill="white" transform="translate(1121.67 5)"/>
</clipPath>
</defs>
</svg>
